<svg xmlns="http://www.w3.org/2000/svg" width="46" height="46" viewBox="0 0 46 46">
  <title>资源 9</title>
  <g>
    <circle cx="23" cy="23" r="23" style="fill: #cbcbcb"/>
    <g>
      <path d="M25.87,33.73c0,.45-2.23.82-5,.82s-4.85.29-5.07-.37S17.1,32.67,20,32.45,25.87,33.28,25.87,33.73Z" style="fill: #fff"/>
      <path d="M20.22,33.73c0,.45,2.23.82,5,.82s4.85.29,5.07-.37S29,32.67,26.13,32.45,20.22,33.28,20.22,33.73Z" style="fill: #fff"/>
      <path d="M15.72,21.21l-1.27,3.3s-1.88,4.91-.94,6c.25.29,2-2.39,2-2.39s.15,6.05,7.5,6.3c7.33,0,7.44-6.3,7.44-6.3s1.34,2.21,2,2.32.26-4-2.18-9.21c.15-2.79-.4-9.5-7.25-9.82C16,11.6,15.72,18.67,15.72,21.21Z" style="fill: #fff"/>
    </g>
  </g>
</svg>
