<svg xmlns="http://www.w3.org/2000/svg" width="46" height="46" viewBox="0 0 46 46">
  <title>资源 11</title>
  <g>
    <circle cx="23" cy="23" r="23" style="fill: #00bdf3"/>
    <path d="M32.76,19.93c0-.21,0-.41,0-.62A9.32,9.32,0,0,0,35,16.87a8.6,8.6,0,0,1-2.59.71,4.66,4.66,0,0,0,2-2.61,8.63,8.63,0,0,1-2.87,1.11,4.48,4.48,0,0,0-3.29-1.57,4.58,4.58,0,0,0-4.51,4.74,5.09,5.09,0,0,0,.12,1.1,12.69,12.69,0,0,1-9.31-5.18,5.13,5.13,0,0,0,1.4,6.5,4.3,4.3,0,0,1-2-.63v.06a4.82,4.82,0,0,0,3.62,4.79,4.25,4.25,0,0,1-1.19.16,4.09,4.09,0,0,1-.85-.09,4.6,4.6,0,0,0,4.22,3.38,8.67,8.67,0,0,1-5.61,2.06A8.54,8.54,0,0,1,13,31.33a12.12,12.12,0,0,0,6.92,2.19C28.22,33.52,32.76,26.24,32.76,19.93Z" style="fill: #fff"/>
  </g>
</svg>
