<svg xmlns="http://www.w3.org/2000/svg" width="46" height="46" viewBox="0 0 46 46">
  <title>资源 14</title>
  <g>
    <circle cx="23" cy="23" r="23" style="fill: #e55a61"/>
    <g>
      <path d="M31.13,21.09c-.36-.11-.61-.18-.42-.66a2.74,2.74,0,0,0,0-2.59c-.82-1.2-3.09-1.14-5.68,0,0,0-.81.37-.6-.29.4-1.31.33-2.4-.28-3-1.41-1.43-5.15.06-8.36,3.33-2.41,2.45-3.8,5-3.8,7.28,0,4.29,5.4,7.16,10.68,7.16,6.93,0,11.54-4.36,11.54-7.61C34.21,22.66,32.59,21.55,31.13,21.09Zm-8.44,9.24c-4.21.41-7.85-1.5-8.13-4.29s2.93-5.37,7.14-5.8,7.86,1.5,8.13,4.28S26.91,29.9,22.69,30.32Z" style="fill: #fff"/>
      <path d="M38,17.6a7.84,7.84,0,0,0-7.85-7.84.91.91,0,1,0,0,1.83,6,6,0,0,1,6,6,.91.91,0,1,0,1.83,0Z" style="fill: #fff"/>
      <path d="M34.37,17.46a5.24,5.24,0,0,0-4.07-4.07.91.91,0,1,0-.37,1.79,3.4,3.4,0,0,1,2.65,2.65.91.91,0,1,0,1.79-.37Z" style="fill: #fff"/>
      <path d="M24.12,24.91A2.91,2.91,0,0,0,20.53,23,2.91,2.91,0,0,0,18,26.14a2.91,2.91,0,0,0,3.59,2A2.92,2.92,0,0,0,24.12,24.91Zm-4.42,2.63A1.31,1.31,0,1,1,21,26.23,1.31,1.31,0,0,1,19.71,27.54Zm2.13-2a.65.65,0,1,1,.66-.65A.65.65,0,0,1,21.84,25.57Z" style="fill: #fff"/>
    </g>
  </g>
</svg>
