<?xml version="1.0" encoding="utf-8"?>
<!-- Generator: Adobe Illustrator 22.0.1, SVG Export Plug-In . SVG Version: 6.00 Build 0)  -->
<svg version="1.1" id="背景" xmlns="http://www.w3.org/2000/svg" xmlns:xlink="http://www.w3.org/1999/xlink" x="0px" y="0px"
	 width="87.8px" height="71px" viewBox="0 0 87.8 71" style="enable-background:new 0 0 87.8 71;" xml:space="preserve">
<g>
	<path d="M43.7,2c9.3,0,17.6,3.7,23.6,9.8l-4.8,4.8C57.7,11.9,51,8.9,43.7,8.9C29,8.9,17,20.8,17,35.5h9.3L13.5,47L2,35.5h8.2
		C10.2,17,25.2,2.1,43.7,2 M26.3,35.5L26.3,35.5 M43.7,0C43.7,0,43.7,0,43.7,0C24.8,0.1,9.3,14.9,8.3,33.5H2c-0.8,0-1.5,0.5-1.8,1.2
		S0,36.4,0.6,36.9l11.5,11.5c0.4,0.4,0.9,0.6,1.4,0.6c0.5,0,1-0.2,1.3-0.5L27.6,37c0.4-0.4,0.7-0.9,0.7-1.5c0-1.1-0.9-2-2-2h0h-7.2
		c1-12.7,11.7-22.7,24.6-22.7c6.6,0,12.8,2.6,17.4,7.2c0.4,0.4,0.9,0.6,1.4,0.6s1-0.2,1.4-0.6l4.8-4.8c0.4-0.4,0.6-0.9,0.6-1.4
		s-0.2-1-0.6-1.4C62,3.7,53.1,0,43.7,0L43.7,0z"/>
</g>
<g>
	<path d="M73.7,22.8l12.2,12.8h-8.7C77.1,54,62.2,69,43.7,69c-9.2,0-17.6-3.7-23.6-9.8l4.8-4.8c4.8,4.8,11.5,7.8,18.8,7.8
		c14.7,0,26.7-11.9,26.7-26.7h-9.7L73.7,22.8 M73.7,20.8c-0.5,0-1,0.2-1.4,0.6l-13,12.7c-0.6,0.6-0.8,1.4-0.5,2.2
		c0.3,0.8,1,1.2,1.9,1.2h7.6c-1,12.7-11.7,22.7-24.6,22.7c-6.6,0-12.8-2.6-17.4-7.2c-0.4-0.4-0.9-0.6-1.4-0.6s-1,0.2-1.4,0.6
		l-4.8,4.8c-0.8,0.8-0.8,2,0,2.8C25.3,67.3,34.2,71,43.7,71C62.6,71,78,56.2,79.1,37.6h6.8c0.8,0,1.5-0.5,1.8-1.2
		c0.3-0.7,0.2-1.6-0.4-2.2L75.1,21.4C74.7,21,74.2,20.8,73.7,20.8C73.7,20.8,73.7,20.8,73.7,20.8L73.7,20.8z"/>
</g>
</svg>
