<?xml version="1.0" encoding="utf-8"?>
<!-- Generator: Adobe Illustrator 22.0.1, SVG Export Plug-In . SVG Version: 6.00 Build 0)  -->
<svg version="1.1" id="背景" xmlns="http://www.w3.org/2000/svg" xmlns:xlink="http://www.w3.org/1999/xlink" x="0px" y="0px"
	 width="96.5px" height="86px" viewBox="0 0 96.5 86" style="enable-background:new 0 0 96.5 86;" xml:space="preserve">
<path style="fill:none;stroke:#000000;stroke-width:2;stroke-linecap:round;stroke-linejoin:round;stroke-miterlimit:10;" d="
	M77.5,39.6v25.2c0,2.6-2.1,4.8-4.8,4.8H22.9c-2.6,0-4.8-2.1-4.8-4.8v-59c0-2.6,2.1-4.8,4.8-4.8h49.8c2.6,0,4.8,2.1,4.8,4.8v38.3"/>
<path style="fill:none;stroke:#000000;stroke-width:2;stroke-linecap:round;stroke-linejoin:round;stroke-miterlimit:10;" d="
	M77.5,37.9h14.7c1.8,0,3.3,1.5,3.3,3.3v26.4"/>
<path style="fill:none;stroke:#000000;stroke-width:2;stroke-linecap:round;stroke-linejoin:round;stroke-miterlimit:10;" d="
	M95.5,64.4v17.3c0,1.8-1.5,3.3-3.3,3.3H57.9c-1.8,0-3.3-1.5-3.3-3.3V69.6"/>
<path style="fill:none;stroke:#000000;stroke-width:2;stroke-linecap:round;stroke-linejoin:round;stroke-miterlimit:10;" d="
	M41.8,57.2"/>
<path style="fill:none;stroke:#000000;stroke-width:2;stroke-linecap:round;stroke-linejoin:round;stroke-miterlimit:10;" d="
	M41.8,69.6v1.8c0,1.8-1.5,3.3-3.3,3.3H4.3c-1.8,0-3.3-1.5-3.3-3.3V30.8c0-1.8,1.5-3.3,3.3-3.3H18"/>
<path style="fill:none;stroke:#000000;stroke-width:2;stroke-linecap:round;stroke-linejoin:round;stroke-miterlimit:10;stroke-dasharray:6,6,0,0,0,0;" d="
	M39.1,29.7"/>
<g>
	
		<line style="fill:none;stroke:#000000;stroke-width:2;stroke-linecap:round;stroke-linejoin:round;stroke-miterlimit:10;" x1="41.3" y1="30.6" x2="25.7" y2="30.6"/>
	
		<polyline style="fill:none;stroke:#000000;stroke-width:2;stroke-linecap:round;stroke-linejoin:round;stroke-miterlimit:10;" points="
		36.5,24.3 43.5,30.5 36.7,36.8 	"/>
</g>
<g>
	
		<line style="fill:none;stroke:#000000;stroke-width:2;stroke-linecap:round;stroke-linejoin:round;stroke-miterlimit:10;" x1="53.4" y1="45" x2="68.4" y2="45"/>
	
		<polyline style="fill:none;stroke:#000000;stroke-width:2;stroke-linecap:round;stroke-linejoin:round;stroke-miterlimit:10;" points="
		58,50.8 51.5,45 57.8,39.1 	"/>
</g>
</svg>
