<?xml version="1.0" encoding="utf-8"?>
<!-- Generator: Adobe Illustrator 22.0.1, SVG Export Plug-In . SVG Version: 6.00 Build 0)  -->
<svg version="1.1" id="背景" xmlns="http://www.w3.org/2000/svg" xmlns:xlink="http://www.w3.org/1999/xlink" x="0px" y="0px"
	 width="73.5px" height="75.7px" viewBox="0 0 73.5 75.7" style="enable-background:new 0 0 73.5 75.7;" xml:space="preserve">
<g>
	<path style="fill:none;stroke:#000000;stroke-width:2;stroke-linecap:round;stroke-linejoin:round;stroke-miterlimit:10;" d="
		M72.5,69.3l-34.2,0v4.1c0,0.7-0.6,1.4-1.4,1.4c-0.4,0-0.7-0.1-1-0.4l-9.5-11c-0.5-0.5-0.5-1.4,0-1.9L36,51.2c0.3-0.3,0.6-0.4,1-0.4
		c0.2,0,0.4,0,0.5,0.1c0.5,0.2,0.8,0.7,0.8,1.3v4.1h22.1L72.5,69.3z"/>
</g>
<path style="fill:none;stroke:#000000;stroke-width:2;stroke-linecap:round;stroke-linejoin:round;stroke-miterlimit:10;" d="
	M9.7,69.7H1V1h28.8c16,0,22.4,6.8,22.4,20.4c-0.3,13.6-8,20.6-26.4,20.8h-16V69.7z"/>
<path style="fill:none;stroke:#000000;stroke-width:2;stroke-linecap:round;stroke-linejoin:round;stroke-miterlimit:10;" d="
	M9.9,34.4h13.9c12.5,0.5,18.7-3.9,18.5-13.2c0-8.1-5.6-12.2-16.7-12.2H9.9V34.4z"/>
</svg>
