<?xml version="1.0" encoding="utf-8"?>
<!-- Generator: Adobe Illustrator 22.0.1, SVG Export Plug-In . SVG Version: 6.00 Build 0)  -->
<svg version="1.1" id="背景" xmlns="http://www.w3.org/2000/svg" xmlns:xlink="http://www.w3.org/1999/xlink" x="0px" y="0px"
	 width="75.3px" height="78px" viewBox="0 0 75.3 78" style="enable-background:new 0 0 75.3 78;" xml:space="preserve">
<style type="text/css">
	.st0{fill:#3F7AFF;}
	.st1{fill:none;stroke:#3F7AFF;stroke-width:2;stroke-linecap:round;stroke-linejoin:round;stroke-miterlimit:10;}
</style>
<g>
	<path class="st0" d="M37.7,2L37.7,2c8.8,0,16,7.2,16,16s-7.2,16-16,16s-16-7.2-16-16S28.8,2,37.7,2 M37.7,0c-9.9,0-18,8.1-18,18
		s8.1,18,18,18s18-8.1,18-18S47.6,0,37.7,0L37.7,0z"/>
</g>
<path class="st1" d="M67.3,77H1v-8.5C1,52.7,14.1,40,30.3,40H45c16.2,0,29.3,12.7,29.3,28.5V77H8"/>
</svg>
