<?xml version="1.0" encoding="utf-8"?>
<!-- Generator: Adobe Illustrator 22.0.1, SVG Export Plug-In . SVG Version: 6.00 Build 0)  -->
<svg version="1.1" id="背景" xmlns="http://www.w3.org/2000/svg" xmlns:xlink="http://www.w3.org/1999/xlink" x="0px" y="0px"
	 width="75.3px" height="78px" viewBox="0 0 75.3 78" style="enable-background:new 0 0 75.3 78;" xml:space="preserve">
<g>
	<path d="M37.7,2L37.7,2c8.8,0,16,7.2,16,16c0,8.8-7.2,16-16,16c-8.8,0-16-7.2-16-16C21.7,9.2,28.8,2,37.7,2 M37.7,0
		c-9.9,0-18,8.1-18,18c0,9.9,8.1,18,18,18c9.9,0,18-8.1,18-18S47.6,0,37.7,0L37.7,0z"/>
</g>
<path style="fill:none;stroke:#000000;stroke-width:2;stroke-linecap:round;stroke-linejoin:round;stroke-miterlimit:10;" d="
	M67.3,77H1v-8.5C1,52.7,14.1,40,30.3,40H45c16.2,0,29.3,12.7,29.3,28.5V77H8"/>
</svg>
