<?xml version="1.0" encoding="utf-8"?>
<!-- Generator: Adobe Illustrator 22.0.1, SVG Export Plug-In . SVG Version: 6.00 Build 0)  -->
<svg version="1.1" id="图层_1" xmlns="http://www.w3.org/2000/svg" xmlns:xlink="http://www.w3.org/1999/xlink" x="0px" y="0px"
	 width="491.5px" height="491.5px" viewBox="0 0 491.5 491.5" style="enable-background:new 0 0 491.5 491.5;" xml:space="preserve"
	>
<style type="text/css">
	.st0{fill:#333333;}
</style>
<path class="st0" d="M471,225.3H266.2V20.5c0-11.3-9.2-20.5-20.5-20.5c-11.3,0-20.5,9.2-20.5,20.5v204.8H20.5
	C9.2,225.3,0,234.5,0,245.8c0,11.3,9.2,20.5,20.5,20.5h204.8V471c0,11.3,9.2,20.5,20.5,20.5c11.3,0,20.5-9.2,20.5-20.5V266.2H471
	c11.3,0,20.5-9.2,20.5-20.5C491.5,234.5,482.3,225.3,471,225.3L471,225.3z M471,225.3"/>
</svg>
