<svg xmlns="http://www.w3.org/2000/svg" xmlns:xlink="http://www.w3.org/1999/xlink" viewBox="0 0 512 512">
  <defs>
    <linearGradient id="未命名的渐变_171" data-name="未命名的渐变 171" x1="223" y1="418.9" x2="223" y2="340.21" gradientUnits="userSpaceOnUse">
      <stop offset="0.14" stop-color="#fff"/>
      <stop offset="0.23" stop-color="#fafeff"/>
      <stop offset="0.34" stop-color="#edf9ff"/>
      <stop offset="0.45" stop-color="#d6f3ff"/>
      <stop offset="0.57" stop-color="#b6e9ff"/>
      <stop offset="0.69" stop-color="#8dddff"/>
      <stop offset="0.81" stop-color="#5bcdff"/>
      <stop offset="0.94" stop-color="#21bcff"/>
      <stop offset="1" stop-color="#00b2ff"/>
    </linearGradient>
    <linearGradient id="未命名的渐变_4" data-name="未命名的渐变 4" x1="322.53" y1="105.3" x2="322.53" y2="168.3" gradientUnits="userSpaceOnUse">
      <stop offset="0" stop-color="#6ad2ff"/>
      <stop offset="0.55" stop-color="#fff"/>
    </linearGradient>
  </defs>
  <title>apowerPDF</title>
  <g id="Layer_2" data-name="Layer 2">
    <g id="图层_1" data-name="图层 1">
      <rect width="512" height="512" rx="112" ry="112" fill="#00b2ff"/>
      <path d="M352.15,126.51l-.15-.06Z" fill="none"/>
      <path d="M352.37,126.59l-.13-.05Z" fill="none"/>
      <path d="M352.47,126.63l0,0Z" fill="none"/>
      <path d="M333.9,121a142.72,142.72,0,0,1,18,5.4,142.45,142.45,0,0,0-18-5.4Z" fill="none"/>
      <g>
        <path d="M224.38,354.4c-16.84,9.77-27.16,13.7-27.87,29.08a33.74,33.74,0,0,0,.44,8.24l0,.09c2.05,14.66,10.53,32.67,23.77,41.29,14-8.11,24.08-25.7,27.52-40.24,0-.13.07-.26.1-.39l.06-.26.06-.25h0a45.29,45.29,0,0,0,1-7.52C250.23,369,240.29,364.75,224.38,354.4Z" fill="url(#未命名的渐变_171)"/>
        <path d="M378.88,135.31v0a73.17,73.17,0,0,0-10.51-14.41l-12.51-5.64h-.06l-.06,0-.13-.05-.08,0a1,1,0,0,1-.15-.06l-.06,0a140.08,140.08,0,0,0-17.8-5.32c-2.81-.65-5.87-1.31-9.16-1.89s-6.8-1.12-10.51-1.54h-.08c-3-.34-6.22-.61-9.49-.8-4.67-.25-9.55-.3-14.58-.09a52.22,52.22,0,0,1,26.38,7,45.1,45.1,0,0,1,17.45,18.09c13.35,26.77,21.21,76.19-35.43,146.7A197.38,197.38,0,0,1,280.57,296a1.3,1.3,0,0,1-.19.14q-.45.35-.91.66h-.06a105.48,105.48,0,0,1-24.31,12c-.08.38-.15.75-.23,1.14-.18.94-.36,1.87-.53,2.8q-.89,4.59-1.67,8.9-.68,3.77-1.3,7.34l-.09.55c0,.23-.08.47-.13.7-.59,3.45-1.14,6.76-1.64,9.89-.06.41-.13.81-.19,1.21a227.43,227.43,0,0,0,28.18-4.51l.13,0,.37-.08a154.32,154.32,0,0,0,30.2-9.57l.11-.05a139,139,0,0,0,32.06-19.42A135.65,135.65,0,0,0,366.78,279C399.34,236.23,405.95,179.82,378.88,135.31Z" fill="url(#未命名的渐变_4)"/>
        <path d="M202.56,325.75h0c0-.08,0-.16,0-.24q.35-4,.7-7.81c-13.62,0-25.86-1.84-35.48-5.3a68,68,0,0,1-6.64-1.76c-12.42-4-23.77-11.83-27.6-26.81l-.09-.32h0c-.54.49-14.2,13.18-14.2,13.18a8.34,8.34,0,0,0,1.27,3.73s0,0,0,0c4.53,7.54,18,25.82,45.73,34.41l1.15.35.39.11c1,.31,2.1.6,3.18.87l.56.14a112.5,112.5,0,0,0,28.92,3.13h1c.23-3.25.47-6.44.72-9.59C202.33,328.46,202.45,327.1,202.56,325.75Z" fill="#fff"/>
        <path d="M274.81,173.7s-40.11-11.87-47.65,8.6c0,0-4.14,9.75-9.2,29.77-4.19,16.57-9,40.18-12.61,71.11q-1,8.21-1.8,17.13c-.1,1-.19,2-.28,3s-.18,2-.27,3q-.31,3.58-.6,7.28c0,.07,0,.15,0,.22h0c-.09,1.27-.19,2.53-.28,3.83-.21,2.94-.4,5.91-.58,8.94l-.12,1.86h0q-.88,15.27-1.31,32.2a8.18,8.18,0,0,0,3.07,6.89c3,2.65,8.87,4.94,20.26,4.51,0,0,11.64,0,18.78-2.51,3.21-1.15,5.52-2.84,5.43-5.3,0,0,.79-13.4,4.51-36.94v0c.06-.37.12-.75.18-1.13.47-2.92,1-6,1.54-9.24,0-.22.09-.44.12-.66l.08-.52q.59-3.33,1.23-6.86.75-4,1.6-8.32c.16-.87.34-1.74.51-2.62.08-.36.15-.71.22-1.06q1.09-5.43,2.36-11.22c.12-.55.23-1.09.36-1.65,4.33-19.8,10.11-42.68,17.79-67.9q4.11-13.48,8.95-27.82S292.4,178.24,274.81,173.7Z" fill="#fff"/>
        <path d="M150.83,249a34.7,34.7,0,1,0,34.57,34.7A34.63,34.63,0,0,0,150.83,249Zm0,50.87a16,16,0,1,1,15.91-16A15.94,15.94,0,0,1,150.83,299.88Z" fill="#fff"/>
        <path d="M290.83,79.66a180.25,180.25,0,0,0-57.32,3.88c-61.86,14.49-94.62,58-94.62,58-7.53,11.61-8.7,21.15-6.85,28.76,3.83,15.74,20.6,23.14,20.6,23.14,21.26,13.76,26.89-6.25,26.89-6.25,5.84-15.71,18.51-31,29.64-42.29v0q1.16-1.21,2.35-2.38l0,0a143.07,143.07,0,0,1,38-27.26h0a123.64,123.64,0,0,1,44.15-9.83c5-.22,9.91-.16,14.58.09,3.27.18,6.44.45,9.49.8h.08a171.07,171.07,0,0,1,19.66,3.43,140.6,140.6,0,0,1,17.81,5.32l.06,0,.15.06.08,0,.13.05.06,0,0,0h0l12.51,5.63C338.35,84,290.83,79.66,290.83,79.66Z" fill="#fff"/>
      </g>
    </g>
  </g>
</svg>
