<svg xmlns="http://www.w3.org/2000/svg" xmlns:xlink="http://www.w3.org/1999/xlink" width="17" height="17" viewBox="0 0 17 17"><style type="text/css">.st0{clip-path:url(#a);fill:none;stroke:#41b0e6;stroke-linecap:round;stroke-linejoin:round;stroke-miterlimit:10}.st1{clip-path:url(#a);fill:#41b0e6}</style><defs><path id="b" d="M0 0h17v17H0z"/></defs><clipPath id="a"><use xlink:href="#b" overflow="visible"/></clipPath><path class="st0" d="M16.5 8.5c0 4.4-3.6 8-8 8h-8s3-1.7 2.4-2.3C1.4 12.7.5 10.7.5 8.5c0-4.4 3.6-8 8-8s8 3.6 8 8z"/><path class="st1" d="M8.3 7.9c0 .8-.7 1.5-1.5 1.5s-1.5-.6-1.5-1.5c0-.8.7-1.5 1.5-1.5s1.5.7 1.5 1.5"/><path class="st1" d="M14 7.9c0 .8-.7 1.5-1.5 1.5S11 8.7 11 7.9s.7-1.5 1.5-1.5 1.5.7 1.5 1.5"/></svg>