<?xml version="1.0" encoding="utf-8"?>
<!-- Generator: Adobe Illustrator 22.0.1, SVG Export Plug-In . SVG Version: 6.00 Build 0)  -->
<svg version="1.1" id="图层_1" xmlns="http://www.w3.org/2000/svg" xmlns:xlink="http://www.w3.org/1999/xlink" x="0px" y="0px"
	 width="20px" height="20px" viewBox="0 0 20 20" style="enable-background:new 0 0 20 20;" xml:space="preserve">
<path style="fill:#333333;stroke:#333333;stroke-width:0.4;stroke-linecap:round;stroke-linejoin:round;stroke-miterlimit:10;" d="
	M10.6,19c-0.1,0-0.2-0.1-0.2-0.2s0.1-0.1,0.2-0.1h7c0.1,0,0.2,0,0.2,0.1v0.1c0,0.1-0.1,0.2-0.2,0.2L10.6,19L10.6,19z M12.9,17.4
	c-0.8,0-1.6,0-2.3,0c-0.2,0-0.2-0.2-0.3-0.4v-0.1l-1-3.3L9.1,13c-0.4-0.1-0.8-0.4-0.8-0.9s0.4-0.9,0.9-0.9s0.9,0.4,0.9,0.9
	c0,0.2,0,0.3-0.1,0.5l1.5,0.9c0.1,0.1,0.3,0.2,0.4,0.2c0.4-0.7,0.8-1.4,1.2-2.1l0.5-0.9c-0.3-0.2-0.4-0.4-0.4-0.7
	c0-0.5,0.4-0.9,0.9-0.9s0.9,0.4,0.9,0.9c0,0.3-0.1,0.6-0.4,0.7l0.4,0.7c0.4,0.8,0.8,1.5,1.3,2.3l0,0l0,0c0.6-0.4,1.2-0.7,1.8-1.1
	c-0.1-0.1-0.1-0.3-0.1-0.5c0-0.5,0.4-0.9,0.9-0.9c0.2,0,0.5,0.1,0.6,0.3c0.2,0.2,0.3,0.4,0.3,0.6c0,0.4-0.3,0.8-0.8,0.9l-1.1,3.8
	v0.1c0,0.2-0.1,0.3-0.3,0.3C16.9,17.4,13.7,17.4,12.9,17.4z M9.7,13.3c0,0.1,0.1,0.3,0.1,0.4l0.8,2.7l0.2,0.7c1.1,0,5.6,0,6.7,0
	l0.4-1.3l0.8-2.7c-0.1,0-0.1,0-0.2-0.1l-1.9,1.2c-0.1,0-0.2,0.1-0.3,0.1h-0.1c-0.1,0-0.2-0.1-0.3-0.3c-0.4-0.8-0.8-1.5-1.3-2.3
	l-0.4-0.8h-0.1c0,0,0,0-0.1,0c-0.1,0.3-1.3,2.3-1.7,3.1c-0.1,0.1-0.2,0.2-0.2,0.2H12c-0.1,0-0.1,0-0.2-0.1c-0.1-0.1-0.3-0.2-0.4-0.3
	l-0.1-0.1l-1.5-0.9H9.7L9.7,13.3L9.7,13.3z M18.9,11.8c-0.3,0-0.5,0.2-0.5,0.5s0.2,0.5,0.5,0.5s0.5-0.2,0.5-0.5S19.2,11.8,18.9,11.8
	z M9.3,11.7c-0.3,0-0.5,0.2-0.5,0.5s0.2,0.5,0.5,0.5c0.1,0,0.2,0,0.3-0.1s0.1-0.2,0.1-0.3C9.7,11.9,9.5,11.7,9.3,11.7z M14.1,9.6
	c-0.3,0-0.5,0.2-0.5,0.5s0.2,0.5,0.5,0.5s0.5-0.2,0.5-0.5C14.6,9.8,14.4,9.6,14.1,9.6z"/>
<polyline style="fill:none;stroke:#333333;stroke-width:0.8;stroke-linecap:round;stroke-linejoin:round;stroke-miterlimit:10;" points="
	8.8,16.9 0.5,16.9 0.5,1.1 14.3,1.1 14.3,8 "/>
<line style="fill:none;stroke:#333333;stroke-width:0.8;stroke-linecap:round;stroke-linejoin:round;stroke-miterlimit:10;" x1="3.1" y1="5.1" x2="11.6" y2="5.1"/>
<line style="fill:none;stroke:#333333;stroke-width:0.8;stroke-linecap:round;stroke-linejoin:round;stroke-miterlimit:10;" x1="3.1" y1="8" x2="7" y2="8"/>
<line style="fill:none;stroke:#333333;stroke-width:0.8;stroke-linecap:round;stroke-linejoin:round;stroke-miterlimit:10;" x1="3.1" y1="11" x2="8" y2="11"/>
</svg>
