<?xml version="1.0" encoding="utf-8"?>
<!-- Generator: Adobe Illustrator 22.0.1, SVG Export Plug-In . SVG Version: 6.00 Build 0)  -->
<svg version="1.1" id="图层_1" xmlns="http://www.w3.org/2000/svg" xmlns:xlink="http://www.w3.org/1999/xlink" x="0px" y="0px"
	 width="16px" height="24px" viewBox="0 0 16 24" style="enable-background:new 0 0 16 24;" xml:space="preserve">
<g>
	<path style="fill:#333333;" d="M7.8,0.9c3.3,2.3,5,5.2,5,8.7c0,0.2,0.1,0.5,0.3,0.6c1.6,1.3,2.1,2.8,1.6,4.5
		c-0.3,0.9-0.8,1.4-1.5,1.7c-0.1,0-0.3,0.1-0.4,0.1l0,0h-0.1l0,0c-0.1-0.1-0.1-0.3-0.2-0.6v-0.1v-0.1c-0.1-0.3-0.4-0.5-0.7-0.5h-0.1
		c-0.3,0-0.5,0.1-0.7,0.4v0.1c-0.1,0.1-0.1,0.1-0.1,0.2c-0.5,0.7-0.5,0.7-0.6,0.7c-0.6,0.2-1.6,0.3-2.6,0.3c-0.7,0-1.1-0.1-1.2-0.1
		c-0.2-0.1-0.4-0.3-0.7-0.6C5.4,16,5.2,15.8,5,15.6l-0.1-0.2c-0.2-0.2-0.4-0.3-0.7-0.3c-0.1,0-0.1,0-0.2,0c-0.3,0.1-0.6,0.3-0.6,0.6
		c0,0.1,0,0.1,0,0.2v0.2c0,0,0,0.3-0.1,0.3c0,0.1,0,0.2,0,0.2C2.5,16.3,2.2,16,1.5,15c-0.4-0.6-1.4-2.3,1.3-4.7
		C3,10.2,3.1,9.9,3.1,9.7c0.1-2,0.5-3.7,1.3-5.1S6.4,2,7.8,0.9 M7.8,0C7.6,0,7.5,0,7.4,0.1C5.9,1.3,4.6,2.7,3.7,4.2
		C2.8,5.8,2.3,7.6,2.3,9.7c-2.1,1.9-2.6,3.8-1.5,5.7C1.6,16.6,2,17,3.2,17.3c0.1,0,0.1,0,0.2,0c0.3,0,0.5-0.3,0.6-0.6
		c0-0.1,0-0.2,0.1-0.3c0-0.1,0-0.3,0-0.3c0.1-0.1,0.1-0.2,0.1-0.2L4.3,16c0.2,0.3,0.4,0.5,0.6,0.7c0.3,0.4,0.7,0.6,1,0.7
		c0.2,0.1,0.8,0.2,1.5,0.2c0.9,0,2.1-0.1,2.9-0.3c0.4-0.1,0.5-0.3,1.1-1c0.1-0.1,0.1-0.2,0.2-0.3v0.1v0.1c0.1,0.3,0.2,0.5,0.3,0.7
		c0.2,0.3,0.4,0.5,0.7,0.5c0.1,0,0.2,0,0.3-0.1l0,0c0,0,0.3-0.1,0.5-0.1c0.9-0.3,1.7-1,2.1-2.2c0.6-2,0-3.9-1.8-5.4
		c0-3.8-1.8-7-5.5-9.5C8,0,7.9,0,7.8,0L7.8,0z"/>
</g>
<g>
	<path style="fill:#333333;" d="M7.9,5.1c0.6,0,1.1,0.2,1.5,0.6S10,6.6,10,7.2S9.8,8.3,9.4,8.7c-0.5,0.4-1,0.6-1.5,0.6
		S6.8,9.1,6.4,8.7c-0.8-0.8-0.8-2.1,0-2.9C6.8,5.3,7.3,5.1,7.9,5.1 M7.9,4.3c-0.7,0-1.5,0.3-2,0.8C4.8,6.2,4.8,8,5.9,9.2
		c0.6,0.6,1.3,0.8,2,0.8s1.5-0.3,2-0.8c1.1-1.1,1.1-2.9,0-4.1C9.3,4.6,8.6,4.3,7.9,4.3L7.9,4.3z"/>
</g>
<line style="fill:none;stroke:#333333;stroke-width:0.8;stroke-linecap:round;stroke-linejoin:round;stroke-miterlimit:10;" x1="5.5" y1="18.6" x2="5.5" y2="21.6"/>
<line style="fill:none;stroke:#333333;stroke-width:0.8;stroke-linecap:round;stroke-linejoin:round;stroke-miterlimit:10;" x1="9.7" y1="18.9" x2="9.7" y2="21.3"/>
<line style="fill:none;stroke:#333333;stroke-width:0.8;stroke-linecap:round;stroke-linejoin:round;stroke-miterlimit:10;" x1="7.6" y1="18.8" x2="7.6" y2="23.6"/>
</svg>
