<?xml version="1.0" encoding="UTF-8"?>
<svg width="29px" height="30px" viewBox="0 0 29 30" version="1.1" xmlns="http://www.w3.org/2000/svg" xmlns:xlink="http://www.w3.org/1999/xlink">
    <!-- Generator: Sketch 51 (57462) - http://www.bohemiancoding.com/sketch -->
    <title>crownWhite</title>
    <desc>Created with Sketch.</desc>
    <defs>
        <polygon id="path-1" points="0.413076923 0.479076923 3.27923077 0.479076923 3.27923077 3.34495385 0.413076923 3.34495385"></polygon>
        <polygon id="path-3" points="0.825692308 0.237507692 3.69230769 0.237507692 3.69230769 3.10366154 0.825692308 3.10366154"></polygon>
    </defs>
    <g id="Page-1" stroke="none" stroke-width="1" fill="none" fill-rule="evenodd">
        <g id="个人中心VIP" transform="translate(-200.000000, -84.000000)">
            <g id="crownWhite" transform="translate(213.500000, 99.500000) rotate(34.000000) translate(-213.500000, -99.500000) translate(201.000000, 87.000000)">
                <path d="M19.9270154,22.1561538 C19.9270154,21.7527692 19.6002462,21.426 19.1968615,21.426 L4.78670769,21.426 C4.38424615,21.426 4.05655385,21.7527692 4.05655385,22.1561538 L4.05655385,23.7133846 C4.05655385,24.1176923 4.38424615,24.4444615 4.78670769,24.4444615 L19.1968615,24.4444615 C19.6002462,24.4444615 19.9270154,24.1176923 19.9270154,23.7133846 L19.9270154,22.1561538 Z" id="Fill-1" fill="#FFFFFF"></path>
                <path d="M22.2744,5.26486154 C21.9956308,5.10701538 21.6476308,5.14670769 21.4150154,5.3664 L16.3713231,10.1100923 L12.6467077,5.37009231 C12.5082462,5.19470769 12.2968615,5.06916923 12.0725538,5.06916923 C11.8482462,5.06916923 11.6368615,5.19563077 11.4984,5.37193846 L7.77378462,10.1470154 L2.73101538,5.39963077 C2.4984,5.18086154 2.14947692,5.1384 1.87163077,5.29532308 C1.59286154,5.45316923 1.44886154,5.77347692 1.51716923,6.0864 L4.32886154,19.0971692 C4.40178462,19.4340923 4.69901538,19.6731692 5.04332308,19.6731692 L19.1027077,19.6731692 C19.4470154,19.6731692 19.7442462,19.4331692 19.8171692,19.0962462 L22.6288615,6.05593846 C22.6971692,5.74393846 22.5531692,5.42178462 22.2744,5.26486154" id="Fill-3" fill="#FFFFFF"></path>
                <g id="Group-7" transform="translate(10.153846, 0.444462)">
                    <mask id="mask-2" fill="white">
                        <use xlink:href="#path-1"></use>
                    </mask>
                    <g id="Clip-6"></g>
                    <path d="M0.413076923,1.91233846 C0.413076923,2.70156923 1.05553846,3.34495385 1.84661538,3.34495385 C2.63676923,3.34495385 3.27923077,2.70156923 3.27923077,1.91233846 C3.27923077,1.12218462 2.63676923,0.4788 1.84661538,0.4788 C1.05553846,0.4788 0.413076923,1.12218462 0.413076923,1.91233846" id="Fill-5" fill="#FFFFFF" mask="url(#mask-2)"></path>
                </g>
                <path d="M2.86633846,3.03830769 C2.86633846,2.24815385 2.22387692,1.60476923 1.4328,1.60476923 C0.642646154,1.60476923 0.000184615385,2.24815385 0.000184615385,3.03830769 C0.000184615385,3.82846154 0.642646154,4.47184615 1.43372308,4.47184615 C2.22387692,4.47184615 2.86633846,3.82753846 2.86633846,3.03830769" id="Fill-8" fill="#FFFFFF"></path>
                <g id="Group-12" transform="translate(20.307692, 1.367538)">
                    <mask id="mask-4" fill="white">
                        <use xlink:href="#path-3"></use>
                    </mask>
                    <g id="Clip-11"></g>
                    <path d="M2.25923077,0.237507692 C1.46907692,0.237507692 0.825692308,0.879969231 0.825692308,1.67104615 C0.825692308,2.46027692 1.46907692,3.10366154 2.25923077,3.10366154 C3.04938462,3.10366154 3.69276923,2.46027692 3.69276923,1.67104615 C3.69276923,0.879969231 3.04938462,0.237507692 2.25923077,0.237507692" id="Fill-10" fill="#FFFFFF" mask="url(#mask-4)"></path>
                </g>
            </g>
        </g>
    </g>
</svg>
