<?xml version="1.0" encoding="UTF-8"?>
<svg width="22px" height="22px" viewBox="0 0 22 22" version="1.1" xmlns="http://www.w3.org/2000/svg" xmlns:xlink="http://www.w3.org/1999/xlink">
    <!-- Generator: Sketch 51 (57462) - http://www.bohemiancoding.com/sketch -->
    <title>setting</title>
    <desc>Created with Sketch.</desc>
    <defs></defs>
    <g id="Page-1" stroke="none" stroke-width="1" fill="none" fill-rule="evenodd">
        <g id="个人中心" transform="translate(-34.000000, -600.000000)">
            <rect fill="#FFFFFF" x="0" y="0" width="375" height="727"></rect>
            <g id="setting" transform="translate(34.000000, 600.000000)" fill="#333333">
                <path d="M10.9995,5 C7.6905,5 4.9995,7.691 4.9995,11 C4.9995,14.309 7.6905,17 10.9995,17 C14.3085,17 16.9995,14.309 16.9995,11 C16.9995,7.691 14.3085,5 10.9995,5 M10.9995,19 C6.5885,19 2.9995,15.411 2.9995,11 C2.9995,6.589 6.5885,3 10.9995,3 C15.4105,3 18.9995,6.589 18.9995,11 C18.9995,15.411 15.4105,19 10.9995,19" id="Fill-1"></path>
                <path d="M10.9995,15.2666 C10.7235,15.2666 10.4995,15.0426 10.4995,14.7666 C10.4995,14.4906 10.7235,14.2666 10.9995,14.2666 C12.8005,14.2666 14.2665,12.8016 14.2665,10.9996 C14.2665,10.7236 14.4905,10.4996 14.7665,10.4996 C15.0425,10.4996 15.2665,10.7236 15.2665,10.9996 C15.2665,13.3526 13.3525,15.2666 10.9995,15.2666" id="Fill-3"></path>
                <path d="M11,22 C10.448,22 10,21.552 10,21 L10,18 C10,17.448 10.448,17 11,17 C11.552,17 12,17.448 12,18 L12,21 C12,21.552 11.552,22 11,22" id="Fill-5"></path>
                <path d="M11,5 C10.448,5 10,4.552 10,4 L10,1 C10,0.448 10.448,0 11,0 C11.552,0 12,0.448 12,1 L12,4 C12,4.552 11.552,5 11,5" id="Fill-7"></path>
                <path d="M3.9302,19.0698 C3.6742,19.0698 3.4182,18.9718 3.2232,18.7768 C2.8322,18.3858 2.8322,17.7538 3.2232,17.3628 L5.3432,15.2428 C5.7332,14.8528 6.3662,14.8528 6.7572,15.2428 C7.1472,15.6338 7.1472,16.2668 6.7572,16.6568 L4.6372,18.7768 C4.4422,18.9718 4.1862,19.0698 3.9302,19.0698" id="Fill-9"></path>
                <path d="M15.9502,7.0498 C15.6942,7.0498 15.4382,6.9518 15.2432,6.7568 C14.8522,6.3658 14.8522,5.7338 15.2432,5.3428 L17.3632,3.2228 C17.7532,2.8328 18.3862,2.8328 18.7772,3.2228 C19.1672,3.6138 19.1672,4.2468 18.7772,4.6368 L16.6572,6.7568 C16.4622,6.9518 16.2062,7.0498 15.9502,7.0498" id="Fill-11"></path>
                <path d="M4,12 L1,12 C0.448,12 0,11.552 0,11 C0,10.448 0.448,10 1,10 L4,10 C4.552,10 5,10.448 5,11 C5,11.552 4.552,12 4,12" id="Fill-13"></path>
                <path d="M21,12 L18,12 C17.448,12 17,11.552 17,11 C17,10.448 17.448,10 18,10 L21,10 C21.552,10 22,10.448 22,11 C22,11.552 21.552,12 21,12" id="Fill-15"></path>
                <path d="M6.0498,7.0498 C5.7938,7.0498 5.5378,6.9518 5.3428,6.7568 L3.2228,4.6368 C2.8328,4.2468 2.8328,3.6138 3.2228,3.2228 C3.6138,2.8328 4.2468,2.8328 4.6368,3.2228 L6.7568,5.3428 C7.1478,5.7338 7.1478,6.3658 6.7568,6.7568 C6.5618,6.9518 6.3058,7.0498 6.0498,7.0498" id="Fill-17"></path>
                <path d="M18.0698,19.0698 C17.8138,19.0698 17.5578,18.9718 17.3628,18.7768 L15.2428,16.6568 C14.8528,16.2668 14.8528,15.6338 15.2428,15.2428 C15.6338,14.8528 16.2668,14.8528 16.6568,15.2428 L18.7768,17.3628 C19.1678,17.7538 19.1678,18.3858 18.7768,18.7768 C18.5818,18.9718 18.3258,19.0698 18.0698,19.0698" id="Fill-19"></path>
            </g>
        </g>
    </g>
</svg>