<?xml version="1.0" encoding="utf-8"?>
<!-- Generator: Adobe Illustrator 22.0.1, SVG Export Plug-In . SVG Version: 6.00 Build 0)  -->
<svg version="1.1" id="图层_1" xmlns="http://www.w3.org/2000/svg" xmlns:xlink="http://www.w3.org/1999/xlink" x="0px" y="0px"
	 width="25.5px" height="25.5px" viewBox="0 0 25.5 25.5" style="enable-background:new 0 0 25.5 25.5;" xml:space="preserve">
<path style="fill:#F9C900;" d="M1.3,0h23c0.7,0,1.3,0.6,1.3,1.3v23c0,0.7-0.6,1.3-1.3,1.3h-23C0.6,25.6,0,25,0,24.3v-23
	C0,0.6,0.6,0,1.3,0z"/>
<path style="fill:#E2AC00;" d="M20.2,11.1L18,9.4l2.4-3.5l5.1,5.3v13.1c0,0.7-0.6,1.3-1.3,1.3H11.1l-5.5-5.4L9.2,18l1.9,2.2h3.3
	v-5.8h5.9C20.3,14.4,20.2,11.1,20.2,11.1z"/>
<path style="fill:#FFFFFF;" d="M11.2,10.9c0,0.1,0,0.1-0.1,0.2s-0.1,0.1-0.2,0.1H5.3c-0.1,0-0.1,0-0.1-0.1V11l1.9-1.8L4.7,6.7
	c-0.1,0-0.1-0.1-0.1-0.2s0-0.2,0.1-0.2l1.7-1.7c0.1-0.1,0.1-0.1,0.2-0.1s0.1,0,0.2,0.1l2.5,2.5L11,5.3h0.1v0.1
	C11.1,5.4,11.2,10.9,11.2,10.9z M14.3,10.9c0,0.1,0,0.1,0.1,0.2s0.1,0.1,0.2,0.1h5.6c0.1,0,0.1,0,0.1-0.1V11l-1.9-1.8l2.5-2.5
	C21,6.6,21,6.6,21,6.5s0-0.2-0.1-0.2l-1.7-1.7H19c-0.1,0-0.1,0-0.2,0.1l-2.5,2.5l-1.8-1.8h-0.1v0.1C14.4,5.5,14.3,10.9,14.3,10.9z
	 M11.2,14.6c0-0.1,0-0.1-0.1-0.2s-0.1-0.1-0.2-0.1H5.3c-0.1,0-0.1,0-0.1,0.1v0.1l1.9,1.8l-2.5,2.5c-0.1,0.1-0.1,0.1-0.1,0.2
	s0,0.2,0.1,0.2l1.7,1.7C6.4,21,6.4,21,6.5,21s0.1,0,0.2-0.1l2.5-2.5l1.8,1.8h0.1v-0.1C11.1,20.1,11.2,14.6,11.2,14.6z M14.3,14.6
	c0-0.1,0-0.1,0.1-0.2s0.1-0.1,0.2-0.1h5.6c0,0,0.1,0,0.1,0.1v0.1l-1.9,1.8l2.5,2.5C21,18.9,21,18.9,21,19s0,0.2-0.1,0.2l-1.7,1.7
	C19.1,21,19.1,21,19,21s-0.1,0-0.2-0.1l-2.5-2.5l-1.8,1.8h-0.1l-0.1-0.1C14.3,20.1,14.3,14.6,14.3,14.6z"/>
</svg>
