<?xml version="1.0" encoding="utf-8"?>
<!-- Generator: Adobe Illustrator 22.0.1, SVG Export Plug-In . SVG Version: 6.00 Build 0)  -->
<svg version="1.1" id="图层_1" xmlns="http://www.w3.org/2000/svg" xmlns:xlink="http://www.w3.org/1999/xlink" x="0px" y="0px"
	 width="88px" height="88px" viewBox="0 0 88 88" style="enable-background:new 0 0 88 88;" xml:space="preserve">
<style type="text/css">
	.st0{fill:#40B47F;}
	.st1{fill:#FFFFFF;}
	.st2{opacity:0.35;}
</style>
<g>
	<g>
		<g>
			<rect x="42.9" y="47.8" class="st0" width="8.5" height="4.2"/>
			<rect x="42.9" y="39.7" class="st0" width="8.5" height="4.2"/>
			<rect x="42.9" y="31.1" class="st0" width="8.5" height="4.2"/>
			<rect x="42.9" y="22.7" class="st0" width="8.5" height="3.9"/>
		</g>
		<g>
			<rect x="55" y="47.8" class="st0" width="8.5" height="4.2"/>
			<rect x="55" y="39.7" class="st0" width="8.5" height="4.2"/>
			<rect x="55" y="31.1" class="st0" width="8.5" height="4.2"/>
			<rect x="55" y="22.7" class="st0" width="8.5" height="3.9"/>
		</g>
		<path class="st0" d="M43.2,7.2V0.5h-4.8C25.9,2.7,13.2,4.7,0.5,6.9c0,18.9,0,37.8,0,56.7c12.4,2.2,25.1,4.2,37.6,6.4h5.1v-6.4"/>
		<g>
			<path class="st0" d="M64.1,63.3H41.2v-2.8h22.9c1.1,0,2,0,2.8-0.3c0.3-0.8,0.3-1.7,0.3-2.8v-0.6c0-5,0-10,0-15
				c0-9.7,0-19.7,0-29.7c0-0.6,0-0.8-0.3-1.1c-0.3-0.3-0.6-0.3-1.1-0.3c-5.6,0-11,0-16.4,0c-2.8,0-5.4,0-8.2,0V8c2.8,0,5.4,0,8.2,0
				c5.4,0,11,0,16.4,0c1.1,0,2.5,0.3,3.4,1.1c0.8,0.8,1.1,1.9,1.1,3.1c0,9.7,0,19.7,0,29.5c0,5,0,10,0,15v0.6c0,1.4,0,3.1-0.8,4.7
				l-0.3,0.3l-0.3,0.3C67.2,63.3,65.5,63.3,64.1,63.3z"/>
		</g>
		<path class="st1" d="M26.5,48.6l-4.2-8.1c-0.3-0.3-0.3-0.8-0.6-1.7l0,0c0,0.3-0.3,0.8-0.6,1.7l-4.2,8.1h-6.5l7.9-12l-7.1-12.2h6.5
			l3.4,7.2c0.3,0.3,0.6,1.1,0.8,1.9l0,0c0-0.6,0.3-1.1,0.8-1.9l4-6.9h5.9l-7.3,12l7.3,12.2L26.5,48.6L26.5,48.6z"/>
	</g>
	<g id="XMLID_189_" class="st2">
		<polygon id="XMLID_190_" class="st0" points="40,38.6 16.6,66.7 36.9,70.3 40,70.3 		"/>
	</g>
	<path id="XMLID_188_" class="st1" d="M41.7,86.7c-0.3,0-0.6-0.3-0.6-0.3V36.6c0-0.3,0-1.4,0.6-1.4h31.6l12.7,12.5l0,0
		c0,0,0,0,0,0.6v38.1l0,0c0,0-0.3,0.3-0.6,0.3C85.2,86.7,41.7,86.7,41.7,86.7z"/>
	<g id="XMLID_184_">
		<g id="XMLID_185_">
			<path id="XMLID_186_" class="st0" d="M73.7,36.6l12.4,11.7c0,0,0,0,0,0.3v37.2H42.9V36.6c0-0.3,0-0.3,0-0.3L73.7,36.6 M73.9,34.7
				H42.3c-1.1,0-1.7,0.6-1.7,1.9v49.8c0,0.3,0.6,1.1,1.7,1.1h43.5c1.1,0,1.7-0.6,1.7-1.1V48.3c0-0.6,0-1.1-0.3-1.4L74.5,34.4
				C74.5,34.7,74.5,34.7,73.9,34.7L73.9,34.7z"/>
		</g>
	</g>
	<g id="XMLID_182_">
		<polygon id="XMLID_183_" class="st1" points="75.4,46.6 75.4,36.9 85.5,46.6 		"/>
	</g>
	<g id="XMLID_179_">
		<g id="XMLID_180_">
			<path id="XMLID_181_" class="st0" d="M75.6,38.9l7.3,7.2h-7.3V38.9 M73.9,34.7v12.8h12.7L73.9,34.7L73.9,34.7z"/>
		</g>
	</g>
	<g id="XMLID_175_">
		<path id="XMLID_178_" class="st0" d="M49.9,63.3v5h-1.7V56.6h5.4c1.1,0,2,0.3,2.5,1.1c0.6,0.6,1.1,1.4,1.1,2.2
			c0,1.1-0.3,1.7-0.6,2.2c-0.6,0.6-1.7,1.1-2.5,1.1h-4v0H49.9z M49.9,58v3.9h3.4c0.6,0,1.4,0,1.7-0.3c0.3-0.3,0.6-1.1,0.6-1.7
			c0-0.6-0.3-1.4-0.6-1.7C54.7,58,53.9,58,53.3,58C53.3,58,49.9,58,49.9,58z"/>
		<path id="XMLID_177_" class="st0" d="M59.3,68.3V56.6h5.1c1.7,0,2.5,0.6,3.7,1.7c1.1,1.1,1.4,2.2,1.4,4.2c0,1.7-0.3,3.1-1.1,3.9
			c-1.1,1.4-2.3,1.9-4,1.9H59.3z M60.9,58v9.2h3.1c1.1,0,2-0.3,2.5-1.4c0.6-0.6,1.1-1.9,1.1-3.3c0-1.4-0.3-2.5-1.1-3.3
			C66,58.6,64.9,58,64.1,58L60.9,58L60.9,58z"/>
		<path id="XMLID_176_" class="st0" d="M73.4,63v5.3h-1.7V56.6h8.2V58h-6.8v3.6H79V63h-5.9v0H73.4z"/>
	</g>
</g>
</svg>
