<svg xmlns="http://www.w3.org/2000/svg" xmlns:xlink="http://www.w3.org/1999/xlink" viewBox="0 0 211.2 284.6"><style type="text/css">.st0{clip-path:url(#a);fill:#4285F4}.st1{clip-path:url(#a);fill:#FFFFFF}.st2{clip-path:url(#a);fill:#A4CDFF}</style><defs><path id="b" d="M0 0h211.2v284.6H0z"/></defs><clipPath id="a"><use xlink:href="#b" overflow="visible"/></clipPath><path class="st0" d="M146.1 0H21.2C9.5 0 0 9.5 0 21.2v242.1c0 11.7 9.5 21.2 21.2 21.2H190c11.7 0 21.2-9.5 21.2-21.2V65.2L146.1 0z"/><path class="st1" d="M83 134.8h84.7v10.3H83z"/><path class="st1" d="M83 164.3h84.7v10.3H83z"/><path class="st1" d="M83 193.8h84.7v10.3H83z"/><path class="st1" d="M54.3 145h-4.2c-2.1 0-3.8-1.7-3.8-3.8v-2.6c0-2.1 1.7-3.8 3.8-3.8h4.2c2.1 0 3.8 1.7 3.8 3.8v2.6c0 2.1-1.7 3.8-3.8 3.8"/><path class="st1" d="M54.3 174.5h-4.2c-2.1 0-3.8-1.7-3.8-3.8v-2.6c0-2.1 1.7-3.8 3.8-3.8h4.2c2.1 0 3.8 1.7 3.8 3.8v2.6c0 2.1-1.7 3.8-3.8 3.8"/><path class="st1" d="M54.3 204.1h-4.2c-2.1 0-3.8-1.7-3.8-3.8v-2.6c0-2.1 1.7-3.8 3.8-3.8h4.2c2.1 0 3.8 1.7 3.8 3.8v2.6c0 2-1.7 3.8-3.8 3.8"/><path class="st2" d="M167.3 65.2h43.9L146.1 0v43.9c0 11.8 9.5 21.3 21.2 21.3"/></svg>