<?xml version="1.0" encoding="utf-8"?>
<!-- Generator: Adobe Illustrator 22.0.1, SVG Export Plug-In . SVG Version: 6.00 Build 0)  -->
<svg version="1.1" id="图层_1" xmlns="http://www.w3.org/2000/svg" xmlns:xlink="http://www.w3.org/1999/xlink" x="0px" y="0px"
	 width="88px" height="88px" viewBox="0 0 88 88" style="enable-background:new 0 0 88 88;" xml:space="preserve">
<style type="text/css">
	.st0{fill:#8E78C9;}
	.st1{fill:#FFFFFF;}
	.st2{opacity:0.35;}
	.st3{fill:#7C64BB;}
</style>
<g>
	<path class="st0" d="M43,24.7c0.6,0.8,1.4,1.4,2.5,1.4c1.7,0,3.4-1.4,3.4-3.3c0-1.7-1.4-3.3-3.4-3.3c-1.1,0-2,0.6-2.5,1.4"/>
	<g>
		<path class="st0" d="M63.8,63H41v-2.8h22.8c1.1,0,2,0,2.8-0.3c0.3-0.8,0.3-1.7,0.3-2.8v-0.6c0-5,0-10,0-15c0-9.7,0-19.7,0-29.7
			c0-0.6,0-0.8-0.3-1.1c-0.3-0.3-0.6-0.3-1.1-0.3c-5.6,0-11,0-16.3,0c-2.8,0-5.3,0-8.2,0V7.7c2.8,0,5.3,0,8.2,0c5.3,0,11,0,16.3,0
			c1.1,0,2.5,0.3,3.4,1.1c0.8,0.8,1.1,1.9,1.1,3.1c0,9.7,0,19.7,0,29.5c0,5,0,10,0,15v0.6c0,1.4,0,3.1-0.8,4.7l-0.3,0.3l-0.3,0.3
			C66.9,63,65.3,63,63.8,63z"/>
	</g>
	<path class="st0" d="M43,7.2V0.5h-4.8C25.8,2.7,13.2,4.7,0.5,6.9c0,18.9,0,37.8,0,56.7c12.4,2.2,25.1,4.2,37.4,6.4H43v-6.4"/>
	<path class="st0" d="M43,51.4h11.5c0,0-1.7-9.7-7-14.7c-1.4-1.4-2.8-0.8-4.5,0.6"/>
	<path class="st0" d="M66.9,51.1c-1.7-4.4-3.9-10.3-6.8-9.2c-3.9,0.8-5.6,9.7-5.6,9.7h12.4"/>
	<g id="XMLID_125_">
		<path id="XMLID_126_" class="st1" d="M41.9,86.7c-0.3,0-0.6-0.3-0.6-0.3V36.6c0-0.3,0-1.4,0.6-1.4h31.5l12.7,12.5l0,0
			c0,0,0,0,0,0.6v38.1l0,0c0,0-0.3,0.3-0.6,0.3C85.2,86.7,41.9,86.7,41.9,86.7z"/>
	</g>
	<g id="XMLID_122_">
		<g id="XMLID_123_">
			<path id="XMLID_124_" class="st0" d="M73.7,36.6l12.4,11.7c0,0,0,0,0,0.3v37.2H43V36.6c0-0.3,0-0.3,0-0.3L73.7,36.6 M74,34.7
				H42.5c-1.1,0-1.7,0.6-1.7,1.9v49.8c0,0.3,0.6,1.1,1.7,1.1h43.4c1.1,0,1.7-0.6,1.7-1.1V48.3c0-0.6,0-1.1-0.3-1.4L74.5,34.4
				C74.3,34.7,74.3,34.7,74,34.7L74,34.7z"/>
		</g>
	</g>
	<g id="XMLID_120_">
		<polygon id="XMLID_121_" class="st1" points="75.4,46.6 75.4,36.9 85.2,46.6 		"/>
	</g>
	<g id="XMLID_117_">
		<g id="XMLID_118_">
			<path id="XMLID_119_" class="st0" d="M75.7,38.9l7.3,7.2h-7.3V38.9 M74,34.7v12.8h12.7L74,34.7L74,34.7z"/>
		</g>
	</g>
	<g id="XMLID_113_">
		<path id="XMLID_116_" class="st0" d="M50.1,63.3v5h-1.7V56.6h5.3c1.1,0,2,0.3,2.5,1.1c0.6,0.6,1.1,1.4,1.1,2.2
			c0,1.1-0.3,1.7-0.6,2.2c-0.6,0.6-1.7,1.1-2.5,1.1h-3.9v0H50.1z M50.1,58v3.9h3.4c0.6,0,1.4,0,1.7-0.3c0.3-0.3,0.6-1.1,0.6-1.7
			c0-0.6-0.3-1.4-0.6-1.7S54,58,53.4,58C53.4,58,50.1,58,50.1,58z"/>
		<path id="XMLID_115_" class="st0" d="M59.3,68.3V56.6h5.1c1.7,0,2.5,0.6,3.7,1.7c1.1,1.1,1.4,2.2,1.4,4.2c0,1.7-0.3,3.1-1.1,3.9
			c-1.1,1.4-2.3,1.9-3.9,1.9H59.3z M61,58v9.2h3.1c1.1,0,2-0.3,2.5-1.4c0.6-0.6,1.1-1.9,1.1-3.3c0-1.4-0.3-2.5-1.1-3.3
			C65.8,58.3,65,58,64.1,58L61,58L61,58z"/>
		<path id="XMLID_114_" class="st0" d="M73.4,63v5.3h-1.7V56.6h8.2V58h-6.8v3.6h5.9V63h-5.9v0H73.4z"/>
	</g>
	<g id="XMLID_127_" class="st2">
		<polygon id="XMLID_128_" class="st3" points="40.2,38.6 16.8,66.7 37.9,70.3 40.2,70.3 		"/>
	</g>
	<g>
		<path class="st1" d="M23.3,34.1c0-1.4-0.6-2.8-1.4-3.3c-0.8-0.6-2.5-0.8-4.2-0.8s-3.4,0-4.2,0.3v13.9h3.1v-5c0.3,0,0.8,0,1.1,0
			c1.7,0,3.4-0.6,4.5-1.4C23,36.6,23.6,35.5,23.3,34.1z M17.4,36.6c-0.3,0-0.6,0-0.8,0v-4.2c0-0.3,0.6-0.3,1.1-0.3
			c1.4,0,2.5,0.6,2.5,2.2C20.2,35.8,19.4,36.6,17.4,36.6z"/>
		<path class="st1" d="M11.2,38.9c0,3.9-2.3,5.3-4.8,5c-0.6,0-1.4-0.3-2.3-0.3l0.3-2.5c0.3,0,0.8,0.3,1.4,0.3c1.1,0,2.3-0.6,2.3-2.8
			V30h3.1V38.9L11.2,38.9z"/>
		<path class="st1" d="M27,42.2c-1.1-1.1-2.3-3.3-2.3-5.3c0-4.7,3.7-7.8,8.4-7.8c2.3,0,3.7,0.3,4.2,0.6l-0.6,2.8
			c-0.8-0.3-1.7-0.6-3.7-0.6c-3.1,0-5.1,1.7-5.1,4.7c0,3.1,1.7,4.7,4.8,4.7c0.8,0,1.4,0,1.7-0.3v-3.3H32V35h5.6V43
			c-1.1,0.3-3.4,1.1-5.1,0.8C30.1,44.4,28.4,43.9,27,42.2"/>
	</g>
</g>
</svg>
