<?xml version="1.0" encoding="utf-8"?>
<!-- Generator: Adobe Illustrator 19.0.0, SVG Export Plug-In . SVG Version: 6.00 Build 0)  -->
<svg version="1.1" id="图层_1" xmlns="http://www.w3.org/2000/svg" xmlns:xlink="http://www.w3.org/1999/xlink" x="0px" y="0px"
	 width="18.2px" height="18.2px" viewBox="0 0 18.2 18.2" style="enable-background:new 0 0 18.2 18.2;" xml:space="preserve">
<style type="text/css">
	.st0{fill:#39BF83;}
	.st1{fill:#24935E;}
	.st2{fill:#FFFFFF;}
	.st3{fill:none;stroke:#FFFFFF;stroke-width:0.5;stroke-linecap:round;stroke-linejoin:round;stroke-miterlimit:10;}
	.st4{fill:#39BF83;stroke:#FFFFFF;stroke-width:0.5;stroke-linecap:round;stroke-linejoin:round;stroke-miterlimit:10;}
</style>
<g>
	<path class="st0" d="M1.3,0h15.7c0.7,0,1.3,0.6,1.3,1.3v15.7c0,0.7-0.6,1.3-1.3,1.3H1.3c-0.7,0-1.3-0.6-1.3-1.3V1.3
		C0,0.6,0.6,0,1.3,0z"/>
</g>
<path d="M9.1,13"/>
<path class="st1" d="M6.8,2.8l0.3,2.3L5.7,8.8l0.9,0.7v5.9l3.4,2.8h6.9c0.2,0,0.5-0.1,0.5-0.1c1-0.4,0.8-1.5,0.8-1.5V7.2l-3.3-4.3
	L9.1,2.8"/>
<g>
	<rect x="10.3" y="3.1" class="st2" width="4.3" height="5.4"/>
	<g>
		<path class="st2" d="M14.3,3.4v4.8h-3.7V3.4H14.3 M14.8,2.8h-4.8c-0.1,0-0.1,0-0.1,0.1v5.8c0,0.1,0,0.1,0.1,0.1h4.8
			c0.1,0,0.1,0,0.1-0.1L14.8,2.8C14.9,2.8,14.9,2.8,14.8,2.8L14.8,2.8z"/>
	</g>
</g>
<g>
	<rect x="3.6" y="3.1" class="st2" width="4.3" height="5.4"/>
	<g>
		<path class="st2" d="M7.6,3.4v4.8H3.9V3.4H7.6 M8.1,2.8H3.4c-0.1,0-0.1,0-0.1,0.1v5.8c0,0.1,0,0.1,0.1,0.1h4.8
			c0.1,0,0.1,0,0.1-0.1L8.1,2.8C8.2,2.8,8.2,2.8,8.1,2.8L8.1,2.8z"/>
	</g>
</g>
<g>
	<rect x="6.9" y="9.7" class="st0" width="4.3" height="5.4"/>
	<g>
		<path class="st2" d="M11,10v4.8H7.2V10H11 M11.5,9.4H6.7c-0.1,0-0.1,0-0.1,0.1v5.8c0,0.1,0,0.1,0.1,0.1h4.8c0.1,0,0.1,0,0.1-0.1
			L11.5,9.4C11.6,9.5,11.5,9.4,11.5,9.4L11.5,9.4z"/>
	</g>
</g>
<g>
	<polyline class="st3" points="5.6,11.6 3.5,11.6 3.5,9.8 	"/>
	<line class="st4" x1="4.6" y1="12.7" x2="5.8" y2="11.6"/>
	<line class="st4" x1="4.6" y1="10.5" x2="5.8" y2="11.6"/>
</g>
<g>
	<polyline class="st3" points="12.6,11.6 14.7,11.6 14.7,9.8 	"/>
	<line class="st4" x1="13.7" y1="12.7" x2="12.5" y2="11.6"/>
	<line class="st4" x1="13.7" y1="10.5" x2="12.5" y2="11.6"/>
</g>
<path class="st1" d="M6.7,15.4"/>
</svg>
