<?xml version="1.0" encoding="utf-8"?>
<!-- Generator: Adobe Illustrator 19.0.0, SVG Export Plug-In . SVG Version: 6.00 Build 0)  -->
<svg version="1.1" id="图层_1" xmlns="http://www.w3.org/2000/svg" xmlns:xlink="http://www.w3.org/1999/xlink" x="0px" y="0px"
	 width="22.3px" height="22.3px" viewBox="0 0 22.3 22.3" style="enable-background:new 0 0 22.3 22.3;" xml:space="preserve">
<style type="text/css">
	.st0{fill:#FFFFFF;}
	.st1{fill:#39BF83;}
</style>
<rect x="12" y="4.5" class="st0" width="8.9" height="13.5"/>
<rect x="1.7" y="5.9" class="st0" width="9.2" height="10.8"/>
<g>
	<path class="st1" d="M21.5,2.6h-8.9v2.6h3.6v1.7h-3.6v1.7h3.6v1.7h-3.6V12h3.6v1.7h-3.6v1.7h3.6v1.7h-3.6v2.6h8.9
		c0.4,0,0.7-0.3,0.7-0.7V3.3C22.3,2.9,21.9,2.6,21.5,2.6L21.5,2.6z M20.6,17.1h-3.4v-1.7h3.4V17.1z M20.6,13.7h-3.4V12h3.4V13.7z
		 M20.6,10.3h-3.4V8.6h3.4V10.3z M20.6,6.8h-3.4V5.1h3.4V6.8z M20.6,6.8"/>
</g>
<g>
	<path class="st1" d="M0,2.5v17.3l12.8,2.5V0L0,2.5z M8.1,15.5l-1.5-2.8c-0.1-0.1-0.1-0.3-0.2-0.6h0c0,0.1-0.1,0.3-0.2,0.6l-1.5,2.8
		H2.4l2.8-4.3L2.6,6.8H5l1.2,2.6c0.1,0.2,0.2,0.5,0.3,0.7h0C6.6,10,6.7,9.7,6.8,9.4l1.4-2.6h2.2l-2.6,4.3l2.7,4.4H8.1z M8.1,15.5"/>
</g>
</svg>
