<?xml version="1.0" encoding="utf-8"?>
<!-- Generator: Adobe Illustrator 22.0.1, SVG Export Plug-In . SVG Version: 6.00 Build 0)  -->
<svg version="1.1" id="图层_1" xmlns="http://www.w3.org/2000/svg" xmlns:xlink="http://www.w3.org/1999/xlink" x="0px" y="0px"
	 width="88px" height="88px" viewBox="0 0 88 88" style="enable-background:new 0 0 88 88;" xml:space="preserve">
<style type="text/css">
	.st0{fill:#8E78C9;}
	.st1{fill:#FFFFFF;}
</style>
<g>
	<path class="st0" d="M53.4,30.8c0.7,1,1.7,1.7,3.1,1.7c2.1,0,4.2-1.7,4.2-4.2c0-2.1-1.7-4.2-4.2-4.2c-1.4,0-2.4,0.7-3.1,1.7"/>
	<path class="st0" d="M53.4,64.2h14.3c0,0-2.1-12.2-8.7-18.4c-1.7-1.7-3.5-1-5.6,0.7"/>
	<path class="st0" d="M83.3,63.8C81.2,58.3,78.5,51,75,52.4c-4.9,1-7,12.2-7,12.2h15.3"/>
	<path class="st0" d="M53.4,8.9V0.5h-5.9c-15.3,2.8-31,5.2-46.6,8c0,23.7,0,47.3,0,71c15.3,2.8,31,5.2,46.3,8h6.3v-8"/>
	<g>
		<path class="st0" d="M79.5,78.8H51.3v-3.5h28.2c1.4,0,2.4,0,3.5-0.3c0.3-1,0.3-2.1,0.3-3.5v-0.7c0-6.3,0-12.5,0-18.8
			c0-12.2,0-24.7,0-37.2c0-0.7,0-1-0.3-1.4C82.6,13,82.3,13,81.6,13c-7,0-13.6,0-20.2,0c-3.5,0-6.6,0-10.1,0V9.5c3.5,0,6.6,0,10.1,0
			c6.6,0,13.6,0,20.2,0c1.4,0,3.1,0.3,4.2,1.4c1,1,1.4,2.4,1.4,3.8c0,12.2,0,24.7,0,36.9c0,6.3,0,12.5,0,18.8v0.7c0,1.7,0,3.8-1,5.9
			l-0.3,0.3l-0.3,0.3C83.3,78.8,81.2,78.8,79.5,78.8z"/>
	</g>
	<g>
		<path class="st1" d="M29.4,42.6c0-1.7-0.7-3.5-1.7-4.2c-1-0.7-3.1-1-5.2-1s-4.2,0-5.2,0.3v17.4H21v-6.3c0.3,0,1,0,1.4,0
			c2.1,0,4.2-0.7,5.6-1.7C28.7,45.4,29.7,44,29.4,42.6z M22.1,45.4c-0.3,0-0.7,0-1,0v-5.2c0-0.3,0.7-0.3,1.4-0.3
			c1.7,0,3.1,0.7,3.1,2.8C25.6,44.3,24.5,45.4,22.1,45.4z"/>
		<path class="st1" d="M14.1,48.5c0,4.9-2.8,6.6-5.9,6.3c-0.7,0-1.7-0.3-2.8-0.3l0.3-3.1c0.3,0,1,0.3,1.7,0.3c1.4,0,2.8-0.7,2.8-3.5
			V37.4h3.8V48.5L14.1,48.5z"/>
		<path class="st1" d="M33.6,52.7c-1.4-1.4-2.8-4.2-2.8-6.6c0-5.9,4.5-9.7,10.4-9.7c2.8,0,4.5,0.3,5.2,0.7l-0.7,3.5
			c-1-0.3-2.1-0.7-4.5-0.7c-3.8,0-6.3,2.1-6.3,5.9s2.1,5.9,5.9,5.9c1,0,1.7,0,2.1-0.3v-4.2h-3.1v-3.5h7v10.1c-1.4,0.3-4.2,1.4-6.3,1
			C37.7,55.5,35.6,54.4,33.6,52.7"/>
	</g>
</g>
</svg>
