<?xml version="1.0" encoding="utf-8"?>
<!-- Generator: Adobe Illustrator 22.0.1, SVG Export Plug-In . SVG Version: 6.00 Build 0)  -->
<svg version="1.1" id="图层_1" xmlns="http://www.w3.org/2000/svg" xmlns:xlink="http://www.w3.org/1999/xlink" x="0px" y="0px"
	 width="88px" height="88px" viewBox="0 0 88 88" style="enable-background:new 0 0 88 88;" xml:space="preserve">
<style type="text/css">
	.st0{fill:#008DF6;}
	.st1{fill:#FFFFFF;}
	.st2{font-family:'SimHei';}
	.st3{font-size:25.4889px;}
	.st4{font-size:25.1614px;}
	.st5{fill:none;stroke:#FFFFFF;stroke-width:0.25;stroke-miterlimit:10;}
	.st6{fill:none;}
</style>
<g>
	<path class="st0" d="M53.4,8.9V0.5h-5.9c-15.3,2.8-31,5.2-46.6,8c0,23.7,0,47.3,0,71c15.3,2.8,31,5.2,46.3,8h6.3v-8"/>
	<g>
		<text transform="matrix(1 0 0 1 7.7539 53.4918)" class="st1 st2 st3">T</text>
		<text transform="matrix(1 0 0 1 21.0859 53.4918)" class="st1 st2 st3">X</text>
		<text transform="matrix(1.013 0 0 1 34.0645 53.5426)" class="st1 st2 st4">T</text>
		<g>
			<polygon class="st5" points="19.3,36 8.9,36 8.9,38.1 13,38.1 13,53 15.1,53 15.1,38.1 19.3,38.1 			"/>
		</g>
		<polygon class="st5" points="28.3,44 32.5,36 30.1,36 27.3,42.3 24.2,36 22.1,36 25.9,44 21.4,53 23.8,53 27.3,46.1 30.4,53 
			32.9,53 		"/>
		<g>
			<polygon class="st5" points="45.7,36 35.3,36 35.3,38.1 39.1,38.1 39.1,53 41.6,53 41.6,38.1 45.7,38.1 			"/>
		</g>
	</g>
	<g>
		<line class="st6" x1="59.3" y1="37" x2="77.4" y2="37"/>
	</g>
	<g>
		<path class="st0" d="M77.4,38.8H59.3c-1,0-1.7-0.7-1.7-1.7s0.7-1.7,1.7-1.7h18.1c1,0,1.7,0.7,1.7,1.7S78.5,38.8,77.4,38.8z"/>
	</g>
	<g>
		<line class="st6" x1="59.3" y1="44.7" x2="77.4" y2="44.7"/>
	</g>
	<g>
		<path class="st0" d="M77.4,46.4H59.3c-1,0-1.7-0.7-1.7-1.7s0.7-1.7,1.7-1.7h18.1c1,0,1.7,0.7,1.7,1.7S78.5,46.4,77.4,46.4z"/>
	</g>
	<g>
		<line class="st6" x1="59.3" y1="52.4" x2="77.4" y2="52.4"/>
	</g>
	<g>
		<path class="st0" d="M77.4,54.1H59.3c-1,0-1.7-0.7-1.7-1.7c0-1,0.7-1.7,1.7-1.7h18.1c1,0,1.7,0.7,1.7,1.7
			C79.1,53.4,78.5,54.1,77.4,54.1z"/>
	</g>
	<g>
		<path class="st0" d="M79.5,78.8H51.3v-3.5h28.2c1.4,0,2.4,0,3.5-0.3c0.3-1,0.3-2.1,0.3-3.5v-0.7c0-6.3,0-12.5,0-18.8
			c0-12.2,0-24.7,0-37.2c0-0.7,0-1-0.3-1.4C82.6,13,82.3,13,81.6,13c-7,0-13.6,0-20.2,0c-3.5,0-6.6,0-10.1,0V9.5c3.5,0,6.6,0,10.1,0
			c6.6,0,13.6,0,20.2,0c1.4,0,3.1,0.3,4.2,1.4c1,1,1.4,2.4,1.4,3.8c0,12.2,0,24.7,0,36.9c0,6.3,0,12.5,0,18.8v0.7c0,1.7,0,3.8-1,5.9
			l-0.3,0.3l-0.3,0.3C83.3,78.8,81.2,78.8,79.5,78.8z"/>
	</g>
</g>
</svg>
