<?xml version="1.0" encoding="utf-8"?>
<!-- Generator: Adobe Illustrator 22.0.1, SVG Export Plug-In . SVG Version: 6.00 Build 0)  -->
<svg version="1.1" id="图层_1" xmlns="http://www.w3.org/2000/svg" xmlns:xlink="http://www.w3.org/1999/xlink" x="0px" y="0px"
	 width="88px" height="88px" viewBox="0 0 88 88" style="enable-background:new 0 0 88 88;" xml:space="preserve">
<style type="text/css">
	.st0{fill:#F2B10F;}
	.st1{fill:#FFFFFF;}
</style>
<g>
	<g>
		<rect x="65.4" y="45.4" class="st0" width="5.9" height="5.9"/>
		<rect x="65.4" y="33.6" class="st0" width="5.9" height="5.9"/>
		<polygon class="st0" points="65.8,57.9 71.7,57.9 71.7,51.3 77.6,51.3 77.6,45.7 77.6,45.4 71.7,45.4 71.7,39.5 77.6,39.5 
			77.6,33.6 77.6,33.2 71.7,33.2 71.7,27.3 77.6,27.3 77.6,33.2 77.6,33.6 83.5,33.6 83.5,39.5 77.6,39.5 77.6,45.4 77.6,45.7 
			83.5,45.7 83.5,51.7 77.6,51.7 77.6,57.9 83.5,57.9 83.5,63.8 77.6,63.8 77.6,57.9 71.7,57.9 71.7,63.8 65.8,63.8 		"/>
		<rect x="71.7" y="39.5" class="st0" width="5.9" height="5.9"/>
		<rect x="71.7" y="27.3" class="st0" width="5.9" height="5.9"/>
		<rect x="77.6" y="33.6" class="st0" width="5.9" height="5.9"/>
		<rect x="77.6" y="57.9" class="st0" width="5.9" height="5.9"/>
		<rect x="65.8" y="57.9" class="st0" width="5.9" height="5.9"/>
		<rect x="53.2" y="45.4" class="st0" width="5.9" height="5.9"/>
		<rect x="53.2" y="33.6" class="st0" width="5.9" height="5.9"/>
		<polygon class="st0" points="53.6,57.9 59.5,57.9 59.5,51.3 65.4,51.3 65.4,45.7 65.4,45.4 59.5,45.4 59.5,39.5 65.4,39.5 
			65.4,33.6 65.4,33.2 59.5,33.2 59.5,27.3 65.4,27.3 65.4,33.2 65.4,33.6 71.3,33.6 71.3,39.5 65.4,39.5 65.4,45.4 65.4,45.7 
			71.3,45.7 71.3,51.7 65.4,51.7 65.4,57.9 71.3,57.9 71.3,63.8 65.4,63.8 65.4,57.9 59.5,57.9 59.5,63.8 53.6,63.8 		"/>
		<rect x="59.5" y="39.5" class="st0" width="5.9" height="5.9"/>
		<rect x="59.5" y="27.3" class="st0" width="5.9" height="5.9"/>
		<polygon class="st0" points="65.4,51.7 71.3,51.7 71.3,45.7 65.4,45.7 65.4,51.3 59.5,51.3 59.5,57.9 65.4,57.9 		"/>
		<rect x="65.4" y="33.6" class="st0" width="5.9" height="5.9"/>
		<rect x="65.4" y="57.9" class="st0" width="5.9" height="5.9"/>
		<rect x="53.6" y="57.9" class="st0" width="5.9" height="5.9"/>
	</g>
	<path class="st0" d="M53.6,8.9V0.5h-5.9c-15.3,2.8-31,5.2-46.6,8c0,23.7,0,47.3,0,71c15.3,2.8,31,5.2,46.3,8h6.3v-8"/>
	<g>
		<path class="st1" d="M13.9,37c-1-0.7-2.4-1-4.5-1s-3.5,0-4.5,0.3v15.3H8v-5.6c0.3,0,0.7,0,1,0c2.1,0,3.8-0.7,4.9-1.7
			c1-0.7,1.4-2.1,1.7-3.8C15.6,39.1,14.9,37.7,13.9,37z M9,43c-0.3,0-0.7,0-1,0v-4.5c0.3,0,0.7,0,1.4,0c1.7,0,2.4,1,2.4,2.1
			C11.8,41.9,10.8,43,9,43z"/>
		<path class="st1" d="M30.3,52h-3.8l-3.5-6.3c-1-1.7-2.1-3.8-2.8-5.6l0,0c0,2.1,0,4.5,0,7V52H17V35.6h4.2l3.1,5.9
			c1,1.7,1.7,3.8,2.4,5.6l0,0c-0.3-2.1-0.3-4.5-0.3-7v-4.5h3.5V52C29.9,52,30.3,52,30.3,52z"/>
		<path class="st1" d="M48,51.7c-1.4,0.3-3.5,1-5.9,0.7c-3.1,0-5.6-1-7-2.4c-1.4-1.4-2.4-3.8-2.4-6.3C33,38.4,36.9,35,42.8,35
			c2.4,0,4.2,0.3,4.9,0.7L47,38.8c-1-0.3-2.1-0.7-4.2-0.7c-3.1,0-5.6,1.7-5.6,5.6c0,3.5,2.1,5.6,5.6,5.6c1,0,1.7,0,2.1-0.3v-3.5
			h-2.8v-3.1h6.6v9.4C48.7,51.7,48,51.7,48,51.7z"/>
	</g>
	<g>
		<path class="st0" d="M79.3,78.8H51.1v-3.5h28.2c1.4,0,2.4,0,3.5-0.3c0.3-1,0.3-2.1,0.3-3.5v-0.7c0-6.3,0-12.5,0-18.8
			c0-12.2,0-24.7,0-37.2c0-0.7,0-1-0.3-1.4C82.5,13,82.1,13,81.4,13c-7,0-13.6,0-20.2,0c-3.5,0-6.6,0-10.1,0V9.5c3.5,0,6.6,0,10.1,0
			c6.6,0,13.6,0,20.2,0c1.4,0,3.1,0.3,4.2,1.4c1,1,1.4,2.4,1.4,3.8c0,12.2,0,24.7,0,36.9c0,6.3,0,12.5,0,18.8v0.7c0,1.7,0,3.8-1,5.9
			l-0.3,0.3l-0.3,0.3C83.1,78.8,81.1,78.8,79.3,78.8z"/>
	</g>
</g>
</svg>
