<?xml version="1.0" encoding="utf-8"?>
<!-- Generator: Adobe Illustrator 22.0.1, SVG Export Plug-In . SVG Version: 6.00 Build 0)  -->
<svg version="1.1" id="图层_1" xmlns="http://www.w3.org/2000/svg" xmlns:xlink="http://www.w3.org/1999/xlink" x="0px" y="0px"
	 width="88px" height="88px" viewBox="0 0 88 88" style="enable-background:new 0 0 88 88;" xml:space="preserve">
<style type="text/css">
	.st0{fill:#6491F7;}
</style>
<path class="st0" d="M86.7,12.7c0.3-2.1-1.7-4.2-4-3.8c-10.4-0.3-21.1,0-31.1,0V0.5h-5.7C31.1,3.3,16.1,5.7,1,8.5
	c0,23.7,0,47.3,0,71c14.7,2.8,29.8,5.2,44.5,8h6v-8c9.7,0,19.7,0,29.4,0c1.7,0,3.3,0,5-1c1-1.7,1-4.2,1-5.9
	C86.7,52.4,86.7,32.5,86.7,12.7 M33.5,57.9c-1.7,1-4,0-6,0c-1.3-6.6-2.7-13.6-4-20.2c-1,6.6-2.7,12.9-4,19.5c-2,0-3.7-0.3-5.7-0.3
	c-1.7-9-3.3-17.7-5-26.8c1.7,0,3.3-0.3,5-0.3c1,6.6,2,12.9,3,19.5c1.3-6.6,2.7-13.2,4-19.8c2,0,3.7-0.3,5.7-0.3
	c1.3,7,2.7,13.6,4,20.5c1-7,2.3-14.3,3.3-21.2c2,0,4-0.3,5.7-0.3C37.5,38.1,35.8,48.2,33.5,57.9 M83.7,76.7H51.2v-8h25.4v-4.2H51.5
	v-5.2H77v-4.2H51.5v-5.2H77v-4.2H51.5v-4.9H77v-4.2H51.5v-5.2H77v-4.2H51.5v-4.9H77v-4.2H51.5v-7.3H84L83.7,76.7L83.7,76.7z"/>
</svg>
