<?xml version="1.0" encoding="utf-8"?>
<!-- Generator: Adobe Illustrator 22.0.1, SVG Export Plug-In . SVG Version: 6.00 Build 0)  -->
<svg version="1.1" id="图层_1" xmlns="http://www.w3.org/2000/svg" xmlns:xlink="http://www.w3.org/1999/xlink" x="0px" y="0px"
	 width="88px" height="88px" viewBox="0 0 88 88" style="enable-background:new 0 0 88 88;" xml:space="preserve">
<style type="text/css">
	.st0{fill:#F64943;}
	.st1{enable-background:new    ;}
	.st2{fill:#FFFFFF;}
	.st3{fill:none;stroke:#FFFFFF;stroke-width:0.2;stroke-miterlimit:10;}
</style>
<path class="st0" d="M53.4,8.9V0.5h-5.9c-15.3,2.8-31,5.2-46.6,8c0,23.7,0,47.3,0,71c15.3,2.8,31,5.2,46.3,8h6.3v-8"/>
<g>
	<path class="st0" d="M79.5,78.8H51.3v-3.5h28.2c1.4,0,2.4,0,3.5-0.3c0.3-1,0.3-2.1,0.3-3.5v-0.7c0-6.3,0-12.5,0-18.8
		c0-12.2,0-24.7,0-37.2c0-0.7,0-1-0.3-1.4C82.6,13,82.3,13,81.6,13c-7,0-13.6,0-20.2,0c-3.5,0-6.6,0-10.1,0V9.5c3.5,0,6.6,0,10.1,0
		c6.6,0,13.6,0,20.2,0c1.4,0,3.1,0.3,4.2,1.4c1,1,1.4,2.4,1.4,3.8c0,12.2,0,24.7,0,36.9c0,6.3,0,12.5,0,18.8v0.7c0,1.7,0,3.8-1,5.9
		l-0.3,0.3l-0.3,0.3C83,78.8,81.2,78.8,79.5,78.8z"/>
</g>
<g class="st1">
	<path class="st2" d="M18.1,41.5c0,1.7-0.5,3.1-1.5,4.1c-1,1-2.4,1.5-4.2,1.5H9.3v7.2H6.8V35.9h5.6c1.8,0,3.2,0.5,4.2,1.5
		C17.6,38.4,18.1,39.8,18.1,41.5z M15.6,41.5c0-1.4-0.3-2.3-1-2.8c-0.6-0.5-1.6-0.8-2.9-0.8H9.3V45h2.5c1.3,0,2.3-0.3,2.9-0.8
		C15.3,43.8,15.6,42.8,15.6,41.5z"/>
	<path class="st2" d="M31.7,45.1c0,3.3-0.7,5.6-2.1,7c-1.4,1.4-3.3,2.1-5.6,2.1h-3.7V35.9H24c2.7,0,4.6,0.7,5.9,2.2
		C31.1,39.5,31.7,41.8,31.7,45.1z M29.2,45.1c0-2.7-0.4-4.5-1.3-5.6s-2.2-1.6-3.9-1.6h-1.2v14.3H24c1.7,0,3-0.5,3.9-1.6
		C28.7,49.6,29.2,47.8,29.2,45.1z"/>
	<path class="st2" d="M45.5,37.9h-8.8v6h6.7v2h-6.7v8.3h-2.5V35.9h11.3V37.9z"/>
</g>
<g class="st1">
	<path class="st3" d="M18.1,41.5c0,1.7-0.5,3.1-1.5,4.1c-1,1-2.4,1.5-4.2,1.5H9.3v7.2H6.8V35.9h5.6c1.8,0,3.2,0.5,4.2,1.5
		C17.6,38.4,18.1,39.8,18.1,41.5z M15.6,41.5c0-1.4-0.3-2.3-1-2.8c-0.6-0.5-1.6-0.8-2.9-0.8H9.3V45h2.5c1.3,0,2.3-0.3,2.9-0.8
		C15.3,43.8,15.6,42.8,15.6,41.5z"/>
	<path class="st3" d="M31.7,45.1c0,3.3-0.7,5.6-2.1,7c-1.4,1.4-3.3,2.1-5.6,2.1h-3.7V35.9H24c2.7,0,4.6,0.7,5.9,2.2
		C31.1,39.5,31.7,41.8,31.7,45.1z M29.2,45.1c0-2.7-0.4-4.5-1.3-5.6s-2.2-1.6-3.9-1.6h-1.2v14.3H24c1.7,0,3-0.5,3.9-1.6
		C28.7,49.6,29.2,47.8,29.2,45.1z"/>
	<path class="st3" d="M45.5,37.9h-8.8v6h6.7v2h-6.7v8.3h-2.5V35.9h11.3V37.9z"/>
</g>
<path class="st0" d="M83,54.8c-3.8-3.5-10.4-4.9-10.4-4.9s-1.4-2.8-2.8-5.6c-1-2.8-1.4-5.9-1.4-5.9c8.4-11.5,6.3-15,3.5-15.3
	C69.8,22.8,67,24.5,66,28c-0.7,3.5,0,10.4,0,10.4s-2.4,3.1-4.5,5.6s-5.9,4.5-5.9,4.5s-7-0.7-11.1,1.7c-4.9,2.8-2.8,7.3,1.4,7.3
	S56.5,51,56.5,51s4.5-0.3,8,0c3.8,0.7,5.9,1,5.9,1s1.7,7.3,7,10.1C82.3,65.2,86.8,58.6,83,54.8z M48.5,54.1c-1.4,1-3.5,1.4-4.2,0.7
	c-0.3-0.3,0.3-1.7,2.1-2.4c2.1-1,5.9-1,5.9-1S49.6,53.4,48.5,54.1z M68.4,28c0.7-3.1,2.8-2.8,2.8-2.8c1.7,1,0,4.5-0.7,5.6
	c-0.3,1-2.8,3.8-2.8,3.8S67.7,30.4,68.4,28z M64.5,48.5c-1.4,0-5.2-0.3-5.2-0.3s1.4-1,3.5-2.8c2.1-2.1,3.5-4.2,3.5-4.2
	s0.7,3.5,1.4,4.5c0.3,1,1.4,3.5,1.4,3.5C68,49.2,65.9,48.9,64.5,48.5z M81.2,59.3c-0.7,1-2.8,0.7-3.8-0.3c-1-1.4-3.5-5.9-3.5-5.9
	s1.7,0.7,3.5,1.4C79.1,55.1,82.6,57.6,81.2,59.3z"/>
</svg>
