<?xml version="1.0" encoding="utf-8"?>
<!-- Generator: Adobe Illustrator 22.0.1, SVG Export Plug-In . SVG Version: 6.00 Build 0)  -->
<svg version="1.1" id="图层_1" xmlns="http://www.w3.org/2000/svg" xmlns:xlink="http://www.w3.org/1999/xlink" x="0px" y="0px"
	 width="88px" height="88px" viewBox="0 0 88 88" style="enable-background:new 0 0 88 88;" xml:space="preserve">
<style type="text/css">
	.st0{fill:#F2B10F;}
	.st1{fill:#FFFFFF;}
	.st2{fill:#E69D00;}
</style>
<g>
	<g>
		<rect x="52.8" y="36.6" class="st0" width="4.8" height="4.7"/>
		<rect x="52.8" y="27.2" class="st0" width="4.8" height="4.7"/>
		<polygon class="st0" points="53,46.4 57.8,46.4 57.8,41.4 62.6,41.4 62.6,36.9 62.6,36.6 57.8,36.6 57.8,31.9 62.6,31.9 
			62.6,27.2 62.6,26.9 57.8,26.9 57.8,21.9 62.6,21.9 62.6,26.9 62.6,27.2 67.4,27.2 67.4,31.9 62.6,31.9 62.6,36.6 62.6,36.9 
			67.4,36.9 67.4,41.6 62.6,41.6 62.6,46.4 67.4,46.4 67.4,51.1 62.6,51.1 62.6,46.4 57.8,46.4 57.8,51.1 53,51.1 		"/>
		<rect x="57.8" y="31.9" class="st0" width="4.8" height="4.7"/>
		<rect x="57.8" y="21.9" class="st0" width="4.8" height="4.7"/>
		<rect x="62.6" y="27.2" class="st0" width="4.8" height="4.7"/>
		<rect x="62.6" y="46.4" class="st0" width="4.8" height="4.7"/>
		<rect x="53" y="46.4" class="st0" width="4.8" height="4.7"/>
		<rect x="42.9" y="36.6" class="st0" width="4.8" height="4.7"/>
		<rect x="42.9" y="27.2" class="st0" width="4.8" height="4.7"/>
		<polygon class="st0" points="43.2,46.4 48,46.4 48,41.4 52.8,41.4 52.8,36.9 52.8,36.6 48,36.6 48,31.9 52.8,31.9 52.8,27.2 
			52.8,26.9 48,26.9 48,21.9 52.8,21.9 52.8,26.9 52.8,27.2 57.6,27.2 57.6,31.9 52.8,31.9 52.8,36.6 52.8,36.9 57.6,36.9 
			57.6,41.6 52.8,41.6 52.8,46.4 57.6,46.4 57.6,51.1 52.8,51.1 52.8,46.4 48,46.4 48,51.1 43.2,51.1 		"/>
		<rect x="48" y="31.9" class="st0" width="4.8" height="4.7"/>
		<rect x="48" y="21.9" class="st0" width="4.8" height="4.7"/>
		<polygon class="st0" points="52.8,41.6 57.6,41.6 57.6,36.9 52.8,36.9 52.8,41.4 48,41.4 48,46.4 52.8,46.4 		"/>
		<rect x="52.8" y="27.2" class="st0" width="4.8" height="4.7"/>
		<rect x="52.8" y="46.4" class="st0" width="4.8" height="4.7"/>
		<rect x="43.2" y="46.4" class="st0" width="4.8" height="4.7"/>
	</g>
	<path class="st0" d="M43.2,7.2V0.5h-4.8C25.9,2.7,13.2,4.7,0.5,6.9c0,18.9,0,37.8,0,56.7c12.4,2.2,25.1,4.2,37.6,6.4h5.1v-6.4"/>
	<g>
		<path class="st0" d="M64.1,63.3H41.2v-2.8h22.9c1.1,0,2,0,2.8-0.3c0.3-0.8,0.3-1.7,0.3-2.8v-0.6c0-5,0-10,0-15
			c0-9.7,0-19.7,0-29.7c0-0.6,0-0.8-0.3-1.1c-0.3-0.3-0.6-0.3-1.1-0.3c-5.6,0-11,0-16.4,0c-2.8,0-5.4,0-8.2,0V8c2.8,0,5.4,0,8.2,0
			c5.4,0,11,0,16.4,0c1.1,0,2.5,0.3,3.4,1.1c0.8,0.8,1.1,1.9,1.1,3.1c0,9.7,0,19.7,0,29.5c0,5,0,10,0,15v0.6c0,1.4,0,3.1-0.8,4.7
			l-0.3,0.3l-0.3,0.3C67.2,63.3,65.5,63.3,64.1,63.3z"/>
	</g>
	<g id="XMLID_109_">
		<path id="XMLID_110_" class="st1" d="M41.7,86.7c-0.3,0-0.6-0.3-0.6-0.3V36.6c0-0.3,0-1.4,0.6-1.4h31.6l12.7,12.5l0,0
			c0,0,0,0,0,0.6v38.1l0,0c0,0-0.3,0.3-0.6,0.3C85.2,86.7,41.7,86.7,41.7,86.7z"/>
	</g>
	<g id="XMLID_96_">
		<g id="XMLID_102_">
			<path id="XMLID_108_" class="st0" d="M73.7,36.6l12.4,11.7c0,0,0,0,0,0.3v37.2H42.9V36.6c0-0.3,0-0.3,0-0.3L73.7,36.6 M73.9,34.7
				H42.3c-1.1,0-1.7,0.6-1.7,1.9v49.8c0,0.3,0.6,1.1,1.7,1.1h43.5c1.1,0,1.7-0.6,1.7-1.1V48.3c0-0.6,0-1.1-0.3-1.4L74.5,34.4
				C74.2,34.7,74.2,34.7,73.9,34.7L73.9,34.7z"/>
		</g>
	</g>
	<g id="XMLID_111_">
		<polygon id="XMLID_112_" class="st2" points="40,38.6 16.6,66.7 37.8,70.3 40,70.3 		"/>
	</g>
	<g id="XMLID_31_">
		<g id="XMLID_32_">
			<path id="XMLID_54_" class="st0" d="M75.6,38.9l7.3,7.2h-7.3V38.9 M73.9,34.7v12.8h12.7L73.9,34.7L73.9,34.7z"/>
		</g>
	</g>
	<g id="XMLID_6_">
		<path id="XMLID_29_" class="st0" d="M49.9,63.3v5h-1.7V56.6h5.4c1.1,0,2,0.3,2.5,1.1c0.6,0.6,1.1,1.4,1.1,2.2
			c0,1.1-0.3,1.7-0.6,2.2c-0.6,0.6-1.7,1.1-2.5,1.1h-4v0H49.9z M49.9,58v3.9h3.4c0.6,0,1.4,0,1.7-0.3c0.3-0.3,0.6-1.1,0.6-1.7
			c0-0.6-0.3-1.4-0.6-1.7S53.9,58,53.3,58C53.3,58,49.9,58,49.9,58z"/>
		<path id="XMLID_8_" class="st0" d="M59.3,68.3V56.6h5.1c1.7,0,2.5,0.6,3.7,1.7c1.1,1.1,1.4,2.2,1.4,4.2c0,1.7-0.3,3.1-1.1,3.9
			c-1.1,1.4-2.3,1.9-4,1.9H59.3z M60.9,58v9.2h3.1c1.1,0,2-0.3,2.5-1.4c0.6-0.6,1.1-1.9,1.1-3.3c0-1.4-0.3-2.5-1.1-3.3
			c-0.8-0.8-1.7-1.1-2.5-1.1L60.9,58L60.9,58z"/>
		<path id="XMLID_7_" class="st0" d="M73.4,63v5.3h-1.7V56.6h8.2V58h-6.8v3.6H79V63h-5.9v0H73.4z"/>
	</g>
	<g>
		<path class="st1" d="M11,30c-0.8-0.6-2-0.8-3.7-0.8s-2.8,0-3.7,0.3v12.2h2.5v-4.4c0.3,0,0.6,0,0.8,0c1.7,0,3.1-0.6,4-1.4
			c0.8-0.6,1.1-1.7,1.4-3.1C12.4,31.6,11.8,30.5,11,30z M7,34.7c-0.3,0-0.6,0-0.8,0v-3.6c0.3,0,0.6,0,1.1,0c1.4,0,2,0.8,2,1.7
			C9.3,33.9,8.4,34.7,7,34.7z"/>
		<path class="st1" d="M24.2,41.9h-3.1l-2.8-5c-0.8-1.4-1.7-3.1-2.3-4.4l0,0c0,1.7,0,3.6,0,5.6v3.9h-2.5V28.9h3.4l2.5,4.7
			c0.8,1.4,1.4,3.1,2,4.4l0,0c-0.3-1.7-0.3-3.6-0.3-5.6v-3.6h2.8v13.1C23.9,41.9,24.2,41.9,24.2,41.9z"/>
		<path class="st1" d="M38.6,41.6c-1.1,0.3-2.8,0.8-4.8,0.6c-2.5,0-4.5-0.8-5.6-1.9c-1.1-1.1-2-3.1-2-5c0.3-4.2,3.4-6.9,8.2-6.9
			c2,0,3.4,0.3,4,0.6l-0.6,2.5c-0.8-0.3-1.7-0.6-3.4-0.6c-2.5,0-4.5,1.4-4.5,4.4c0,2.8,1.7,4.4,4.5,4.4c0.8,0,1.4,0,1.7-0.3v-2.8
			h-2.3v-2.5h5.4v7.5C39.2,41.6,38.6,41.6,38.6,41.6z"/>
	</g>
</g>
</svg>
