<?xml version="1.0" encoding="utf-8"?>
<!-- Generator: Adobe Illustrator 22.0.1, SVG Export Plug-In . SVG Version: 6.00 Build 0)  -->
<svg version="1.1" id="图层_1" xmlns="http://www.w3.org/2000/svg" xmlns:xlink="http://www.w3.org/1999/xlink" x="0px" y="0px"
	 width="88px" height="88px" viewBox="0 0 88 88" style="enable-background:new 0 0 88 88;" xml:space="preserve">
<style type="text/css">
	.st0{fill:#D34626;}
	.st1{fill:#D34826;}
	.st2{fill:#FFFFFF;}
	.st3{opacity:0.35;}
	.st4{fill:#CD270E;}
</style>
<g>
	<path class="st0" d="M42.6,41.1c1.1,4.4,5.3,7.5,10,7.5c5.9,0,10.3-4.7,10.3-10.3H52.6V28c-4.7,0-8.9,3.3-10,7.5"/>
	<g>
		<g>
			<path class="st1" d="M54.6,36.6L54.6,36.6h10.3c0-3.1-1.1-5.6-3.3-7.2L54.6,36.6z"/>
		</g>
	</g>
	<g>
		<g>
			<path class="st1" d="M54.6,35l7.3-7.2c-2-1.9-4.7-3.1-7.3-3.1V35L54.6,35z"/>
		</g>
	</g>
	<path class="st0" d="M42.6,7.2V0.5h-4.7C25.6,2.7,13,4.7,0.5,6.9c0,18.9,0,37.8,0,56.7c12.3,2.2,24.8,4.2,37.1,6.4h5v-6.4"/>
	<g>
		<path class="st0" d="M63.5,63.3H40.9v-2.8h22.6c1.1,0,2,0,2.8-0.3c0.3-0.8,0.3-1.7,0.3-2.8v-0.6c0-5,0-10,0-15
			c0-9.7,0-19.7,0-29.7c0-0.6,0-0.8-0.3-1.1c-0.3-0.3-0.6-0.3-1.1-0.3c-5.6,0-10.9,0-16.2,0c-2.8,0-5.3,0-8.1,0V8c2.8,0,5.3,0,8.1,0
			c5.3,0,10.9,0,16.2,0c1.1,0,2.5,0.3,3.3,1.1c0.8,0.8,1.1,1.9,1.1,3.1c0,9.7,0,19.7,0,29.5c0,5,0,10,0,15v0.6c0,1.4,0,3.1-0.8,4.7
			l-0.3,0.3l-0.3,0.3C66.6,63.3,64.9,63.3,63.5,63.3z"/>
	</g>
	<polygon class="st2" points="37.9,31.6 34,31.6 34,42.7 30.9,42.7 30.9,31.9 27.3,31.9 27.3,29.4 37.9,29.1 	"/>
	<path class="st2" d="M14.2,30.5c-0.8-0.6-2-0.8-3.6-0.8c-1.4,0-2.5,0-3.3,0.3v12.2h2.5v-4.4c0.3,0,0.6,0,0.8,0
		c1.7,0,3.1-0.6,3.9-1.4c0.8-0.6,1.1-1.7,1.1-3.1C15.6,32.2,15,31.1,14.2,30.5z M12.8,33.6c0,1.1-0.8,1.9-2.2,1.9
		c-0.3,0-0.6,0-0.8,0v-3.6c0.3,0,0.6,0,1.1,0C12.2,31.6,13,32.5,12.8,33.6z"/>
	<path class="st2" d="M25,30.2c-0.8-0.6-2.2-0.8-3.9-0.8c-1.7,0-2.8,0.3-3.6,0.3v12.8h2.8v-4.7c0,0,0.6,0,0.8,0
		c1.7,0,3.1-0.6,4.2-1.4c0.8-0.6,1.1-1.7,1.1-3.1C26.4,31.9,25.9,30.8,25,30.2z M21.1,35.5c-0.3,0-0.6,0-0.8,0v-3.9
		c0.3,0,0.6,0,1.1,0c1.4,0,2.2,0.6,2.2,1.7C23.6,34.7,22.5,35.5,21.1,35.5z"/>
	<g id="XMLID_143_" class="st3">
		<polygon id="XMLID_144_" class="st4" points="40.7,38.6 17.5,66.7 37.6,70.3 40.7,70.3 		"/>
	</g>
	<g id="XMLID_141_">
		<path id="XMLID_142_" class="st2" d="M42.3,86.7c-0.3,0-0.6-0.3-0.6-0.3V36.6c0-0.3,0-1.4,0.6-1.4h31.2l12.5,12.5l0,0
			c0,0,0,0,0,0.6v38.1l0,0c0,0-0.3,0.3-0.6,0.3C85.3,86.7,42.3,86.7,42.3,86.7z"/>
	</g>
	<g id="XMLID_138_">
		<g id="XMLID_139_">
			<path id="XMLID_140_" class="st0" d="M73.8,36.6l12.3,11.7c0,0,0,0,0,0.3v37.2H43.4V36.6c0-0.3,0-0.3,0-0.3L73.8,36.6 M74.1,34.7
				H42.9c-1.1,0-1.7,0.6-1.7,1.9v49.8c0,0.3,0.6,1.1,1.7,1.1h42.9c1.1,0,1.7-0.6,1.7-1.1V48.3c0-0.6,0-1.1-0.3-1.4L74.7,34.4
				C74.4,34.7,74.4,34.7,74.1,34.7L74.1,34.7z"/>
		</g>
	</g>
	<g id="XMLID_136_">
		<polygon id="XMLID_137_" class="st2" points="75.5,46.6 75.5,36.9 85.3,46.6 		"/>
	</g>
	<g id="XMLID_133_">
		<g id="XMLID_134_">
			<path id="XMLID_135_" class="st0" d="M75.8,38.9l7.3,7.2h-7.3V38.9 M74.1,34.7v12.8h12.5L74.1,34.7L74.1,34.7z"/>
		</g>
	</g>
	<g id="XMLID_129_">
		<path id="XMLID_132_" class="st0" d="M50.4,63.3v5h-1.7V56.6H54c1.1,0,2,0.3,2.5,1.1c0.6,0.6,1.1,1.4,1.1,2.2
			c0,1.1-0.3,1.7-0.6,2.2c-0.6,0.6-1.7,1.1-2.5,1.1h-3.9v0H50.4z M50.4,58v3.9h3.3c0.6,0,1.4,0,1.7-0.3c0.3-0.3,0.6-1.1,0.6-1.7
			c0-0.6-0.3-1.4-0.6-1.7S54.3,58,53.8,58C53.8,58,50.4,58,50.4,58z"/>
		<path id="XMLID_131_" class="st0" d="M59.6,68.3V56.6h5c1.7,0,2.5,0.6,3.6,1.7c1.1,1.1,1.4,2.2,1.4,4.2c0,1.7-0.3,3.1-1.1,3.9
			c-1.1,1.4-2.2,1.9-3.9,1.9H59.6z M61.3,58v9.2h3.1c1.1,0,2-0.3,2.5-1.4c0.6-0.6,1.1-1.9,1.1-3.3c0-1.4-0.3-2.5-1.1-3.3
			C66,58.3,65.2,58,64.4,58L61.3,58L61.3,58z"/>
		<path id="XMLID_130_" class="st0" d="M73.6,63v5.3h-1.7V56.6H80V58h-6.7v3.6h5.9V63h-5.9v0H73.6z"/>
	</g>
</g>
</svg>
