<?xml version="1.0" encoding="utf-8"?>
<!-- Generator: Adobe Illustrator 19.0.0, SVG Export Plug-In . SVG Version: 6.00 Build 0)  -->
<svg version="1.1" id="图层_1" xmlns="http://www.w3.org/2000/svg" xmlns:xlink="http://www.w3.org/1999/xlink" x="0px" y="0px"
	 width="18.2px" height="18.2px" viewBox="0 0 18.2 18.2" style="enable-background:new 0 0 18.2 18.2;" xml:space="preserve">
<style type="text/css">
	.st0{fill:#8E78C9;}
	.st1{fill:#E27676;}
	.st2{fill:#735EAD;}
	.st3{fill:#FFFFFF;}
	.st4{fill:#FFFFFF;stroke:#FFFFFF;stroke-width:0.2;stroke-miterlimit:10;}
</style>
<g>
	<path class="st0" d="M1.3,0h15.7c0.7,0,1.3,0.6,1.3,1.3v15.7c0,0.7-0.6,1.3-1.3,1.3H1.3c-0.7,0-1.3-0.6-1.3-1.3V1.3
		C0,0.6,0.6,0,1.3,0z"/>
</g>
<path class="st1" d="M11.4,7c-0.1,0-0.1-0.1-0.2-0.1l0.3,0.3C11.5,7.1,11.4,7,11.4,7z"/>
<path class="st1" d="M10.5,7.4c-0.1,0-0.1-0.1-0.2-0.1l0.3,0.3C10.5,7.5,10.5,7.4,10.5,7.4z"/>
<path d="M11.1,13"/>
<g>
	<path class="st2" d="M4.2,14.4l5.7,3.8h7.1c0,0,1.3,0,1.3-1.5c0,0,0-8.3,0-8.3l-7.4-5L4.2,14.4z"/>
</g>
<g>
	<path class="st3" d="M13.5,14.4H4.7c-0.3,0-0.5-0.2-0.5-0.5V7.4c0-0.3,0.2-0.5,0.5-0.5h8.9c0.3,0,0.5,0.2,0.5,0.5v6.5
		C14.1,14.2,13.8,14.4,13.5,14.4z"/>
	<g>
		<path class="st4" d="M12.2,10.1H5.8V6c0-1.6,1.4-3,3.2-3c1.8,0,3.2,1.3,3.2,3V10.1z M6.7,9.2h4.5V6c0-1.1-1-2-2.2-2
			C7.7,4,6.7,4.9,6.7,6V9.2z"/>
	</g>
	<g>
		<g>
			<path class="st0" d="M9.1,11.6c-0.4,0-0.7-0.3-0.7-0.7V9.5c0-0.4,0.3-0.7,0.7-0.7c0.4,0,0.7,0.3,0.7,0.7v1.4
				C9.8,11.3,9.5,11.6,9.1,11.6L9.1,11.6z M9.1,11.6"/>
		</g>
	</g>
</g>
</svg>
