<?xml version="1.0" encoding="utf-8"?>
<!-- Generator: Adobe Illustrator 22.0.1, SVG Export Plug-In . SVG Version: 6.00 Build 0)  -->
<svg version="1.1" id="图层_1" xmlns="http://www.w3.org/2000/svg" xmlns:xlink="http://www.w3.org/1999/xlink" x="0px" y="0px"
	 width="25.5px" height="25.5px" viewBox="0 0 25.5 25.5" style="enable-background:new 0 0 25.5 25.5;" xml:space="preserve">
<g>
	<g>
		<defs>
			<rect id="SVGID_1_" width="25.5" height="25.5"/>
		</defs>
		<clipPath id="SVGID_2_">
			<use xlink:href="#SVGID_1_"  style="overflow:visible;"/>
		</clipPath>
		<path style="clip-path:url(#SVGID_2_);fill:#F9C900;" d="M1.3,0h23c0.7,0,1.3,0.6,1.3,1.3v23c0,0.7-0.6,1.3-1.3,1.3h-23
			C0.6,25.6,0,25,0,24.3v-23C0,0.6,0.6,0,1.3,0"/>
	</g>
	<g>
		<defs>
			<rect id="SVGID_3_" width="25.5" height="25.5"/>
		</defs>
		<clipPath id="SVGID_4_">
			<use xlink:href="#SVGID_3_"  style="overflow:visible;"/>
		</clipPath>
		<path style="clip-path:url(#SVGID_4_);fill:#E2AC00;" d="M8.7,19.5l7.8,6h7.7c0,0,1.3-0.1,1.2-1.6V15l-2.9-3.2l-2.6-0.6l-0.5,4.2
			L18,18.1l-2.5,1.2l-5.2-0.1L8.7,19.5z"/>
	</g>
	<g>
		<defs>
			<rect id="SVGID_5_" width="25.5" height="25.5"/>
		</defs>
		<clipPath id="SVGID_6_">
			<use xlink:href="#SVGID_5_"  style="overflow:visible;"/>
		</clipPath>
		<path style="clip-path:url(#SVGID_6_);fill:#FFFFFF;" d="M8.6,13H7.3H7.2H3.3c-0.7,0-0.4,0.6-0.4,0.6l2.6,4.3C5.7,18,5.8,18,6,18
			c0.1,0,0.3,0,0.5-0.2L9,13.6C9,13.6,9.3,13,8.6,13"/>
	</g>
	<g>
		<defs>
			<rect id="SVGID_7_" width="25.5" height="25.5"/>
		</defs>
		<clipPath id="SVGID_8_">
			<use xlink:href="#SVGID_7_"  style="overflow:visible;"/>
		</clipPath>
		<path style="clip-path:url(#SVGID_8_);fill:#FFFFFF;" d="M16.9,12.4h1.3h0.1h3.9c0.7,0,0.4-0.6,0.4-0.6L20,7.6
			c-0.2-0.1-0.3-0.2-0.5-0.2c-0.1,0-0.3,0-0.5,0.2l-2.6,4.3C16.5,11.8,16.2,12.4,16.9,12.4"/>
	</g>
	<g>
		<defs>
			<rect id="SVGID_9_" width="25.5" height="25.5"/>
		</defs>
		<clipPath id="SVGID_10_">
			<use xlink:href="#SVGID_9_"  style="overflow:visible;"/>
		</clipPath>
		<path style="clip-path:url(#SVGID_10_);fill:none;stroke:#FFFFFF;stroke-width:1.7;stroke-miterlimit:10;" d="M19.2,10.4
			c0.3,0.7,0.4,1.5,0.4,2.3c0,3.8-3.1,6.9-6.9,6.9c-1.6,0-3.1-0.6-4.3-1.5"/>
	</g>
	<g>
		<defs>
			<rect id="SVGID_11_" width="25.5" height="25.5"/>
		</defs>
		<clipPath id="SVGID_12_">
			<use xlink:href="#SVGID_11_"  style="overflow:visible;"/>
		</clipPath>
		<path style="clip-path:url(#SVGID_12_);fill:none;stroke:#FFFFFF;stroke-width:1.7;stroke-miterlimit:10;" d="M6.5,15.2
			C6.2,14.4,6,13.5,6,12.6C5.9,9,8.9,6,12.6,6c1.6,0,3,0.6,4.2,1.5"/>
	</g>
</g>
</svg>
