<?xml version="1.0" encoding="utf-8"?>
<!-- Generator: Adobe Illustrator 19.0.0, SVG Export Plug-In . SVG Version: 6.00 Build 0)  -->
<svg version="1.1" id="图层_1" xmlns="http://www.w3.org/2000/svg" xmlns:xlink="http://www.w3.org/1999/xlink" x="0px" y="0px"
	 width="18.2px" height="18.2px" viewBox="0 0 18.2 18.2" style="enable-background:new 0 0 18.2 18.2;" xml:space="preserve">
<style type="text/css">
	.st0{clip-path:url(#SVGID_2_);fill:#39BF83;}
	.st1{clip-path:url(#SVGID_2_);fill:#E27676;}
	.st2{clip-path:url(#SVGID_2_);fill:#24935E;}
	.st3{clip-path:url(#SVGID_2_);fill:#FFFFFF;}
	
		.st4{clip-path:url(#SVGID_2_);fill:none;stroke:#FFFFFF;stroke-width:0.5;stroke-linecap:round;stroke-linejoin:round;stroke-miterlimit:10;}
</style>
<g>
	<defs>
		<rect id="SVGID_1_" y="0" width="18.2" height="18.2"/>
	</defs>
	<clipPath id="SVGID_2_">
		<use xlink:href="#SVGID_1_"  style="overflow:visible;"/>
	</clipPath>
	<path class="st0" d="M1.3,0h15.7c0.7,0,1.3,0.6,1.3,1.3v15.7c0,0.7-0.6,1.3-1.3,1.3H1.3c-0.7,0-1.3-0.6-1.3-1.3V1.3
		C0,0.6,0.6,0,1.3,0"/>
	<path class="st1" d="M9.1,7C9.1,6.9,9,6.9,9,6.8l0.3,0.3C9.2,7.1,9.2,7,9.1,7"/>
	<path class="st1" d="M9.1,7.4C9.1,7.3,9,7.3,8.9,7.2l0.3,0.3C9.2,7.5,9.2,7.4,9.1,7.4"/>
	<path class="st2" d="M3.4,15.4l3.7,2.8h9.8c0,0,0.8,0,1.2-0.9c0,0,0.1-0.3,0.1-0.5v-4.2v-1.9v-0.3V7.6l-6.6-4.7"/>
	<rect x="3.6" y="9.7" class="st0" width="4.3" height="5.4"/>
	<path class="st3" d="M7.6,14.8H3.9V10h3.7V14.8z M8.1,9.4H3.4c-0.1,0-0.1,0-0.1,0.1v5.8c0,0.1,0,0.1,0.1,0.1h4.8
		c0.1,0,0.1,0,0.1-0.1L8.1,9.4C8.2,9.5,8.2,9.4,8.1,9.4"/>
	<rect x="10.3" y="9.7" class="st0" width="4.3" height="5.4"/>
	<path class="st3" d="M14.3,14.8h-3.7V10h3.7V14.8z M14.8,9.4h-4.8c-0.1,0-0.1,0-0.1,0.1v5.8c0,0.1,0,0.1,0.1,0.1h4.8
		c0.1,0,0.1,0,0.1-0.1L14.8,9.4C14.9,9.5,14.9,9.4,14.8,9.4"/>
	<rect x="6.9" y="3.1" class="st3" width="4.3" height="5.4"/>
	<path class="st3" d="M11,8.2H7.2V3.4H11V8.2z M11.5,2.8H6.7c-0.1,0-0.1,0-0.1,0.1v5.8c0,0.1,0,0.1,0.1,0.1h4.8c0.1,0,0.1,0,0.1-0.1
		L11.5,2.8C11.6,2.8,11.5,2.8,11.5,2.8"/>
	<polyline class="st0" points="4.1,8 4.1,5.9 5.9,5.9 	"/>
	<polyline class="st4" points="4.1,8 4.1,5.9 5.9,5.9 	"/>
	<line class="st0" x1="3" y1="7" x2="4.1" y2="8.2"/>
	<line class="st4" x1="3" y1="7" x2="4.1" y2="8.2"/>
	<line class="st0" x1="5.2" y1="7" x2="4.1" y2="8.2"/>
	<line class="st4" x1="5.2" y1="7" x2="4.1" y2="8.2"/>
	<polyline class="st4" points="14.1,8 14.1,5.9 12.3,5.9 	"/>
	<line class="st0" x1="15.2" y1="7" x2="14.1" y2="8.2"/>
	<line class="st4" x1="15.2" y1="7" x2="14.1" y2="8.2"/>
	<line class="st0" x1="13" y1="7" x2="14.1" y2="8.2"/>
	<line class="st4" x1="13" y1="7" x2="14.1" y2="8.2"/>
</g>
</svg>
