<?xml version="1.0" encoding="utf-8"?>
<!-- Generator: Adobe Illustrator 19.0.0, SVG Export Plug-In . SVG Version: 6.00 Build 0)  -->
<svg version="1.1" id="图层_1" xmlns="http://www.w3.org/2000/svg" xmlns:xlink="http://www.w3.org/1999/xlink" x="0px" y="0px"
	 width="18.2px" height="18.2px" viewBox="0 0 18.2 18.2" style="enable-background:new 0 0 18.2 18.2;" xml:space="preserve">
<style type="text/css">
	.st0{fill:#8E78C9;}
	.st1{fill:#E27676;}
	.st2{fill:#735EAD;}
	.st3{fill:#FFFFFF;}
</style>
<g>
	<path class="st0" d="M1.3,0h15.7c0.7,0,1.3,0.6,1.3,1.3v15.7c0,0.7-0.6,1.3-1.3,1.3H1.3c-0.7,0-1.3-0.6-1.3-1.3V1.3
		C0,0.6,0.6,0,1.3,0z"/>
</g>
<path class="st1" d="M11.4,7c-0.1,0-0.1-0.1-0.2-0.1l0.3,0.3C11.5,7.1,11.4,7,11.4,7z"/>
<path class="st1" d="M10.5,7.4c-0.1,0-0.1-0.1-0.2-0.1l0.3,0.3C10.5,7.5,10.5,7.4,10.5,7.4z"/>
<path d="M11.1,13"/>
<g>
	<path class="st2" d="M3.9,14.5L9,18.2h7.9c0,0,1.3,0,1.3-1.4c0,0,0-8,0-8l-4.7-4.4l-0.9,4l-4,1.3L3.9,14.5z"/>
</g>
<g>
	<path class="st3" d="M13.7,4.6c-0.7-0.7-1.6-1-2.5-1c-1,0-1.8,0.4-2.5,1c-0.7,0.7-1,1.6-1,2.5c0,0.5,0.1,1,0.3,1.4L4,12.5
		c-0.1,0.1-0.1,0.2-0.1,0.3l-0.1,1.4c0,0.1,0,0.3,0.1,0.3c0.1,0.1,0.2,0.1,0.3,0.1l1.4-0.1c0.1,0,0.2-0.1,0.3-0.1l0.4-0.4
		c0,0,0,0,0,0l-0.1-1c0-0.1,0-0.1,0.1-0.2c0,0,0.1-0.1,0.2-0.1l1,0.1c0,0,0,0,0,0l0.3-0.3c0,0,0,0,0,0l-0.1-1c0-0.1,0-0.1,0.1-0.2
		c0,0,0.1-0.1,0.2-0.1l1,0.1c0,0,0,0,0,0l0.8-0.8c0.4,0.2,0.9,0.3,1.4,0.3c1,0,1.8-0.4,2.5-1C15.1,8.3,15.1,6,13.7,4.6L13.7,4.6z"/>
</g>
<g>
	<path class="st0" d="M12.2,8.2c-0.3,0.3-0.6,0.4-1,0.4s-0.8-0.2-1-0.4c-0.3-0.3-0.4-0.6-0.4-1c0-0.4,0.2-0.8,0.4-1
		c0.3-0.3,0.6-0.4,1-0.4c0.4,0,0.8,0.2,1,0.4C12.8,6.7,12.8,7.6,12.2,8.2L12.2,8.2z"/>
</g>
</svg>
