<?xml version="1.0" encoding="utf-8"?>
<!-- Generator: Adobe Illustrator 22.0.1, SVG Export Plug-In . SVG Version: 6.00 Build 0)  -->
<svg version="1.1" id="图层_1" xmlns="http://www.w3.org/2000/svg" xmlns:xlink="http://www.w3.org/1999/xlink" x="0px" y="0px"
	 width="88px" height="88px" viewBox="0 0 88 88" style="enable-background:new 0 0 88 88;" xml:space="preserve">
<style type="text/css">
	.st0{fill:#6491F7;}
	.st1{fill:#D3CEBA;}
	.st2{fill:#4C79BD;}
	.st3{fill:#FFFFFF;}
</style>
<g>
	<g>
		<path class="st0" d="M71.7,10.2c0.3-1.7-1.4-3.3-3.3-3.1c-8.6-0.3-17.5,0-25.8,0V0.5h-4.7C25.5,2.7,13,4.7,0.5,6.9
			c0,18.9,0,37.8,0,56.7c12.2,2.2,24.7,4.2,37,6.4h5v-6.4c8.1,0,16.4,0,24.5,0c1.4,0,2.8,0,4.2-0.8c0.8-1.4,0.8-3.3,0.8-4.7
			C71.7,42.2,71.7,26.1,71.7,10.2 M27.2,46.4c-1.4,0.8-3.3,0-5,0c-1.1-5.3-2.2-10.8-3.3-16.1c-0.8,5.3-2.2,10.3-3.3,15.6
			c-1.7,0-3.1-0.3-4.7-0.3C9.4,38.3,8,31.4,6.6,24.1c1.4,0,2.8-0.3,4.2-0.3c0.8,5.3,1.7,10.3,2.5,15.6c1.1-5.3,2.2-10.6,3.3-15.8
			c1.7,0,3.1-0.3,4.7-0.3c1.1,5.6,2.2,10.8,3.3,16.4c0.8-5.6,1.9-11.4,2.8-17c1.7,0,3.3-0.3,4.7-0.3C30.8,30.8,29.4,38.9,27.2,46.4
			 M69.2,61.4h-27V55h21.1v-3.3H42.5v-4.2h21.1v-3.3H42.5v-3.9h21.1v-3.3H42.5v-4.2h21.1v-3.3H42.5v-4.2h21.1v-3.3H42.5V18h21.1
			v-2.8H42.5V9.4h27L69.2,61.4L69.2,61.4z"/>
		<g id="XMLID_11_">
			<path id="XMLID_12_" class="st1" d="M56.1,26.3"/>
		</g>
	</g>
	<g id="XMLID_35_">
		<path id="XMLID_10_" class="st1" d="M56.1,42.5"/>
	</g>
	<g id="XMLID_9_">
		<path id="XMLID_34_" class="st1" d="M56.1,58.6"/>
	</g>
	<g id="XMLID_20_">
		<polygon id="XMLID_21_" class="st2" points="41.4,38.9 18.3,66.9 37.2,70.3 41.4,70.3 		"/>
	</g>
	<g id="XMLID_106_">
		<path id="XMLID_107_" class="st3" d="M43,86.7c-0.3,0-0.6-0.3-0.6-0.3V36.6c0-0.3,0-1.4,0.6-1.4h31.1l12.5,12.5l0,0c0,0,0,0,0,0.6
			v38.1l0,0c0,0-0.3,0.3-0.6,0.3C86.1,86.7,43,86.7,43,86.7z"/>
	</g>
	<g id="XMLID_103_">
		<g id="XMLID_104_">
			<path id="XMLID_105_" class="st0" d="M73.9,36.6l12.2,11.7c0,0,0,0,0,0.3v37.2H43.6V36.6c0-0.3,0-0.3,0-0.3L73.9,36.6 M74.2,34.7
				H43c-1.1,0-1.7,0.6-1.7,1.9v49.8c0,0.3,0.6,1.1,1.7,1.1h42.8c1.1,0,1.7-0.6,1.7-1.1V48.3c0-0.6,0-1.1-0.3-1.4L74.7,34.4
				C74.4,34.7,74.4,34.7,74.2,34.7L74.2,34.7z"/>
		</g>
	</g>
	<g id="XMLID_100_">
		<polygon id="XMLID_101_" class="st3" points="75.5,46.6 75.5,36.9 85.3,46.6 		"/>
	</g>
	<g id="XMLID_97_">
		<g id="XMLID_98_">
			<path id="XMLID_99_" class="st0" d="M76.4,38.9l7.2,7.2h-7.2V38.9 M75,34.7v12.8h12.5L75,34.7L75,34.7z"/>
		</g>
	</g>
	<g id="XMLID_92_">
		<path id="XMLID_95_" class="st0" d="M51.4,63.3v5h-1.7V56.6H55c1.1,0,1.9,0.3,2.5,1.1c0.6,0.6,1.1,1.4,1.1,2.2
			c0,1.1-0.3,1.7-0.6,2.2c-0.6,0.6-1.7,1.1-2.5,1.1h-3.9v0H51.4z M51.4,58v3.9h3.3c0.6,0,1.4,0,1.7-0.3c0.3-0.3,0.6-1.1,0.6-1.7
			c0-0.6-0.3-1.4-0.6-1.7C56.1,58,55.3,58,54.7,58C54.7,58,51.4,58,51.4,58z"/>
		<path id="XMLID_94_" class="st0" d="M60.5,68.3V56.6h5c1.7,0,2.5,0.6,3.6,1.7c1.1,1.1,1.4,2.2,1.4,4.2c0,1.7-0.3,3.1-1.1,3.9
			c-1.1,1.4-2.2,1.9-3.9,1.9H60.5z M62.2,58v9.2h3.1c1.1,0,1.9-0.3,2.5-1.4c0.6-0.6,1.1-1.9,1.1-3.3c0-1.4-0.3-2.5-1.1-3.3
			c-0.6-0.6-1.7-1.1-2.5-1.1L62.2,58L62.2,58z"/>
		<path id="XMLID_93_" class="st0" d="M74.2,63v5.3h-1.7V56.6h8.1V58h-6.7v3.6h5.8V63h-5.8v0H74.2z"/>
	</g>
</g>
</svg>
