<?xml version="1.0" encoding="UTF-8"?>
<svg width="14px" height="14px" viewBox="0 0 14 14" version="1.1" xmlns="http://www.w3.org/2000/svg" xmlns:xlink="http://www.w3.org/1999/xlink">
    <!-- Generator: Sketch 51 (57462) - http://www.bohemiancoding.com/sketch -->
    <title>editIfo</title>
    <desc>Created with Sketch.</desc>
    <defs>
        <polygon id="path-1" points="0.000128104421 0.000447184014 13.9998702 0.000447184014 13.9998702 14 0.000128104421 14"></polygon>
    </defs>
    <g id="Page-1" stroke="none" stroke-width="1" fill="none" fill-rule="evenodd">
        <g id="个人中心" transform="translate(-213.000000, -191.000000)">
            <rect fill="#FFFFFF" x="0" y="0" width="375" height="727"></rect>
            <g id="Group-2" transform="translate(148.000000, 183.000000)">
                <g id="editIfo" transform="translate(65.000000, 8.000000)">
                    <g id="Group-3">
                        <mask id="mask-2" fill="white">
                            <use xlink:href="#path-1"></use>
                        </mask>
                        <g id="Clip-2"></g>
                        <path d="M2.2233,8.6963 C2.1433,9.0083 2.0263,9.9653 2.0003,11.9863 L2.0273,13.0003 L2.0133,12.0003 C4.0363,11.9733 4.9933,11.8563 5.3043,11.7763 L11.9343,5.1463 C12.0033,5.0773 12.0043,5.0043 11.9973,4.9863 L9.0063,1.9973 C8.9913,1.9963 8.9223,1.9973 8.8543,2.0653 L2.2233,8.6963 Z M2.0113,14.0003 C1.4673,14.0003 0.9613,13.7933 0.5833,13.4163 C0.2003,13.0323 -0.0067,12.5153 0.0003,11.9603 C0.0513,8.0383 0.4103,7.6803 0.6983,7.3933 L7.4403,0.6513 C7.8343,0.2573 8.3533,0.0263 8.9003,0.0023 C9.4723,-0.0217 10.0273,0.1883 10.4203,0.5833 L13.4173,3.5793 C14.2203,4.3823 14.1893,5.7193 13.3483,6.5603 L6.6063,13.3023 C6.3203,13.5893 5.9633,13.9473 2.0403,14.0003 L2.0113,14.0003 Z" id="Fill-1" fill="#FFFFFF" mask="url(#mask-2)"></path>
                    </g>
                    <path d="M7.44885879,8 C7.33210274,8 7.21624482,7.95445096 7.12822871,7.86335288 C6.95489088,7.68388967 6.95758525,7.39510876 7.13451558,7.21928947 L9.23612451,5.13041055 C9.41395295,4.95368028 9.69775997,4.9573242 9.8710978,5.13678742 C10.0453338,5.31625063 10.0426394,5.60503154 9.86481094,5.78085083 L7.76320201,7.86972975 C7.67518591,7.9571839 7.56202235,8 7.44885879,8" id="Fill-4" fill="#FFFFFF"></path>
                    <path d="M6.5,8.9975 C6.43,8.9975 6.37,8.9875 6.31,8.9575 C6.25,8.9375 6.19,8.8975 6.14,8.8475 C6.05,8.7575 6,8.6275 6,8.4975 C6,8.4275 6.01,8.3675 6.04,8.3075 C6.06,8.2475 6.1,8.1875 6.14,8.1475 C6.19,8.0975 6.25,8.0575 6.31,8.0375 C6.43,7.9875 6.57,7.9875 6.69,8.0375 C6.75,8.0575 6.8,8.0975 6.85,8.1475 C6.9,8.1875 6.93,8.2475 6.96,8.3075 C6.98,8.3675 7,8.4275 7,8.4975 C7,8.6275 6.94,8.7575 6.85,8.8475 C6.8,8.8975 6.75,8.9375 6.69,8.9575 C6.63,8.9875 6.56,8.9975 6.5,8.9975" id="Fill-6" fill="#FFFFFF"></path>
                    <polygon id="Fill-8" fill="#FFFFFF" points="5.25748625 13 1 8.66549912 1.74353229 8 6 12.3335279"></polygon>
                </g>
            </g>
        </g>
    </g>
</svg>