<?xml version="1.0" encoding="utf-8"?>
<!-- Generator: Adobe Illustrator 19.0.0, SVG Export Plug-In . SVG Version: 6.00 Build 0)  -->
<svg version="1.1" id="图层_1" xmlns="http://www.w3.org/2000/svg" xmlns:xlink="http://www.w3.org/1999/xlink" x="0px" y="0px"
	 viewBox="0 0 18 18" width="18" height="18" style="enable-background:new 0 0 18 18;" xml:space="preserve">
<style type="text/css">
	.st0{clip-path:url(#SVGID_2_);fill:none;stroke:#478afb;stroke-linecap:round;stroke-miterlimit:10;}
	.st1{clip-path:url(#SVGID_2_);fill:#478afb;}
	
		.st2{clip-path:url(#SVGID_2_);fill:none;stroke:#478afb;stroke-width:2;stroke-linecap:round;stroke-linejoin:round;stroke-miterlimit:10;}
</style>
<g>
	<defs>
		<rect id="SVGID_1_" width="18" height="18"/>
	</defs>
	<clipPath id="SVGID_2_">
		<use xlink:href="#SVGID_1_"  style="overflow:visible;"/>
	</clipPath>
	<path class="st0" d="M6.7,6.4C6.8,6,7,5.8,7.4,5.4C7.9,5.1,8.5,5,9.1,5c0.8,0,1.4,0.2,1.9,0.7c0.5,0.4,0.7,1,0.7,1.7
		c0,0.7-0.3,1.3-0.9,1.9l-0.7,0.7c-0.6,0.5-0.8,0.3-0.9,1.6"/>
	<path class="st1" d="M9.4,12.6c0.4,0,0.6,0.3,0.6,0.7c0,0.4-0.3,0.8-0.7,0.8c-0.4,0-0.6-0.3-0.6-0.7C8.6,13,9,12.6,9.4,12.6"/>
	<circle class="st2" cx="9" cy="9" r="8"/>
</g>
</svg>
