<svg xmlns="http://www.w3.org/2000/svg" viewBox="0 0 16.64 19.22"><title>资源 38</title><g id="图层_2" data-name="图层 2"><g id="图层_1-2" data-name="图层 1"><path d="M11.26,19.17c-.58,0-1.23,0-1.94,0C1.34,19.22,1,17,1,17a7.31,7.31,0,0,1,3.86-6.45L5,10.46A5.31,5.31,0,0,1,8.32,1a11.78,11.78,0,0,1,2.94.37,5.31,5.31,0,0,0-1.4,9.09l-.13.09A7.31,7.31,0,0,0,5.87,17S5.32,18.84,11.26,19.17Z" fill="#ffe4f5"/><circle cx="8.32" cy="6.32" r="5.32" fill="none" stroke="#6d9ffd" stroke-linecap="round" stroke-linejoin="round" stroke-width="2"/><path d="M14.1,12.5A7.29,7.29,0,0,1,15.64,17" fill="none" stroke="#6d9ffd" stroke-linecap="round" stroke-linejoin="round" stroke-width="2"/><path d="M1,17a7.32,7.32,0,0,1,3.86-6.45" fill="none" stroke="#6d9ffd" stroke-linecap="round" stroke-linejoin="round" stroke-width="2"/><path d="M5.5,5.75a2.4,2.4,0,0,1,1.93-2" fill="none" stroke="#6d9ffd" stroke-linecap="round" stroke-linejoin="round"/></g></g></svg>