<svg id="图层_1" data-name="图层 1" xmlns="http://www.w3.org/2000/svg" width="16.64" height="19.22" viewBox="0 0 16.64 19.22"><defs><style>.cls-1{fill:#333;opacity:0.1;}.cls-2,.cls-3{fill:none;stroke:#333;stroke-linecap:round;stroke-linejoin:round;}.cls-2{stroke-width:2px;}</style></defs><title>account</title><path class="cls-1" d="M1827.32,390.24c-.58,0-1.23,0-1.94,0-8,0-8.32-2.22-8.32-2.22a7.31,7.31,0,0,1,3.86-6.45l.13-.09a5.31,5.31,0,0,1,3.33-9.46,11.78,11.78,0,0,1,2.94.37,5.31,5.31,0,0,0-1.4,9.09l-.13.09a7.31,7.31,0,0,0-3.86,6.45S1821.38,389.91,1827.32,390.24Z" transform="translate(-1816.05 -371.07)"/><circle class="cls-2" cx="8.32" cy="6.32" r="5.32"/><path class="cls-2" d="M1830.15,383.57a7.29,7.29,0,0,1,1.54,4.5" transform="translate(-1816.05 -371.07)"/><path class="cls-2" d="M1817.05,388.07a7.32,7.32,0,0,1,3.86-6.45" transform="translate(-1816.05 -371.07)"/><path class="cls-3" d="M1821.55,376.81a2.4,2.4,0,0,1,1.93-2" transform="translate(-1816.05 -371.07)"/></svg>