<svg xmlns="http://www.w3.org/2000/svg" viewBox="0 0 20.3 13.98"><title>资源 42</title><g id="图层_2" data-name="图层 2"><g id="图层_1-2" data-name="图层 1"><path d="M10.11,7A3.33,3.33,0,0,1,7,10.31V13H1V10.31a3.33,3.33,0,0,0,.42-6.58A.5.5,0,0,1,1,3.25V1H7V3.25a.5.5,0,0,0,.42.48A3.33,3.33,0,0,1,10.11,7Z" fill="#ffe4f5"/><polyline points="8.38 4.15 10.04 6.5 11.92 4.15" fill="none" stroke="#6d9ffd" stroke-linecap="round" stroke-linejoin="round"/><line x1="10.04" y1="6.5" x2="10.04" y2="9.83" fill="none" stroke="#6d9ffd" stroke-linecap="round" stroke-linejoin="round"/><line x1="8.38" y1="6.5" x2="11.71" y2="6.5" fill="none" stroke="#6d9ffd" stroke-linecap="round" stroke-linejoin="round"/><line x1="8.38" y1="8.17" x2="11.71" y2="8.17" fill="none" stroke="#6d9ffd" stroke-linecap="round" stroke-linejoin="round"/><path d="M16,7a3.33,3.33,0,0,0,3.33,3.33V13H1V10.31a3.33,3.33,0,0,0,.42-6.58A.5.5,0,0,1,1,3.24V1H19.3V3.66A3.33,3.33,0,0,0,16,7Z" fill="none" stroke="#6d9ffd" stroke-linecap="round" stroke-linejoin="round" stroke-width="2"/></g></g></svg>