<svg xmlns="http://www.w3.org/2000/svg" viewBox="0 0 21.36 21"><title>资源 44</title><g id="图层_2" data-name="图层 2"><g id="图层_1-2" data-name="图层 1"><path d="M14,20a2.37,2.37,0,0,1-1.7-.64,2.39,2.39,0,0,0-3.25,0,2.35,2.35,0,0,1-1.6.64,2.39,2.39,0,0,1-2.4-2.56c0-.06,0-.11,0-.17A2.39,2.39,0,0,0,3,14.9a2.38,2.38,0,0,1-2-2.38,2.35,2.35,0,0,1,1-2,2.37,2.37,0,0,0,1-2,2.44,2.44,0,0,0-.31-1.19,2.34,2.34,0,0,1-.32-1.2A2.39,2.39,0,0,1,5.53,3.92a2.29,2.29,0,0,0,.7.1A2.39,2.39,0,0,0,8.46,2.51a2.39,2.39,0,0,1,4.45,0A2.4,2.4,0,0,0,14,3.74a2.37,2.37,0,0,1-1.82.18A2.39,2.39,0,0,0,9.09,6.2a2.34,2.34,0,0,0,.32,1.2,2.44,2.44,0,0,1,.31,1.19,2.37,2.37,0,0,1-1,2,2.35,2.35,0,0,0-1,2,2.38,2.38,0,0,0,2,2.38,2.39,2.39,0,0,1,2,2.37c0,.06,0,.11,0,.17A2.39,2.39,0,0,0,14,20Z" fill="#ffe4f5"/><path d="M12.9,2.51h0a2.39,2.39,0,0,0,2.92,1.41h0A2.39,2.39,0,0,1,18.6,7.4h0a2.39,2.39,0,0,0,.72,3.16h0a2.39,2.39,0,0,1-1,4.33h0a2.39,2.39,0,0,0-2,2.54h0a2.39,2.39,0,0,1-4,1.93h0a2.39,2.39,0,0,0-3.24,0h0a2.39,2.39,0,0,1-4-1.93h0a2.39,2.39,0,0,0-2-2.54H3a2.39,2.39,0,0,1-1-4.33H2A2.39,2.39,0,0,0,2.76,7.4h0A2.39,2.39,0,0,1,5.54,3.92h0A2.39,2.39,0,0,0,8.46,2.51h0A2.39,2.39,0,0,1,12.9,2.51Z" fill="none" stroke="#6d9ffd" stroke-linecap="round" stroke-linejoin="round" stroke-width="2"/><circle cx="10.68" cy="10.5" r="2.28" fill="none" stroke="#6d9ffd" stroke-linecap="round" stroke-linejoin="round"/></g></g></svg>