<svg id="图层_1" data-name="图层 1" xmlns="http://www.w3.org/2000/svg" width="21.36" height="21" viewBox="0 0 21.36 21"><title>setting</title><path d="M1931.83,450a2.37,2.37,0,0,1-1.7-.64,2.39,2.39,0,0,0-3.25,0,2.35,2.35,0,0,1-1.6.64,2.39,2.39,0,0,1-2.4-2.56c0-.06,0-.11,0-.17a2.39,2.39,0,0,0-2-2.37,2.38,2.38,0,0,1-2-2.38,2.35,2.35,0,0,1,1-2,2.37,2.37,0,0,0,1-2,2.44,2.44,0,0,0-.31-1.19,2.34,2.34,0,0,1-.32-1.2,2.39,2.39,0,0,1,3.09-2.28,2.29,2.29,0,0,0,.7.1,2.39,2.39,0,0,0,2.22-1.51,2.39,2.39,0,0,1,4.45,0,2.4,2.4,0,0,0,1.1,1.23,2.37,2.37,0,0,1-1.82.18,2.39,2.39,0,0,0-3.09,2.28,2.34,2.34,0,0,0,.32,1.2,2.44,2.44,0,0,1,.31,1.19,2.37,2.37,0,0,1-1,2,2.35,2.35,0,0,0-1,2,2.38,2.38,0,0,0,2,2.38,2.39,2.39,0,0,1,2,2.37c0,.06,0,.11,0,.17A2.39,2.39,0,0,0,1931.83,450Z" transform="translate(-1917.82 -430.03)" style="fill:#333;opacity:0.1"/><path d="M1930.72,432.54h0a2.39,2.39,0,0,0,2.92,1.41h0a2.39,2.39,0,0,1,2.77,3.48h0a2.39,2.39,0,0,0,.72,3.16h0a2.39,2.39,0,0,1-1,4.33h0a2.39,2.39,0,0,0-2,2.54h0a2.39,2.39,0,0,1-4,1.93h0a2.39,2.39,0,0,0-3.24,0h0a2.39,2.39,0,0,1-4-1.93h0a2.39,2.39,0,0,0-2-2.54h0a2.39,2.39,0,0,1-1-4.33h0a2.39,2.39,0,0,0,.72-3.16h0a2.39,2.39,0,0,1,2.77-3.48h0a2.39,2.39,0,0,0,2.92-1.41h0A2.39,2.39,0,0,1,1930.72,432.54Z" transform="translate(-1917.82 -430.03)" style="fill:none;stroke:#333;stroke-linecap:round;stroke-linejoin:round;stroke-width:2px"/><circle cx="10.68" cy="10.5" r="2.28" style="fill:none;stroke:#333;stroke-linecap:round;stroke-linejoin:round"/></svg>