<svg xmlns="http://www.w3.org/2000/svg" viewBox="0 0 16 19"><title>资源 41</title><g id="图层_2" data-name="图层 2"><g id="图层_1-2" data-name="图层 1"><path d="M9,18H3a2,2,0,0,1-2-2V4A2,2,0,0,1,3,2H9A2,2,0,0,0,7,4V16A2,2,0,0,0,9,18Z" fill="#ffe4f5"/><line x1="6" y1="1" x2="10" y2="1" fill="none" stroke="#6d9ffd" stroke-linecap="round" stroke-linejoin="round" stroke-width="2"/><line x1="4.5" y1="6.5" x2="5.5" y2="6.5" fill="none" stroke="#6d9ffd" stroke-linecap="round" stroke-linejoin="round"/><line x1="4.5" y1="9.5" x2="5.5" y2="9.5" fill="none" stroke="#6d9ffd" stroke-linecap="round" stroke-linejoin="round"/><line x1="4.5" y1="12.5" x2="5.5" y2="12.5" fill="none" stroke="#6d9ffd" stroke-linecap="round" stroke-linejoin="round"/><line x1="7.5" y1="6.5" x2="11.5" y2="6.5" fill="none" stroke="#6d9ffd" stroke-linecap="round" stroke-linejoin="round"/><line x1="7.5" y1="9.5" x2="11.5" y2="9.5" fill="none" stroke="#6d9ffd" stroke-linecap="round" stroke-linejoin="round"/><line x1="7.5" y1="12.5" x2="11.5" y2="12.5" fill="none" stroke="#6d9ffd" stroke-linecap="round" stroke-linejoin="round"/><path d="M13,2h0a2,2,0,0,1,2,2V16a2,2,0,0,1-2,2H3a2,2,0,0,1-2-2V4A2,2,0,0,1,3,2H3" fill="none" stroke="#6d9ffd" stroke-linecap="round" stroke-linejoin="round" stroke-width="2"/></g></g></svg>