<svg id="图层_1" data-name="图层 1" xmlns="http://www.w3.org/2000/svg" width="16" height="19" viewBox="0 0 16 19"><title>ticket</title><path d="M1925,380h0a2,2,0,0,1,2,2v12a2,2,0,0,1-2,2h-10a2,2,0,0,1-2-2V382a2,2,0,0,1,2-2h0" transform="translate(-1912 -378)" style="fill:none;stroke:#333;stroke-linecap:round;stroke-linejoin:round;stroke-width:2px"/><path d="M1921,396h-6a2,2,0,0,1-2-2V382a2,2,0,0,1,2-2h6a2,2,0,0,0-2,2v12A2,2,0,0,0,1921,396Z" transform="translate(-1912 -378)" style="fill:#333;opacity:0.1"/><line x1="6" y1="1" x2="10" y2="1" style="fill:none;stroke:#333;stroke-linecap:round;stroke-linejoin:round;stroke-width:2px"/><line x1="4.5" y1="6.5" x2="5.5" y2="6.5" style="fill:none;stroke:#333;stroke-linecap:round;stroke-linejoin:round"/><line x1="4.5" y1="9.5" x2="5.5" y2="9.5" style="fill:none;stroke:#333;stroke-linecap:round;stroke-linejoin:round"/><line x1="4.5" y1="12.5" x2="5.5" y2="12.5" style="fill:none;stroke:#333;stroke-linecap:round;stroke-linejoin:round"/><line x1="7.5" y1="6.5" x2="11.5" y2="6.5" style="fill:none;stroke:#333;stroke-linecap:round;stroke-linejoin:round"/><line x1="7.5" y1="9.5" x2="11.5" y2="9.5" style="fill:none;stroke:#333;stroke-linecap:round;stroke-linejoin:round"/><line x1="7.5" y1="12.5" x2="11.5" y2="12.5" style="fill:none;stroke:#333;stroke-linecap:round;stroke-linejoin:round"/></svg>