<svg id="图层_1" data-name="图层 1" xmlns="http://www.w3.org/2000/svg" xmlns:xlink="http://www.w3.org/1999/xlink"
    width="27.2" height="28.24" viewBox="0 0 27.2 28.24">
    <defs>
        <style>
            .cls-1 {
                fill: #e5f1fa;
            }

            .cls-2 {
                fill: #ff6687;
            }

            .cls-3 {
                fill: url(#未命名的渐变_6);
            }

            .cls-4 {
                fill: #ffe4f5;
            }

            .cls-5,
            .cls-7 {
                fill: none;
                stroke-linecap: round;
                stroke-linejoin: round;
            }

            .cls-5 {
                stroke: #f15456;
            }

            .cls-6 {
                fill: #ffdee3;
            }

            .cls-7 {
                stroke-width: 2px;
                stroke: url(#未命名的渐变_6-2);
            }
        </style>
        <linearGradient id="未命名的渐变_6" x1="1855.76" y1="420.04" x2="1863.47" y2="420.04" gradientUnits="userSpaceOnUse">
            <stop offset="0" stop-color="#ffb6de" />
            <stop offset="1" stop-color="#feb6de" />
        </linearGradient>
        <linearGradient id="未命名的渐变_6-2" x1="0" y1="14.25" x2="23.4" y2="14.25" xlink:href="#未命名的渐变_6" />
    </defs>
    <title>token</title>
    <path class="cls-1" d="M1855,413.79c-.21.19-.42.39-.64.56l-.07-.07C1854.56,414.12,1854.8,414,1855,413.79Z"
        transform="translate(-1837.84 -395.55)" />
    <path class="cls-2"
        d="M1861,399.29c-.24-.84-.26-3.73,1.28-3.74a1.23,1.23,0,0,1,1.13,1.25v.42h.42a1.23,1.23,0,0,1,1.25,1.13c0,1.54-2.91,1.53-3.74,1.28l-.28-.06Z"
        transform="translate(-1837.84 -395.55)" />
    <path class="cls-3"
        d="M1863,423.3a1.67,1.67,0,0,1-1.18.49,1.69,1.69,0,0,1-1.19-.49l-3.17-3.16-1.68-1.68a13.6,13.6,0,0,0,2.58-2.16l4.64,4.64A1.67,1.67,0,0,1,1863,423.3Z"
        transform="translate(-1837.84 -395.55)" />
    <path class="cls-4" d="M1853.59,419.22a10.25,10.25,0,1,1-4-19.66,10.21,10.21,0,0,1,4,.83,10.25,10.25,0,0,0,0,18.82Z"
        transform="translate(-1837.84 -395.55)" />
    <path class="cls-5"
        d="M1858.11,416a9.33,9.33,0,0,1-13.19,0,7.46,7.46,0,0,1,0-10.55,6,6,0,0,1,8.44,0,4.78,4.78,0,0,1,0,6.75,3.82,3.82,0,0,1-5.4,0,3.06,3.06,0,0,1,0-4.32,2.45,2.45,0,0,1,3.46,0,2,2,0,0,1,0,2.77,1.57,1.57,0,0,1-2.21,0,1.25,1.25,0,0,1,0-1.77"
        transform="translate(-1837.84 -395.55)" />
    <path class="cls-1"
        d="M1857.77,401.74a11.52,11.52,0,0,1-.44,15.45,10.73,10.73,0,0,1-2,1.71,11.54,11.54,0,0,1-13.82-.87,11.54,11.54,0,0,0,15.14,2.19,10.73,10.73,0,0,0,2-1.71,11.53,11.53,0,0,0-.88-16.77Z"
        transform="translate(-1837.84 -395.55)" />
    <path class="cls-6"
        d="M1843.24,403.76a8.74,8.74,0,0,0-1.56,3.14,8.58,8.58,0,0,0-.16,3.17c.05.37.13.71.21,1.06a8.08,8.08,0,0,0,3.8,4.7,9.35,9.35,0,0,0,2.24.71,7.24,7.24,0,0,0,3.88-.61,9.52,9.52,0,0,0,1-.58c.21-.16.4-.34.61-.5a6.28,6.28,0,0,0,1.37-2,7,7,0,0,0,.45-1.61,5.25,5.25,0,0,0-1.85-4.7,4.22,4.22,0,0,0-4.89-.4,4.35,4.35,0,0,0-.9.79,4.67,4.67,0,0,0-.4.61,3.74,3.74,0,0,0-.32,1.11,2.84,2.84,0,0,0,.26,1.48,2.37,2.37,0,0,0,1.24,1.14,1.6,1.6,0,0,0,1.66-.34.9.9,0,0,0,.24-.5,1.51,1.51,0,0,0-.05-.37c0-.08-.08-.18-.16-.21-.34-.13-.84-.11-.84-.63a1.07,1.07,0,0,1,.82-1l.4-.08a2.68,2.68,0,0,1,.87.18l.42.26a2.15,2.15,0,0,1,.61.77c.08.18.13.34.21.53a3,3,0,0,1-.61,2.67,4.5,4.5,0,0,1-1.08.92,4.11,4.11,0,0,1-4.22-.16,6.3,6.3,0,0,1-1.27-1.11,3.78,3.78,0,0,1-.34-.55,5.66,5.66,0,0,1,2.3-7.84,8.06,8.06,0,0,1,1.66-.66,6.84,6.84,0,0,1,2.64-.11,7,7,0,0,1,2.85,1.11,6.91,6.91,0,0,1,1.48,1.27,7.49,7.49,0,0,1,1.43,2.37,8.27,8.27,0,0,1-1.56,8.32c-.32.32-.58.63-.92.92a9.24,9.24,0,0,1-7.92,2,10.1,10.1,0,0,1-4.3-2.08l-.27-.21a10.08,10.08,0,1,0,14.07-14.42,9.36,9.36,0,0,0-13.06,1.43Zm0,0"
        transform="translate(-1837.84 -395.55)" />
    <path class="cls-2"
        d="M1842.5,417a10.11,10.11,0,0,0,4.3,2.08,9.26,9.26,0,0,0,7.92-2c.34-.29.61-.61.92-.92a8.07,8.07,0,0,0,1.08-1.56,8.28,8.28,0,0,0,.47-6.76,7.45,7.45,0,0,0-1.43-2.37,7.45,7.45,0,0,0-4.33-2.38,6.84,6.84,0,0,0-2.64.11,8.06,8.06,0,0,0-1.66.66,5.66,5.66,0,0,0-2.3,7.84,3.78,3.78,0,0,0,.34.55,6.31,6.31,0,0,0,1.27,1.11,4.12,4.12,0,0,0,4.22.16,4.51,4.51,0,0,0,1.08-.92,3,3,0,0,0,.61-2.67c-.08-.18-.13-.34-.21-.53a2.22,2.22,0,0,0-.61-.77l-.42-.26a2.51,2.51,0,0,0-.87-.18l-.4.08a1.08,1.08,0,0,0-.82,1c0,.53.5.5.84.63a.34.34,0,0,1,.16.21,1.51,1.51,0,0,1,.05.37.9.9,0,0,1-.24.5,1.59,1.59,0,0,1-1.66.34,2.36,2.36,0,0,1-1.24-1.14,2.87,2.87,0,0,1-.26-1.48,3.85,3.85,0,0,1,.32-1.11,4.69,4.69,0,0,1,.4-.61,4.27,4.27,0,0,1,.9-.79,4.22,4.22,0,0,1,4.89.4,5.26,5.26,0,0,1,1.85,4.7,7,7,0,0,1-.45,1.61,6.27,6.27,0,0,1-1.37,2c-.21.16-.4.34-.61.5a8.91,8.91,0,0,1-1,.58,7.24,7.24,0,0,1-3.88.61,9.3,9.3,0,0,1-2.24-.71,7.78,7.78,0,0,1-1.48-1.06,7.31,7.31,0,0,1-2.32-3.64c-.08-.34-.16-.69-.21-1.06a8.51,8.51,0,0,1,.16-3.17,8.74,8.74,0,0,1,1.56-3.14,9.38,9.38,0,0,1,13.07-1.43,10.08,10.08,0,0,0-14.07,14.41,2.09,2.09,0,0,0,.26.22Zm0,0"
        transform="translate(-1837.84 -395.55)" />
    <circle class="cls-7" cx="11.7" cy="14.25" r="10.7" />
</svg>