<svg xmlns="http://www.w3.org/2000/svg" xmlns:xlink="http://www.w3.org/1999/xlink" viewBox="0 0 27.2 28.24"><defs><linearGradient id="未命名的渐变_6" x1="17.92" y1="24.5" x2="25.63" y2="24.5" gradientUnits="userSpaceOnUse"><stop offset="0" stop-color="#ffb6de"/><stop offset="1" stop-color="#feb6de"/></linearGradient><linearGradient id="未命名的渐变_6-2" x1="0" y1="14.25" x2="23.4" y2="14.25" xlink:href="#未命名的渐变_6"/></defs><title>资源 40</title><g id="图层_2" data-name="图层 2"><g id="图层_1-2" data-name="图层 1"><path d="M17.19,18.24c-.21.19-.42.39-.64.56l-.07-.07C16.72,18.57,17,18.41,17.19,18.24Z" fill="#e5f1fa"/><path d="M23.11,3.74C22.87,2.91,22.85,0,24.4,0a1.23,1.23,0,0,1,1.13,1.25v.42h.42A1.23,1.23,0,0,1,27.2,2.8c0,1.54-2.91,1.53-3.74,1.28L23.18,4Z" fill="#ff6687"/><path d="M25.14,27.75a1.67,1.67,0,0,1-1.18.49,1.69,1.69,0,0,1-1.19-.49L19.6,24.59l-1.68-1.68a13.6,13.6,0,0,0,2.58-2.16l4.64,4.64A1.67,1.67,0,0,1,25.14,27.75Z" fill="url(#未命名的渐变_6)"/><path d="M15.75,23.67A10.25,10.25,0,1,1,11.7,4a10.21,10.21,0,0,1,4,.83,10.25,10.25,0,0,0,0,18.82Z" fill="#ffe4f5"/><path d="M20.27,20.48a9.33,9.33,0,0,1-13.19,0,7.46,7.46,0,0,1,0-10.55,6,6,0,0,1,8.44,0,4.78,4.78,0,0,1,0,6.75,3.82,3.82,0,0,1-5.4,0,3.06,3.06,0,0,1,0-4.32,2.45,2.45,0,0,1,3.46,0,2,2,0,0,1,0,2.77,1.57,1.57,0,0,1-2.21,0,1.25,1.25,0,0,1,0-1.77" fill="none" stroke="#f15456" stroke-linecap="round" stroke-linejoin="round"/><path d="M19.93,6.19a11.52,11.52,0,0,1-.44,15.45,10.73,10.73,0,0,1-2,1.71,11.54,11.54,0,0,1-13.82-.87,11.54,11.54,0,0,0,15.14,2.19,10.73,10.73,0,0,0,2-1.71,11.53,11.53,0,0,0-.88-16.77Z" fill="#e5f1fa"/><path d="M5.4,8.21a8.74,8.74,0,0,0-1.56,3.14,8.58,8.58,0,0,0-.16,3.17c.05.37.13.71.21,1.06a7.31,7.31,0,0,0,2.32,3.64A7.3,7.3,0,0,0,7.7,20.28,9.35,9.35,0,0,0,9.94,21a7.24,7.24,0,0,0,3.88-.61,9.52,9.52,0,0,0,1-.58c.21-.16.4-.34.61-.5a6.28,6.28,0,0,0,1.37-2,7,7,0,0,0,.45-1.61A5.25,5.25,0,0,0,15.35,11a4.22,4.22,0,0,0-4.89-.4,4.35,4.35,0,0,0-.9.79,4.67,4.67,0,0,0-.4.61,3.74,3.74,0,0,0-.32,1.11,2.84,2.84,0,0,0,.26,1.48,2.37,2.37,0,0,0,1.24,1.14A1.6,1.6,0,0,0,12,15.42a.9.9,0,0,0,.24-.5,1.51,1.51,0,0,0-.05-.37c0-.08-.08-.18-.16-.21-.34-.13-.84-.11-.84-.63a1.07,1.07,0,0,1,.82-1l.4-.08a2.68,2.68,0,0,1,.87.18l.42.26a2.15,2.15,0,0,1,.61.77c.08.18.13.34.21.53A3,3,0,0,1,13.93,17a4.5,4.5,0,0,1-1.08.92,4.11,4.11,0,0,1-4.22-.16,6.3,6.3,0,0,1-1.27-1.11A3.78,3.78,0,0,1,7,16.11,5.66,5.66,0,0,1,9.3,8.27,8.06,8.06,0,0,1,11,7.61a6.84,6.84,0,0,1,2.64-.11,7,7,0,0,1,2.85,1.11,6.91,6.91,0,0,1,1.48,1.27,7.49,7.49,0,0,1,1.43,2.37,8.27,8.27,0,0,1-1.56,8.32c-.32.32-.58.63-.92.92A9.24,9.24,0,0,1,9,23.5a10.1,10.1,0,0,1-4.3-2.08l-.27-.21A10.08,10.08,0,1,0,18.46,6.79,9.36,9.36,0,0,0,5.4,8.21Zm0,0" fill="#ffdee3"/><path d="M4.66,21.42A10.11,10.11,0,0,0,9,23.5a9.26,9.26,0,0,0,7.92-2c.34-.29.61-.61.92-.92A8.07,8.07,0,0,0,18.89,19a8.28,8.28,0,0,0,.47-6.76,7.45,7.45,0,0,0-1.43-2.37,7,7,0,0,0-1.48-1.27A7,7,0,0,0,13.61,7.5,6.84,6.84,0,0,0,11,7.61a8.06,8.06,0,0,0-1.66.66A5.66,5.66,0,0,0,7,16.11a3.78,3.78,0,0,0,.34.55,6.31,6.31,0,0,0,1.27,1.11,4.12,4.12,0,0,0,4.22.16A4.51,4.51,0,0,0,13.93,17a3,3,0,0,0,.61-2.67c-.08-.18-.13-.34-.21-.53a2.22,2.22,0,0,0-.61-.77l-.42-.26a2.51,2.51,0,0,0-.87-.18l-.4.08a1.08,1.08,0,0,0-.82,1c0,.53.5.5.84.63a.34.34,0,0,1,.16.21,1.51,1.51,0,0,1,.05.37.9.9,0,0,1-.24.5,1.59,1.59,0,0,1-1.66.34,2.36,2.36,0,0,1-1.24-1.14,2.87,2.87,0,0,1-.26-1.48A3.85,3.85,0,0,1,9.18,12a4.69,4.69,0,0,1,.4-.61,4.27,4.27,0,0,1,.9-.79,4.22,4.22,0,0,1,4.89.4,5.26,5.26,0,0,1,1.85,4.7,7,7,0,0,1-.45,1.61,6.27,6.27,0,0,1-1.37,2c-.21.16-.4.34-.61.5a8.91,8.91,0,0,1-1,.58A7.24,7.24,0,0,1,9.95,21a9.3,9.3,0,0,1-2.24-.71,7.78,7.78,0,0,1-1.48-1.06A7.31,7.31,0,0,1,3.9,15.58c-.08-.34-.16-.69-.21-1.06a8.51,8.51,0,0,1,.16-3.17A8.74,8.74,0,0,1,5.41,8.21,9.38,9.38,0,0,1,18.48,6.79,10.08,10.08,0,0,0,4.4,21.2a2.09,2.09,0,0,0,.26.22Zm0,0" fill="#ff6687"/><circle cx="11.7" cy="14.25" r="10.7" fill="none" stroke-linecap="round" stroke-linejoin="round" stroke-width="2" stroke="url(#未命名的渐变_6-2)"/></g></g></svg>