<?xml version="1.0" encoding="utf-8"?>
<!-- Generator: Adobe Illustrator 21.0.0, SVG Export Plug-In . SVG Version: 6.00 Build 0)  -->
<svg version="1.1" id="Layer_1" xmlns="http://www.w3.org/2000/svg" xmlns:xlink="http://www.w3.org/1999/xlink" x="0px" y="0px"
	 viewBox="0 0 4006 2797" style="enable-background:new 0 0 4006 2797;" xml:space="preserve">
<style type="text/css">
	.st0{fill:#DDDDDD;}
</style>
<path class="st0" d="M2471.8,476.3c-5.3,0-9.5,4.3-9.5,9.5s4.3,9.5,9.5,9.5s9.5-4.3,9.5-9.5S2477,476.3,2471.8,476.3z M2465.8,488.4
	c-0.1,0-0.1,0-0.1,0c-0.2,0-0.4-0.2-0.5-0.4c-0.1-0.6-0.2-1.2-0.2-1.7c0-0.3,0.2-0.5,0.5-0.5s0.5,0.2,0.5,0.5c0,0.5,0.1,1,0.2,1.5
	C2466.3,488.1,2466.1,488.4,2465.8,488.4z M2470.8,493.2C2470.7,493.2,2470.7,493.2,2470.8,493.2c-1.7-0.3-3.2-1.2-4.3-2.6
	c-0.2-0.2-0.1-0.5,0.1-0.7c0.2-0.2,0.5-0.1,0.7,0.1c0.9,1.1,2.2,1.9,3.6,2.2c0.3,0,0.4,0.3,0.4,0.6
	C2471.2,493.1,2471,493.2,2470.8,493.2z M2477,487.3h-6v-7c0-0.6,0.4-1,1-1l0,0c0.6,0,1,0.4,1,1v5h4c0.6,0,1,0.4,1,1l0,0
	C2478,486.9,2477.6,487.3,2477,487.3z"/>
</svg>
