<?xml version="1.0" encoding="utf-8"?>
<!-- Generator: Adobe Illustrator 21.0.0, SVG Export Plug-In . SVG Version: 6.00 Build 0)  -->
<svg version="1.1" id="图层_1" xmlns="http://www.w3.org/2000/svg" xmlns:xlink="http://www.w3.org/1999/xlink" x="0px" y="0px"
	 viewBox="0 0 28.6 28" style="enable-background:new 0 0 28.6 28;" xml:space="preserve">
<style type="text/css">
	
		.st0{clip-path:url(#SVGID_2_);fill:none;stroke:#3DD0EE;stroke-width:2;stroke-linecap:round;stroke-linejoin:round;stroke-miterlimit:10;}
	.st1{clip-path:url(#SVGID_2_);fill:none;stroke:#3DD0EE;stroke-linecap:round;stroke-miterlimit:10;}
</style>
<g>
	<defs>
		<rect id="SVGID_1_" width="28.6" height="28"/>
	</defs>
	<clipPath id="SVGID_2_">
		<use xlink:href="#SVGID_1_"  style="overflow:visible;"/>
	</clipPath>
	<path class="st0" d="M25.4,1H3.1C2,1,1,2,1,3.1v15.6c0,1.2,1,2.1,2.1,2.1h22.3c1.2,0,2.1-1,2.1-2.1V3.1C27.6,2,26.6,1,25.4,1z"/>
	<path class="st0" d="M12.8,20.8L9.4,25c-0.6,0.8-0.1,2,1,2h6.8c1.1,0,1.6-1.3,0.9-2.1l-0.4-0.4"/>
	<line class="st1" x1="19.2" y1="7.8" x2="11.5" y2="15.4"/>
	<line class="st1" x1="14.7" y1="7.6" x2="11.5" y2="10.7"/>
</g>
</svg>
