<?xml version="1.0" encoding="utf-8"?>
<!-- Generator: Adobe Illustrator 21.0.0, SVG Export Plug-In . SVG Version: 6.00 Build 0)  -->
<svg version="1.1" id="图层_1" xmlns="http://www.w3.org/2000/svg" xmlns:xlink="http://www.w3.org/1999/xlink" x="0px" y="0px"
	 viewBox="0 0 42 34.8" style="enable-background:new 0 0 42 34.8;" xml:space="preserve">
<style type="text/css">
	.st0{clip-path:url(#SVGID_2_);fill:url(#SVGID_3_);}
	.st1{clip-path:url(#SVGID_5_);fill:url(#SVGID_6_);}
	.st2{clip-path:url(#SVGID_8_);fill:#CD9130;}
</style>
<g>
	<defs>
		<path id="SVGID_1_" d="M39.4,11.8c0,0.7,0.6,1.3,1.3,1.3c0.7,0,1.3-0.6,1.3-1.3c0-0.7-0.6-1.3-1.3-1.3
			C39.9,10.5,39.4,11,39.4,11.8 M0,11.5c0,0.7,0.6,1.3,1.3,1.3c0.7,0,1.3-0.6,1.3-1.3c0-0.7-0.6-1.3-1.3-1.3C0.6,10.2,0,10.8,0,11.5
			 M19.8,8.3c-0.6,4.4-6.2,9.4-10.7,10.3c-2.2,0.4-3.5,0-4.3-1.7c-0.1-0.1-0.8-1.4-0.8-1.4c-0.3-0.6-1-0.8-1.5-0.4
			c-0.5,0.3-0.6,0.9-0.4,1.4L9,30.6c0.5,0.9-0.2,2-1.3,2H7.4c-0.6,0-1.1,0.5-1.1,1.2c0.1,0.6,0.6,1,1.1,1h26.7c0.7,0,1.2-0.6,1-1.3
			c-0.1-0.5-0.6-0.8-1.1-0.8c-1,0-1.7-1.1-1.3-2l7.1-14.8c0.3-0.5,0-1.2-0.5-1.4c-0.5-0.3-1.2,0-1.4,0.5c0,0-0.9,1.9-1,2
			c-0.7,1.6-2.1,2.2-4.3,1.7C28.2,17.7,22.6,12.7,22,8.3c0-0.6-0.5-1-1.1-1C20.4,7.4,19.8,7.7,19.8,8.3"/>
	</defs>
	<clipPath id="SVGID_2_">
		<use xlink:href="#SVGID_1_"  style="overflow:visible;"/>
	</clipPath>
	
		<linearGradient id="SVGID_3_" gradientUnits="userSpaceOnUse" x1="0" y1="34.8201" x2="1" y2="34.8201" gradientTransform="matrix(42 0 0 -42 0 1483.5348)">
		<stop  offset="0" style="stop-color:#CD9130"/>
		<stop  offset="0.3366" style="stop-color:#F0DE0E"/>
		<stop  offset="0.5037" style="stop-color:#FFFF00"/>
		<stop  offset="0.6197" style="stop-color:#F5EA09"/>
		<stop  offset="0.8581" style="stop-color:#DDB421"/>
		<stop  offset="1" style="stop-color:#CD9130"/>
	</linearGradient>
	<rect y="7.4" class="st0" width="42" height="27.5"/>
</g>
<g>
	<defs>
		<circle id="SVGID_4_" cx="21" cy="2.6" r="2.6"/>
	</defs>
	<clipPath id="SVGID_5_">
		<use xlink:href="#SVGID_4_"  style="overflow:visible;"/>
	</clipPath>
	
		<linearGradient id="SVGID_6_" gradientUnits="userSpaceOnUse" x1="6.027827e-05" y1="34.8201" x2="1.0001" y2="34.8201" gradientTransform="matrix(5.2526 0 0 -5.2526 18.3737 185.5237)">
		<stop  offset="0" style="stop-color:#CD9130"/>
		<stop  offset="1" style="stop-color:#CD9130"/>
	</linearGradient>
	<rect x="18.4" y="0" class="st1" width="5.3" height="5.3"/>
</g>
<g>
	<defs>
		<rect id="SVGID_7_" y="0" width="42" height="34.8"/>
	</defs>
	<clipPath id="SVGID_8_">
		<use xlink:href="#SVGID_7_"  style="overflow:visible;"/>
	</clipPath>
	<polygon class="st2" points="14.2,29.8 11.1,21.1 13,21.1 15.2,27.5 17.4,21.1 19.2,21.1 16.1,29.8 	"/>
	<rect x="20.1" y="21.1" class="st2" width="1.7" height="8.7"/>
	<path class="st2" d="M23.5,29.8v-8.7h2.8c1.1,0,1.8,0,2.1,0.1c0.5,0.1,0.9,0.4,1.2,0.8c0.3,0.4,0.5,1,0.5,1.7c0,0.5-0.1,1-0.3,1.3
		c-0.2,0.4-0.4,0.6-0.7,0.9c-0.3,0.2-0.6,0.3-0.9,0.4c-0.4,0.1-1,0.1-1.8,0.1h-1.1v3.3H23.5z M25.2,22.6V25h1c0.7,0,1.2,0,1.4-0.1
		c0.2-0.1,0.4-0.2,0.5-0.4c0.1-0.2,0.2-0.4,0.2-0.7c0-0.3-0.1-0.6-0.3-0.8c-0.2-0.2-0.4-0.3-0.7-0.4c-0.2,0-0.6-0.1-1.3-0.1H25.2z"
		/>
</g>
</svg>
