<?xml version="1.0" encoding="utf-8"?>
<!-- Generator: Adobe Illustrator 21.0.0, SVG Export Plug-In . SVG Version: 6.00 Build 0)  -->
<svg version="1.1" id="Layer_1" xmlns="http://www.w3.org/2000/svg" xmlns:xlink="http://www.w3.org/1999/xlink" x="0px" y="0px"
	 viewBox="0 0 4006 2797" style="enable-background:new 0 0 4006 2797;" xml:space="preserve">
<style type="text/css">
	.st0{fill:#DDDDDD;}
</style>
<path class="st0" d="M2511.3,485.3l-5.8-10.1c-0.2-0.4-0.7-0.4-0.9,0l-6.1,10c-2.2,4.7,1.2,10,6.4,10c4.1,0,7-3.3,7-7
	C2511.9,487.2,2511.7,486.2,2511.3,485.3z M2509.2,490.7c-0.7,1.1-2,1.8-3.3,1.8c-0.3,0-0.5-0.2-0.5-0.5c0-0.3,0.2-0.5,0.5-0.5
	c1,0,1.9-0.5,2.5-1.3c0.6-0.8,0.6-1.9,0.2-2.8c-0.1-0.3,0-0.5,0.3-0.7c0.3-0.1,0.6,0,0.7,0.3C2510,488.2,2509.9,489.6,2509.2,490.7z
	"/>
</svg>
