<?xml version="1.0" encoding="utf-8"?>
<!-- Generator: Adobe Illustrator 21.0.0, SVG Export Plug-In . SVG Version: 6.00 Build 0)  -->
<svg version="1.1" id="图层_1" xmlns="http://www.w3.org/2000/svg" xmlns:xlink="http://www.w3.org/1999/xlink" x="0px" y="0px"
	 width="20px" height="15px" viewBox="0 0 20 15" style="enable-background:new 0 0 20 15;" xml:space="preserve">
<style type="text/css">
	.st0{fill:#478afb;}
	.st1{fill:none;stroke:#478afb;stroke-miterlimit:10;}
</style>
<g>
	<g>
		<path class="st0" d="M16.3,2c1,0,1.7,0.7,1.7,1.7v7.7c0,0.9-0.7,1.7-1.7,1.7H3.7C2.7,13,2,12.3,2,11.3V3.7C2,2.7,2.7,2,3.7,2H16.3
			 M16.3,0H3.7C1.6,0,0,1.6,0,3.7v7.7c0,2,1.6,3.7,3.7,3.7h12.7c2,0,3.7-1.6,3.7-3.7V3.7C20,1.6,18.4,0,16.3,0L16.3,0z"/>
	</g>
	<path class="st1" d="M1,1.3l7.5,5.8c0.8,0.6,1.8,0.6,2.6,0l7.8-5.9"/>
</g>
</svg>
