<?xml version="1.0" encoding="utf-8"?>
<!-- Generator: Adobe Illustrator 21.0.0, SVG Export Plug-In . SVG Version: 6.00 Build 0)  -->
<svg version="1.1" id="图层_1" xmlns="http://www.w3.org/2000/svg" xmlns:xlink="http://www.w3.org/1999/xlink" x="0px" y="0px"
	 viewBox="0 0 18.1 23.3" style="enable-background:new 0 0 18.1 23.3;" xml:space="preserve">
<style type="text/css">
	.st0{clip-path:url(#SVGID_2_);fill:#F25657;}
</style>
<g>
	<defs>
		<rect id="SVGID_1_" y="0" width="18.1" height="23.3"/>
	</defs>
	<clipPath id="SVGID_2_">
		<use xlink:href="#SVGID_1_"  style="overflow:visible;"/>
	</clipPath>
	<path class="st0" d="M15.1,9.9c-0.6,0.9-0.8,2.3-0.8,2.3s0.1-1.2-0.7-3.4c-0.8-2.2-1.5-2.9-1.9-4.5C11.1,2.1,12.4,0,12.4,0
		s-5,1-7.2,5.3c-2,3.9-1.2,6.2-1.2,6.2s-0.9-0.8-1.3-1.9C2.2,8.5,2.3,7.5,2.3,7.5s-3.5,3.9-1.8,8.8c1.2,3.5,3.4,5.8,6.1,6.7
		c-1.3-0.7-2.2-2.1-2.2-3.6c-0.1-2.9,1.9-4.3,3.1-6.2c1.7-2.8,1.2-4.5,1.2-4.5s1.4,0.8,2.2,3.8c0.2,0.9,0.3,1.8,0.2,2.6
		c-0.1,2.1-1,4-1,4s1.6-0.3,2-3.2c0.7,0.7,1.4,1.8,1.5,3c0.2,2-1,3.8-2.8,4.6c3.1-0.7,5.2-3.3,6-5.2c1-2.4,0.7-4.5,0.5-6.3
		c-0.2-2.5,0.7-4.4,0.7-4.4S16.4,7.9,15.1,9.9"/>
</g>
</svg>
