<?xml version="1.0" encoding="utf-8"?>
<!-- Generator: Adobe Illustrator 21.0.0, SVG Export Plug-In . SVG Version: 6.00 Build 0)  -->
<svg version="1.1" id="图层_1" xmlns="http://www.w3.org/2000/svg" xmlns:xlink="http://www.w3.org/1999/xlink" x="0px" y="0px"
	 viewBox="0 0 18.5 18.1" style="enable-background:new 0 0 18.5 18.1;" xml:space="preserve">
<style type="text/css">
	.st0{clip-path:url(#SVGID_2_);fill:#FF6666;}
</style>
<g>
	<defs>
		<rect id="SVGID_1_" y="0" width="18.5" height="18.1"/>
	</defs>
	<clipPath id="SVGID_2_">
		<use xlink:href="#SVGID_1_"  style="overflow:visible;"/>
	</clipPath>
	<path class="st0" d="M17.9,1.5L2.1,17.8c-0.5,0.5-1.3,0.5-1.8,0s-0.5-1.3,0-1.8c0,0,0,0,0,0L16.6,0.3c0.4-0.3,0.9-0.3,1.3,0
		C18.2,0.6,18.2,1.2,17.9,1.5"/>
	<path class="st0" d="M1.9,0.3L18.1,16c0.5,0.5,0.5,1.3,0,1.8s-1.3,0.5-1.8,0l0,0L0.6,1.5c-0.3-0.4-0.3-0.9,0-1.3
		C1-0.1,1.5-0.1,1.9,0.3"/>
</g>
</svg>
