<?xml version="1.0" encoding="utf-8"?>
<!-- Generator: Adobe Illustrator 21.0.0, SVG Export Plug-In . SVG Version: 6.00 Build 0)  -->
<svg version="1.1" id="Layer_1" xmlns="http://www.w3.org/2000/svg" xmlns:xlink="http://www.w3.org/1999/xlink" x="0px" y="0px"
	 viewBox="0 0 4006 2797" style="enable-background:new 0 0 4006 2797;" xml:space="preserve">
<style type="text/css">
	.st0{fill:#DDDDDD;}
</style>
<path class="st0" d="M2541.1,486.5c-0.4,0.2-0.7,0.4-1,0.5c-0.4,0.2-0.8,0.3-1.2,0.4l-2.6-2.5c0.1-0.4,0.2-0.8,0.4-1.2
	c0.2-0.4,0.4-0.7,0.6-1.1C2538.3,483,2540.5,483.9,2541.1,486.5z"/>
<path class="st0" d="M2547.7,479.4c-0.6,1.4-1.8,3-3.2,4.4c-0.8,0.8-1.7,1.5-2.5,2.1c-0.7-2.5-2.9-3.7-4.1-4.1
	c0.6-0.9,1.3-1.7,2.1-2.5c1.4-1.4,3-2.6,4.4-3.2c1.5-0.7,2.7-0.7,3.4-0.1C2548.4,476.6,2548.4,477.8,2547.7,479.4z"/>
<g>
	<path class="st0" d="M2537.9,488.6l-2.9-2.9c-0.4-0.2-0.9-0.2-1.4-0.2c-2.5,0-4.5,2-4.5,4.5v4.5h4.5c2.5,0,4.5-2,4.5-4.5
		C2538.1,489.5,2538,489,2537.9,488.6z M2533.6,493.2c-0.3,0-0.5-0.2-0.5-0.5c0-0.3,0.2-0.5,0.5-0.5c1.2,0,2.2-1,2.2-2.2
		c0-0.3,0.2-0.5,0.5-0.5s0.5,0.2,0.5,0.5C2536.8,491.7,2535.3,493.2,2533.6,493.2z"/>
</g>
<g>
	<path class="st0" d="M2544.6,496.2c1.7-4.3,1.2-6.5-1.9-7.7c3,1.2,5,0,6.7-4.3c-1.7,4.3-1.2,6.5,1.9,7.7
		C2548.3,490.6,2546.3,491.9,2544.6,496.2z"/>
</g>
<g>
	<path class="st0" d="M2532.6,483c-1.5-3.2-3-4.1-5.3-3c2.3-1.1,2.6-2.8,1.1-6c1.5,3.2,3,4.1,5.3,3
		C2531.4,478,2531.1,479.8,2532.6,483z"/>
</g>
</svg>
