<?xml version="1.0" encoding="utf-8"?>
<!-- Generator: Adobe Illustrator 21.0.0, SVG Export Plug-In . SVG Version: 6.00 Build 0)  -->
<svg version="1.1" id="图层_1" xmlns="http://www.w3.org/2000/svg" xmlns:xlink="http://www.w3.org/1999/xlink" x="0px" y="0px"
	 width="18px" height="19.8px" viewBox="0 0 18 19.8" style="enable-background:new 0 0 18 19.8;" xml:space="preserve">
<style type="text/css">
	.st0{fill:none;stroke:#478afb;stroke-width:10;stroke-linecap:round;stroke-linejoin:round;stroke-miterlimit:10;}
	.st1{fill:none;stroke:#478afb;stroke-linecap:round;stroke-linejoin:round;stroke-miterlimit:10;}
</style>
<g>
	<g>
		<g transform="scale(0.1953125, 0.1953125)">
			<path class="st0" d="M69.7,96.2L69.7,96.2h-0.5c-10.9-0.6-25.7-10.9-39.5-27.5l-5.1-6.2c-13.8-16.7-21-33-19.3-43.6
				C6.6,11.4,17.7,5.1,24,5.1c3.1,0,4.3,1.6,4.7,2.5c3.6,6.4,8,17.5,8.1,21.5v0.3l-0.1,0.3c-0.8,2.1-2.6,3.1-4.1,4
				c-2.1,1.2-3.2,1.9-3.4,4.1c0,0.7,0.5,3.7,9.6,14.9l3.9,4.7c9.1,10.8,12,11.9,12.7,12c2.2,0.3,3.2-0.7,4.8-2.4
				c1.2-1.3,2.6-2.8,4.8-3.2h0.3l0.3,0.1c4,0.8,14.1,7.4,19.9,12.3c0.8,0.5,2.3,2.2,1.1,5.8C84.8,87.7,76.9,96.2,69.7,96.2
				L69.7,96.2z"/>
		</g>
	</g>
	<line class="st1" x1="4.6" y1="3.1" x2="2.6" y2="4.1"/>
</g>
</svg>
