<?xml version="1.0" encoding="utf-8"?>
<!-- Generator: Adobe Illustrator 21.0.0, SVG Export Plug-In . SVG Version: 6.00 Build 0)  -->
<svg version="1.1" id="图层_1" xmlns="http://www.w3.org/2000/svg" xmlns:xlink="http://www.w3.org/1999/xlink" x="0px" y="0px"
	 viewBox="0 0 28 28" style="enable-background:new 0 0 28 28;" xml:space="preserve">
<style type="text/css">
	.st0{clip-path:url(#SVGID_2_);fill:#3DD0EE;}
</style>
<g>
	<defs>
		<rect id="SVGID_1_" width="28" height="28"/>
	</defs>
	<clipPath id="SVGID_2_">
		<use xlink:href="#SVGID_1_"  style="overflow:visible;"/>
	</clipPath>
	<path class="st0" d="M16.9,16.2c0.4,0,0.7-0.3,0.7-0.7c0-0.4-0.3-0.7-0.7-0.7c-0.4,0-0.7,0.3-0.7,0.7
		C16.2,15.9,16.5,16.2,16.9,16.2"/>
	<path class="st0" d="M0.7,16.2c0.4,0,0.7-0.3,0.7-0.7c0-0.4-0.3-0.7-0.7-0.7c-0.4,0-0.7,0.3-0.7,0.7C0,15.9,0.3,16.2,0.7,16.2"/>
	<path class="st0" d="M0,27.3C0,27.7,0.3,28,0.7,28h7.4c0.4,0,0.7-0.3,0.7-0.7v-7.4c0-0.4-0.3-0.7-0.7-0.7H0.7
		c-0.4,0-0.7,0.3-0.7,0.7V27.3z M1.5,20.6h5.9v5.9H1.5V20.6z"/>
	<path class="st0" d="M8.1,0H0.7C0.3,0,0,0.3,0,0.7v7.4c0,0.4,0.3,0.7,0.7,0.7h7.4c0.4,0,0.7-0.3,0.7-0.7V0.7C8.8,0.3,8.5,0,8.1,0
		 M7.4,7.4H1.5V1.5h5.9V7.4z"/>
	<path class="st0" d="M28,0.7C28,0.3,27.7,0,27.3,0h-7.4c-0.4,0-0.7,0.3-0.7,0.7v7.4c0,0.4,0.3,0.7,0.7,0.7h7.4
		c0.4,0,0.7-0.3,0.7-0.7V0.7z M26.5,7.4h-5.9V1.5h5.9V7.4z"/>
	<path class="st0" d="M28,27.3v-7.4c0-0.4-0.3-0.7-0.7-0.7h-7.4c-0.4,0-0.7,0.3-0.7,0.7v7.4c0,0.4,0.3,0.7,0.7,0.7h7.4
		C27.7,28,28,27.7,28,27.3 M26.5,26.5h-5.9v-5.9h5.9V26.5z"/>
	<path class="st0" d="M5.2,22.1H3.7c-0.4,0-0.7,0.3-0.7,0.7v1.5c0,0.4,0.3,0.7,0.7,0.7h1.5c0.4,0,0.7-0.3,0.7-0.7v-1.5
		C5.9,22.4,5.6,22.1,5.2,22.1"/>
	<path class="st0" d="M3.7,5.9h1.5c0.4,0,0.7-0.3,0.7-0.7V3.7c0-0.4-0.3-0.7-0.7-0.7H3.7c-0.4,0-0.7,0.3-0.7,0.7v1.5
		C2.9,5.6,3.3,5.9,3.7,5.9"/>
	<path class="st0" d="M22.8,5.9h1.5c0.4,0,0.7-0.3,0.7-0.7V3.7c0-0.4-0.3-0.7-0.7-0.7h-1.5c-0.4,0-0.7,0.3-0.7,0.7v1.5
		C22.1,5.6,22.4,5.9,22.8,5.9"/>
	<path class="st0" d="M22.8,25.1h1.5c0.4,0,0.7-0.3,0.7-0.7v-1.5c0-0.4-0.3-0.7-0.7-0.7h-1.5c-0.4,0-0.7,0.3-0.7,0.7v1.5
		C22.1,24.7,22.4,25.1,22.8,25.1"/>
	<path class="st0" d="M2.9,15.5c0,0.4,0.3,0.7,0.7,0.7h9.6v3.7c0,0.4,0.3,0.7,0.7,0.7c0.4,0,0.7-0.3,0.7-0.7v-4.4
		c0-0.4-0.3-0.7-0.7-0.7H3.7C3.3,14.7,2.9,15.1,2.9,15.5"/>
	<path class="st0" d="M8.1,13.3c0.4,0,0.7-0.3,0.7-0.7c0-0.4-0.3-0.7-0.7-0.7H0.7c-0.4,0-0.7,0.3-0.7,0.7c0,0.4,0.3,0.7,0.7,0.7H8.1
		z"/>
	<path class="st0" d="M11.1,13.3H14c0.4,0,0.7-0.3,0.7-0.7c0-0.4-0.3-0.7-0.7-0.7h-2.9c-0.4,0-0.7,0.3-0.7,0.7
		C10.3,12.9,10.6,13.3,11.1,13.3"/>
	<path class="st0" d="M11.1,0c-0.4,0-0.7,0.3-0.7,0.7v7.4c0,0.4,0.3,0.7,0.7,0.7h5.2v3.7c0,0.4,0.3,0.7,0.7,0.7h2.9
		c0.4,0,0.7-0.3,0.7-0.7s-0.3-0.7-0.7-0.7h-2.2V8.1c0-0.4-0.3-0.7-0.7-0.7h-5.2V0.7C11.8,0.3,11.5,0,11.1,0"/>
	<path class="st0" d="M27.3,11.8h-4.4c-0.4,0-0.7,0.3-0.7,0.7s0.3,0.7,0.7,0.7h4.4c0.4,0,0.7-0.3,0.7-0.7S27.7,11.8,27.3,11.8"/>
	<path class="st0" d="M27.3,14.7h-7.4c-0.4,0-0.7,0.3-0.7,0.7c0,0.4,0.3,0.7,0.7,0.7h7.4c0.4,0,0.7-0.3,0.7-0.7
		C28,15.1,27.7,14.7,27.3,14.7"/>
	<path class="st0" d="M14,22.1h-2.9c-0.4,0-0.7,0.3-0.7,0.7v4.4c0,0.4,0.3,0.7,0.7,0.7c0.4,0,0.7-0.3,0.7-0.7v-3.7H14
		c0.4,0,0.7-0.3,0.7-0.7C14.7,22.4,14.4,22.1,14,22.1"/>
	<path class="st0" d="M16.2,26.5H14c-0.4,0-0.7,0.3-0.7,0.7c0,0.4,0.3,0.7,0.7,0.7h2.9c0.4,0,0.7-0.3,0.7-0.7v-8.8
		c0-0.4-0.3-0.7-0.7-0.7s-0.7,0.3-0.7,0.7V26.5z"/>
	<path class="st0" d="M16.9,5.9c0.4,0,0.7-0.3,0.7-0.7V0.7c0-0.4-0.3-0.7-0.7-0.7c-0.4,0-0.7,0.3-0.7,0.7v3.7H14
		c-0.4,0-0.7,0.3-0.7,0.7s0.3,0.7,0.7,0.7H16.9z"/>
</g>
</svg>
