<?xml version="1.0" encoding="utf-8"?>
<!-- Generator: Adobe Illustrator 21.0.0, SVG Export Plug-In . SVG Version: 6.00 Build 0)  -->
<svg version="1.1" id="图层_1" xmlns="http://www.w3.org/2000/svg" xmlns:xlink="http://www.w3.org/1999/xlink" x="0px" y="0px"
	 viewBox="0 0 638.9 521.3" style="enable-background:new 0 0 638.9 521.3;" xml:space="preserve">
<style type="text/css">
	.st0{clip-path:url(#SVGID_2_);}
	.st1{clip-path:url(#SVGID_4_);fill:#FF3334;}
	.st2{opacity:0.1;clip-path:url(#SVGID_6_);enable-background:new    ;}
	.st3{clip-path:url(#SVGID_8_);}
	.st4{filter:url(#Adobe_OpacityMaskFilter);}
	.st5{clip-path:url(#SVGID_10_);fill:url(#SVGID_12_);}
	.st6{clip-path:url(#SVGID_10_);mask:url(#SVGID_11_);fill:url(#SVGID_13_);}
	.st7{clip-path:url(#SVGID_15_);}
	.st8{filter:url(#Adobe_OpacityMaskFilter_1_);}
	.st9{clip-path:url(#SVGID_17_);fill:url(#SVGID_19_);}
	.st10{clip-path:url(#SVGID_17_);mask:url(#SVGID_18_);fill:url(#SVGID_20_);}
	.st11{clip-path:url(#SVGID_22_);fill:#FF3334;}
	.st12{clip-path:url(#SVGID_22_);fill:#FFFFFF;}
</style>
<g>
	<defs>
		<rect id="SVGID_1_" width="638.9" height="521.3"/>
	</defs>
	<clipPath id="SVGID_2_">
		<use xlink:href="#SVGID_1_"  style="overflow:visible;"/>
	</clipPath>
	<g class="st0">
		<defs>
			<rect id="SVGID_3_" width="638.9" height="521.3"/>
		</defs>
		<clipPath id="SVGID_4_">
			<use xlink:href="#SVGID_3_"  style="overflow:visible;"/>
		</clipPath>
		<path class="st1" d="M82.4,215.6c25-98.5,125.2-158,223.7-133c98.5,25,158,125.2,133,223.7c-25,98.5-125.2,158-223.7,133
			C116.8,414.2,57.3,314,82.4,215.6"/>
		<path class="st1" d="M82.4,215.6c25-98.5,125.2-158,223.7-133c98.5,25,158,125.2,133,223.7c-25,98.5-125.2,158-223.7,133
			C116.8,414.2,57.3,314,82.4,215.6"/>
	</g>
	<g class="st0">
		<defs>
			<path id="SVGID_5_" d="M82.4,215.6c-25,98.5,34.5,198.6,133,223.7c98.5,25,198.6-34.5,223.7-133c25-98.5-34.5-198.6-133-223.7
				c-15.2-3.9-30.5-5.7-45.5-5.7C178.4,76.9,103.5,132.3,82.4,215.6"/>
		</defs>
		<clipPath id="SVGID_6_">
			<use xlink:href="#SVGID_5_"  style="overflow:visible;"/>
		</clipPath>
		<g class="st2">
			<g>
				<defs>
					<rect id="SVGID_7_" x="103.7" y="47.9" width="376" height="247.4"/>
				</defs>
				<clipPath id="SVGID_8_">
					<use xlink:href="#SVGID_7_"  style="overflow:visible;"/>
				</clipPath>
				<g class="st3">
					<defs>
						<path id="SVGID_9_" d="M307.5,52.7c114.6,24.2,159.8,135,172.2,225.2c-145,50.8-305.4-12.8-376-149.2
							C144.7,76.7,225.9,33.1,307.5,52.7"/>
					</defs>
					<clipPath id="SVGID_10_">
						<use xlink:href="#SVGID_9_"  style="overflow:visible;"/>
					</clipPath>
					<defs>
						<filter id="Adobe_OpacityMaskFilter" filterUnits="userSpaceOnUse" x="-9.3" y="-110.7" width="602" height="583">
							<feColorMatrix  type="matrix" values="1 0 0 0 0  0 1 0 0 0  0 0 1 0 0  0 0 0 1 0"/>
						</filter>
					</defs>
					<mask maskUnits="userSpaceOnUse" x="-9.3" y="-110.7" width="602" height="583" id="SVGID_11_">
						<g class="st4">
							
								<linearGradient id="SVGID_12_" gradientUnits="userSpaceOnUse" x1="0" y1="521.392" x2="1" y2="521.392" gradientTransform="matrix(90.54 -194.78 -194.78 -90.54 101831.1016 47424.9844)">
								<stop  offset="0" style="stop-color:#FFFFFF"/>
								<stop  offset="1" style="stop-color:#000000"/>
							</linearGradient>
							<polygon class="st5" points="-9.3,276.1 170.5,-110.7 592.7,85.6 412.9,472.4 							"/>
						</g>
					</mask>
					
						<linearGradient id="SVGID_13_" gradientUnits="userSpaceOnUse" x1="0" y1="521.392" x2="1" y2="521.392" gradientTransform="matrix(90.54 -194.78 -194.78 -90.54 101831.1016 47424.9844)">
						<stop  offset="0" style="stop-color:#FFFFFF"/>
						<stop  offset="1" style="stop-color:#FFFFFF"/>
					</linearGradient>
					<polygon class="st6" points="-9.3,276.1 170.5,-110.7 592.7,85.6 412.9,472.4 					"/>
				</g>
			</g>
		</g>
		<g class="st2">
			<g>
				<defs>
					<rect id="SVGID_14_" x="234.1" y="46.6" width="235.3" height="376.8"/>
				</defs>
				<clipPath id="SVGID_15_">
					<use xlink:href="#SVGID_14_"  style="overflow:visible;"/>
				</clipPath>
				<g class="st7">
					<defs>
						<path id="SVGID_16_" d="M469.1,272.1c-3,41.4-24.4,114-71.8,151.4c-134.8-72-196.6-231.8-145.2-375.8
							C317.5,37.5,477.1,103.1,469.1,272.1"/>
					</defs>
					<clipPath id="SVGID_17_">
						<use xlink:href="#SVGID_16_"  style="overflow:visible;"/>
					</clipPath>
					<defs>
						<filter id="Adobe_OpacityMaskFilter_1_" filterUnits="userSpaceOnUse" x="75.6" y="-52.1" width="526.5" height="565.1">
							<feColorMatrix  type="matrix" values="1 0 0 0 0  0 1 0 0 0  0 0 1 0 0  0 0 0 1 0"/>
						</filter>
					</defs>
					<mask maskUnits="userSpaceOnUse" x="75.6" y="-52.1" width="526.5" height="565.1" id="SVGID_18_">
						<g class="st8">
							
								<linearGradient id="SVGID_19_" gradientUnits="userSpaceOnUse" x1="0" y1="521.3475" x2="1" y2="521.3475" gradientTransform="matrix(192.24 -70.7002 -70.7002 -192.24 37118.0703 100483.8047)">
								<stop  offset="0" style="stop-color:#FFFFFF"/>
								<stop  offset="1" style="stop-color:#000000"/>
							</linearGradient>
							<polygon class="st9" points="75.6,83.5 444.1,-52.1 602.1,377.5 233.6,513 							"/>
						</g>
					</mask>
					
						<linearGradient id="SVGID_20_" gradientUnits="userSpaceOnUse" x1="0" y1="521.3475" x2="1" y2="521.3475" gradientTransform="matrix(192.24 -70.7002 -70.7002 -192.24 37118.0703 100483.8047)">
						<stop  offset="0" style="stop-color:#FFFFFF"/>
						<stop  offset="1" style="stop-color:#FFFFFF"/>
					</linearGradient>
					<polygon class="st10" points="75.6,83.5 444.1,-52.1 602.1,377.5 233.6,513 					"/>
				</g>
			</g>
		</g>
	</g>
	<g class="st0">
		<defs>
			<rect id="SVGID_21_" width="638.9" height="521.3"/>
		</defs>
		<clipPath id="SVGID_22_">
			<use xlink:href="#SVGID_21_"  style="overflow:visible;"/>
		</clipPath>
		<path class="st11" d="M513.3,324.9C548.7,185.3,464.5,43.5,324.9,8.1S43.5,57.1,8.1,196.5s48.8,281.4,188.4,316.8
			C336.1,548.7,477.9,464.5,513.3,324.9 M37.9,203.9C69.1,80.7,194.3,6.3,317.5,37.7s197.6,156.4,166.2,279.6
			c-31.2,123-156.4,197.4-279.4,166.2h-0.2C81.1,452.1,6.7,327.1,37.9,203.9"/>
		<path class="st11" d="M553.1,108.3L553.1,108.3l-0.4,0.4c-78,77-78.6,202.8-1.6,280.6l0.2,0.2c9.4,9.4,19.6,17.8,30.6,25.2
			c6.8,4.6,16.2,2.8,20.8-4c4-6,3.2-14-2-19c-71-69.4-79.8-180.4-20.8-260.2c5.8-7.8,4.4-18.8-3.4-24.8
			C569.3,101.5,559.5,102.1,553.1,108.3"/>
		<path class="st12" d="M614.9,35.3c-19.4,0-35,15.6-35,35c0,19.4,15.6,35,35,35h2.6c9.6-1,16.4-9.6,15.4-19.2v-0.2
			c-0.4-2.8-1.4-5.6-3-8v-0.2c-6.8-10-4.2-23.6,5.6-30.4c1-0.8,2.2-1.4,3.4-2C632.7,38.9,623.9,35.3,614.9,35.3"/>
	</g>
</g>
</svg>
