<?xml version="1.0" encoding="utf-8"?>
<!-- Generator: Adobe Illustrator 21.0.0, SVG Export Plug-In . SVG Version: 6.00 Build 0)  -->
<svg version="1.1" id="Layer_1" xmlns="http://www.w3.org/2000/svg" xmlns:xlink="http://www.w3.org/1999/xlink" x="0px" y="0px"
	 viewBox="0 0 4006 2797" style="enable-background:new 0 0 4006 2797;" xml:space="preserve">
<style type="text/css">
	.st0{fill:#DDDDDD;}
</style>
<path class="st0" d="M2571.5,486.3c1.9,0.7,4.1,0.3,5.6-1.3c1.5-1.5,1.9-3.7,1.3-5.6l-2.9,2.9l-3.3-3.3l2.9-2.9
	c-1.9-0.7-4.1-0.3-5.6,1.3c-1.5,1.5-1.9,3.7-1.3,5.6"/>
<path class="st0" d="M2565.6,485l-5.1,5.1c-1.1,1.1-1.1,2.8,0,3.9c1.1,1.1,2.8,1.1,3.9,0l5.1-5.1L2565.6,485z M2563,493
	c-0.2,0.2-0.5,0.2-0.6,0c-0.2-0.2-0.2-0.5,0-0.6l3.5-3.5c0.2-0.2,0.5-0.2,0.7,0c0.2,0.2,0.2,0.5,0,0.7L2563,493z"/>
<rect x="2562.2" y="484" transform="matrix(0.7071 0.7071 -0.7071 0.7071 1094.6052 -1673.5051)" class="st0" width="10.4" height="1.2"/>
<path class="st0" d="M2577.9,490.9l-3.7-3.7l-4.1,4.1l3.7,3.7c0.6,0.6,1.3,0.9,2,0.9c0.7,0,1.5-0.3,2-0.9
	C2579.1,493.9,2579.1,492,2577.9,490.9z M2576.3,493.4l-2.5-2.5c-0.2-0.2-0.2-0.6,0-0.8c0.2-0.2,0.6-0.2,0.8,0l2.5,2.5
	c0.2,0.2,0.2,0.6,0,0.8C2576.9,493.6,2576.5,493.6,2576.3,493.4z"/>
<polygon class="st0" points="2562,481.5 2559.5,477.4 2560.3,476.6 2564.4,479 "/>
</svg>
