<?xml version="1.0" encoding="utf-8"?>
<!-- Generator: Adobe Illustrator 22.0.1, SVG Export Plug-In . SVG Version: 6.00 Build 0)  -->
<svg version="1.1" id="背景" xmlns="http://www.w3.org/2000/svg" xmlns:xlink="http://www.w3.org/1999/xlink" x="0px" y="0px"
	 width="33.6px" height="48.7px" viewBox="0 0 33.6 48.7" style="enable-background:new 0 0 33.6 48.7;" xml:space="preserve">
<style type="text/css">
	.st0{fill:#3B404D;}
	.st1{fill:#FFD7A5;}
	.st2{fill:#4185F4;}
	.st3{fill:#E9F2FE;}
	.st4{fill:#FFD8A5;}
</style>
<path class="st0" d="M28.3,15.5V36H4.8V15.5C4.8,9,10.1,3.8,16.6,3.8S28.3,9,28.3,15.5L28.3,15.5z M28.3,15.5"/>
<path class="st1" d="M25.8,19.3v2.6c0,4.8-3.6,8.7-8.3,9.2c-0.3,0-0.6,0.1-1,0.1c-5.1,0-9.2-4.1-9.2-9.2v-2.6c0-5.1,4.1-9.2,9.2-9.2
	c0.3,0,0.7,0,1,0.1c2.2,0.2,4.1,1.2,5.6,2.7C24.8,14.4,25.8,16.8,25.8,19.3L25.8,19.3z M25.8,19.3"/>
<path class="st0" d="M27,18.9c-9,0-14.7-5.2-14.7-5.2c0,0.9-0.7,2-1.7,2.9c-1.4,1.2-3.2,2.1-4.2,1.6l-0.3-2.8l2.2-4.6l3.2-0.8l6-1.5
	l7.4,2.9L27,18.9z M27,18.9"/>
<path class="st2" d="M30.3,18.3h-2.1v-4.5c0-6.4-5.2-11.6-11.6-11.6C10.2,2.1,5,7.3,5,13.7v4.5H2.8v-4.5C2.8,6.2,9,0,16.6,0
	s13.7,6.2,13.7,13.7V18.3z M30.3,18.3"/>
<path class="st2" d="M27.7,28.2h-2.2V26h2.2c0.3,0,0.5-0.2,0.5-0.5v-2.2h2.1v2.2C30.3,27,29.1,28.2,27.7,28.2L27.7,28.2z M27.7,28.2
	"/>
<path class="st2" d="M30.2,13.2h-1.8c-1,0-1.9,0.8-1.9,1.9v6.3c0,1,0.8,1.9,1.9,1.9h1.8c1,0,1.9-0.8,1.9-1.9v-6.3
	C32.1,14.1,31.2,13.2,30.2,13.2L30.2,13.2z M30.2,13.2"/>
<path class="st2" d="M4.8,13.2H3c-1,0-1.9,0.8-1.9,1.9v6.3c0,1,0.8,1.9,1.9,1.9h1.8c1,0,1.9-0.8,1.9-1.9v-6.3
	C6.7,14.1,5.9,13.2,4.8,13.2L4.8,13.2z M4.8,13.2"/>
<path class="st3" d="M25.4,25.2h-1.1c-1,0-1.9,0.8-1.9,1.9c0,1,0.8,1.9,1.9,1.9h1.1c1,0,1.9-0.8,1.9-1.9
	C27.3,26,26.4,25.2,25.4,25.2L25.4,25.2z M25.4,25.2"/>
<path class="st2" d="M0,44.5l5.4-11C6,32.9,7,32.5,8.1,32.5h0h17h0c1,0,2,0.4,2.6,1.1l5.9,9.8C33.6,43.4,22.7,54.6,0,44.5z"/>
<path class="st4" d="M20.1,28.9v3.9c-1.6,2.8-5.5,2.8-7.1,0v-3.9H20.1z M20.1,28.9"/>
</svg>
