<?xml version="1.0" encoding="utf-8"?>
<!-- Generator: Adobe Illustrator 22.0.1, SVG Export Plug-In . SVG Version: 6.00 Build 0)  -->
<svg version="1.1" id="背景" xmlns="http://www.w3.org/2000/svg" xmlns:xlink="http://www.w3.org/1999/xlink" x="0px" y="0px"
	 width="38.1px" height="38.1px" viewBox="0 0 38.1 38.1" style="enable-background:new 0 0 38.1 38.1;" xml:space="preserve">
<style type="text/css">
	.st0{opacity:0.2;fill:#FAC51E;}
	.st1{fill:#FAC51E;}
	.st2{fill:#FFEE12;}
</style>
<circle class="st0" cx="19.1" cy="19.1" r="19.1"/>
<circle class="st1" cx="19.1" cy="19.1" r="10.8"/>
<circle class="st2" cx="19.1" cy="19.1" r="7.7"/>
<path class="st1" d="M20.6,18.2h-2.7V17h3.3c0.5,0,0.9-0.4,0.9-0.9c0-0.5-0.4-0.9-0.9-0.9h-1.2v-0.8c0-0.5-0.4-0.9-0.9-0.9
	c-0.5,0-0.9,0.4-0.9,0.9v0.8h-0.6c-0.8,0-1.4,0.6-1.4,1.4v1.8c0,0.8,0.6,1.4,1.4,1.4h2.7v1.2H17c-0.5,0-0.9,0.4-0.9,0.9
	s0.4,0.9,0.9,0.9h1.2v0.7c0,0.5,0.4,0.9,0.9,0.9c0.5,0,0.9-0.4,0.9-0.9v-0.7h0.6c0.8,0,1.4-0.6,1.4-1.4v-1.8
	C22,18.9,21.4,18.2,20.6,18.2z"/>
</svg>
