<?xml version="1.0" encoding="utf-8"?>
<!-- Generator: Adobe Illustrator 22.0.1, SVG Export Plug-In . SVG Version: 6.00 Build 0)  -->
<svg version="1.1" id="图层_1" xmlns="http://www.w3.org/2000/svg" xmlns:xlink="http://www.w3.org/1999/xlink" x="0px" y="0px"
	 width="58.5px" height="19.2px" viewBox="0 0 58.5 19.2" style="enable-background:new 0 0 58.5 19.2;" xml:space="preserve">
<style type="text/css">
	.st0{fill:#FFFFFF;}
	.st1{filter:url(#Adobe_OpacityMaskFilter);}
	.st2{mask:url(#mask-2_2_);fill:#FFFFFF;}
	.st3{fill:#0199D8;}
	.st4{fill:#243983;}
</style>
<g id="分组" transform="translate(201.000000, 14.000000)">
	<path id="Fill-1" class="st0" d="M-156.8,1.5c-1.2,0-2.2-0.4-3-1.1c-0.9-0.8-1.3-1.8-1.3-3c0-0.1,0-0.1,0-0.2
		c-0.9,0.3-1.9,0.4-2.9,0.4l-0.3,1.5c-0.3,1.3-1.5,2.2-2.7,2.2c0,0-1.6,0-1.6,0c-0.8,0-1.5-0.3-2-1c-0.5-0.6-0.6-1.4-0.4-2.1l2.3-10
		c0.3-1.2,1.4-2.2,2.7-2.2l3.4,0c0.8,0,1.6,0.1,2.3,0.2c0.8,0.1,1.5,0.4,2.1,0.8c0.7,0.5,1.3,1,1.6,1.7c0,0,0,0.1,0.1,0.1
		c0.3-0.1,0.4-0.1,0.9-0.2c0.7-0.1,1.5-0.2,2.3-0.2c1.7,0,3,0.3,3.9,0.8c0.1,0,0.1,0.1,0.2,0.1l0.3-1.1c0.1-0.2,0.1-0.4,0.3-0.6
		l0-0.1c0.5-0.9,1.4-1.5,2.4-1.5h1.5c0.8,0,1.5,0.3,2,0.9c0.4,0.5,0.6,1.2,0.5,1.9c0,0.1,0,0.2,0,0.3l-2.2,9.9
		c-0.1,0.2-0.1,0.5-0.3,0.7l0,0c-0.5,0.9-1.4,1.5-2.4,1.5h-1.5c-0.3,0-0.6-0.1-0.9-0.2c-0.1-0.1-0.3-0.1-0.4-0.2
		c-0.3,0.2-0.6,0.3-1,0.4c-0.1,0-0.3,0-0.4,0h-1.5c-0.1,0-0.2,0-0.3,0c-0.2,0-0.5-0.1-0.7-0.2c0,0-0.8,0.3-0.8,0.3c0,0-0.1,0-0.1,0
		C-155.6,1.5-156.1,1.5-156.8,1.5L-156.8,1.5z"/>
	<g transform="translate(0.000000, 0.237300)">
		<g id="Clip-4">
		</g>
		<defs>
			<filter id="Adobe_OpacityMaskFilter" filterUnits="userSpaceOnUse" x="-201" y="-14.2" width="15.1" height="15.2">
				<feColorMatrix  type="matrix" values="1 0 0 0 0  0 1 0 0 0  0 0 1 0 0  0 0 0 1 0"/>
			</filter>
		</defs>
		<mask maskUnits="userSpaceOnUse" x="-201" y="-14.2" width="15.1" height="15.2" id="mask-2_2_">
			<g class="st1">
				<polygon id="path-1_2_" class="st0" points="-201,-14.2 -185.9,-14.2 -185.9,1 -201,1 				"/>
			</g>
		</mask>
		<path id="Fill-3" class="st2" d="M-198.5,1c-0.8,0-1.5-0.4-2-1c-0.5-0.6-0.6-1.4-0.4-2.2l2.3-9.9c0.3-1.3,1.5-2.2,2.7-2.2l3.4,0
			c0.9,0,1.6,0.1,2.3,0.2c0.8,0.2,1.5,0.4,2.1,0.8c0.7,0.4,1.2,1,1.6,1.7c0.4,0.7,0.5,1.5,0.5,2.4c0,2-0.9,3.7-2.5,4.9
			c-1.4,1-3.2,1.5-5.4,1.6l-0.3,1.5c-0.3,1.3-1.4,2.2-2.7,2.2H-198.5z"/>
	</g>
	<path id="Fill-5" class="st0" d="M-178.5,5.2c-0.9,0-1.7-0.4-2.1-1.2c-0.4-0.8-0.4-1.7,0.1-2.5l1.2-2.1c0,0,0-0.1,0-0.1
		c-0.2-1.3-1.2-7.2-1.3-7.7c-0.2-0.7,0-1.5,0.5-2.1c0.5-0.6,1.2-0.9,2-0.9l1.5,0c1.2,0,2.2,0.7,2.7,1.7c0-0.1,0.1-0.2,0.1-0.2
		c0.6-0.9,1.7-1.5,2.7-1.5h1.9c0.9,0,1.6,0.4,2,1.2c0.4,0.8,0.3,1.8-0.3,2.8l-6.5,11c-0.6,1-1.7,1.6-2.7,1.6
		C-176.8,5.2-178.5,5.2-178.5,5.2"/>
	<path id="Fill-7" class="st0" d="M-186.5,1.5c-1.2,0-2.3-0.4-3.1-1.1c-0.9-0.8-1.3-1.9-1.3-3c0-1.1,0.3-2,0.8-2.8
		c0.3-0.4,0.7-0.8,1.1-1.2c-0.1-0.4-0.2-0.8,0-1.4l0.2-0.8c0.2-1,1-2,2.3-2.3c0.3-0.1,0.4-0.1,0.9-0.2c0.8-0.1,1.6-0.2,2.3-0.2
		c1.7,0,3,0.2,3.9,0.8c1.2,0.7,2,1.9,1.9,3.4c0,0,0,0.5,0,0.5c0,0-0.1,0.5-0.1,0.5c0,0.1,0,0.1,0,0.2l-1.2,5.2
		c-0.2,1.1-1.2,1.9-2.3,2.1c-0.1,0-0.3,0-0.4,0h-1.5c-0.2,0-0.4,0-0.6-0.1c-0.2,0-0.3-0.1-0.4-0.2l-0.8,0.3c-0.1,0-0.1,0-0.2,0.1
		C-185.4,1.5-185.8,1.5-186.5,1.5"/>
	<path id="Fill-9" class="st3" d="M-144.6-11.3L-144.6-11.3l-2.2,9.9l-0.1,0.1c-0.1,0.3-0.4,0.5-0.7,0.5h-1.5l0,0
		c-0.3,0-0.5-0.3-0.4-0.6l0,0l0.1-0.3l2-9.3l0.1-0.3l0.1-0.1c0.1-0.3,0.4-0.5,0.7-0.5h1.5C-144.7-11.9-144.5-11.6-144.6-11.3
		 M-153.3-3.1l-0.3,0.3l-0.6,0.3c-0.3,0.1-0.6,0.2-0.9,0.2c-0.4,0-0.7-0.1-0.9-0.2l-0.3-0.6c0-0.3,0.1-0.6,0.2-0.8
		c0.2-0.2,0.4-0.4,0.7-0.5c0.3-0.1,0.7-0.2,1.1-0.2c0.4,0,1.1-0.1,1.2-0.1l0.1,0.2C-153-4.4-153.2-3.5-153.3-3.1 M-150.7-8.9
		c-0.6-0.3-1.6-0.5-2.9-0.5c-0.7,0-1.3,0.1-2,0.2c-0.5,0.1-0.5,0.1-0.8,0.2c-0.6,0.1-0.7,0.8-0.7,0.8l-0.2,0.8
		c-0.1,0.5,0.2,0.5,0.3,0.5c0.3-0.1,0.4-0.2,1-0.3c0.5-0.1,1.1-0.2,1.5-0.2c0.7,0,1.2,0.1,1.5,0.2c0.3,0.1,0.5,0.4,0.5,0.7l0,0.2
		l-0.2,0.1c-0.9,0.1-1.6,0.1-2.4,0.3c-0.8,0.1-1.5,0.3-2.1,0.6c-0.6,0.3-1.1,0.6-1.4,1.1c-0.3,0.5-0.5,1-0.5,1.7
		c0,0.6,0.2,1.2,0.7,1.6c0.4,0.4,1,0.6,1.7,0.6c0.4,0,0.8,0,1-0.1l0.8-0.3l0.7-0.4l0.6-0.4l0,0l-0.1,0.3l0,0l0,0
		c-0.1,0.3,0.1,0.6,0.4,0.6l0,0h0h1.3h0.2l0,0c0.3,0,0.6-0.3,0.7-0.6l1.2-5.2l0.1-0.4l0-0.4C-149.7-8-150.1-8.6-150.7-8.9
		 M-162.1-7.1c-0.5,0.4-1.2,0.5-2.1,0.5h-0.4c-0.4,0-0.6-0.3-0.5-0.6l0.5-2.1c0.1-0.3,0.4-0.6,0.8-0.6l0.5,0c0.6,0,1.1,0.1,1.4,0.3
		c0.3,0.2,0.5,0.5,0.5,1C-161.4-7.9-161.6-7.4-162.1-7.1 M-158.6-10.3c-0.2-0.4-0.5-0.7-0.9-1c-0.4-0.2-0.9-0.4-1.4-0.5
		c-0.5-0.1-1.2-0.1-1.9-0.2l-3.4,0c-0.4,0-0.7,0.3-0.8,0.6l-2.3,10c-0.1,0.3,0.1,0.6,0.5,0.6l1.6,0c0.3,0,0.7-0.3,0.8-0.6l0.6-2.4
		c0.1-0.3,0.4-0.6,0.8-0.6h0.5c2,0,3.6-0.4,4.7-1.2c1.1-0.8,1.7-1.9,1.7-3.2C-158.3-9.4-158.4-9.9-158.6-10.3"/>
	<path id="Fill-11" class="st4" d="M-191.8-7.1c-0.5,0.4-1.2,0.5-2.1,0.5h-0.4c-0.4,0-0.6-0.3-0.5-0.6l0.5-2.1
		c0.1-0.3,0.4-0.6,0.8-0.6h0.5c0.6,0,1.1,0.1,1.4,0.3c0.3,0.2,0.5,0.5,0.5,1C-191-8-191.3-7.4-191.8-7.1 M-188.2-10.4
		c-0.2-0.4-0.5-0.7-0.9-1c-0.4-0.3-0.9-0.4-1.4-0.5c-0.6-0.1-1.2-0.2-1.9-0.2l-3.4,0c-0.4,0-0.7,0.3-0.8,0.6l-2.3,10
		c-0.1,0.3,0.1,0.6,0.5,0.6h1.6c0.4,0,0.7-0.3,0.8-0.6l0.6-2.4c0.1-0.3,0.4-0.6,0.8-0.6h0.5c2,0,3.6-0.4,4.7-1.2
		c1.1-0.8,1.7-1.9,1.7-3.2C-187.9-9.5-188-10-188.2-10.4"/>
	<path id="Fill-13" class="st4" d="M-169.3-8.4l-6.5,11c-0.2,0.3-0.7,0.6-1,0.6l-1.7,0c-0.4,0-0.5-0.3-0.3-0.6l1.4-2.5
		c0,0,0.1-0.1,0-1c-0.2-1.5-1.3-7.8-1.3-7.8c-0.1-0.3,0.1-0.6,0.5-0.6l1.5,0c0.4,0,0.8,0.3,0.9,0.6l0.7,4.4l0.3,0
		c0.2-0.4,2.6-4.4,2.6-4.4c0.2-0.3,0.7-0.6,1-0.6c0,0,1.6,0,2,0C-168.7-9.3-169.3-8.4-169.3-8.4"/>
	<path id="Fill-15" class="st4" d="M-183-3.1l-0.3,0.3l-0.6,0.3c-0.3,0.1-0.6,0.2-0.9,0.2c-0.4,0-0.7-0.1-0.9-0.2l-0.3-0.6
		c0-0.3,0.1-0.6,0.2-0.8l0.7-0.5c0.3-0.1,0.7-0.2,1.1-0.2c0.4-0.1,1.1-0.1,1.2-0.1l0.1,0.2C-182.7-4.4-182.9-3.5-183-3.1
		 M-180.4-8.9c-0.6-0.4-1.6-0.5-2.9-0.5c-0.7,0-1.3,0.1-2,0.2c-0.5,0.1-0.5,0.1-0.8,0.2c-0.6,0.1-0.7,0.8-0.7,0.8l-0.2,0.8
		c-0.1,0.5,0.2,0.5,0.3,0.5c0.3-0.1,0.4-0.2,1-0.3c0.5-0.1,1.1-0.2,1.5-0.2c0.7,0,1.2,0.1,1.5,0.2c0.3,0.2,0.5,0.4,0.5,0.8l0,0.2
		l-0.2,0.1c-0.9,0.1-1.6,0.2-2.4,0.3c-0.8,0.1-1.5,0.3-2.1,0.6c-0.6,0.3-1.1,0.7-1.4,1.1c-0.3,0.5-0.5,1-0.5,1.7
		c0,0.6,0.2,1.1,0.7,1.6c0.4,0.4,1,0.6,1.7,0.6c0.4,0,0.8,0,1-0.1l0.8-0.3l0.7-0.4l0.6-0.4l0,0l-0.1,0.3l0,0c0,0,0,0.1,0,0.1
		c0,0.3,0.2,0.5,0.4,0.5l0,0h1.5l0,0c0.3,0,0.6-0.3,0.7-0.6l1.2-5.2l0.1-0.4l0-0.4C-179.4-8-179.7-8.6-180.4-8.9"/>
</g>
</svg>
