<?xml version="1.0" encoding="utf-8"?>
<!-- Generator: Adobe Illustrator 22.0.1, SVG Export Plug-In . SVG Version: 6.00 Build 0)  -->
<svg version="1.1" id="背景" xmlns="http://www.w3.org/2000/svg" xmlns:xlink="http://www.w3.org/1999/xlink" x="0px" y="0px"
	 width="38.1px" height="38.1px" viewBox="0 0 38.1 38.1" style="enable-background:new 0 0 38.1 38.1;" xml:space="preserve">
<style type="text/css">
	.st0{fill:#F4FCF7;}
	.st1{fill:#97F43D;}
	.st2{fill:#70DA40;}
	.st3{fill:#FFFFFF;}
</style>
<circle class="st0" cx="19.1" cy="19.1" r="19.1"/>
<g>
	<g>
		<path class="st1" d="M28.8,9.4h-1.9c-2.7,0-5.3-1-7.3-2.8c-0.1-0.1-0.4-0.2-0.6-0.2c-0.2,0-0.4,0.1-0.6,0.2
			c-1.9,1.8-4.5,2.8-7.3,2.8H9.3c-0.5,0-0.8,0.3-0.8,0.7v9c0,6.7,5.3,9.8,8.8,11.9c0.5,0.3,0.9,0.5,1.3,0.8c0.1,0.1,0.3,0.1,0.5,0.1
			c0.2,0,0.3,0,0.5-0.1c0.4-0.2,0.8-0.5,1.2-0.7c3.5-2,8.8-5.2,8.8-11.9v-9C29.6,9.7,29.3,9.4,28.8,9.4z"/>
		<path class="st2" d="M26.6,11.6h-1.5c-2.1,0-4.1-0.8-5.6-2.2c-0.1-0.1-0.3-0.2-0.4-0.2c-0.2,0-0.3,0.1-0.4,0.2
			c-1.5,1.4-3.5,2.2-5.6,2.2h-1.5c-0.4,0-0.6,0.3-0.6,0.6v6.9c0,5.2,4.1,7.6,6.8,9.2c0.4,0.2,0.7,0.4,1,0.6c0.1,0.1,0.2,0.1,0.4,0.1
			c0.1,0,0.2,0,0.4-0.1c0.3-0.2,0.6-0.4,1-0.6c2.7-1.6,6.8-4,6.8-9.2v-6.9C27.2,11.8,26.9,11.6,26.6,11.6z"/>
	</g>
	<g>
		<path class="st3" d="M19.1,14c-2.8,0-5.1,2.3-5.1,5.1c0,2.8,2.3,5.1,5.1,5.1s5.1-2.3,5.1-5.1C24.2,16.3,21.9,14,19.1,14z"/>
		<path class="st2" d="M21.7,18.3l-2.8,2.8c-0.1,0.1-0.3,0.2-0.4,0.2c-0.1,0-0.3-0.1-0.4-0.2l-1.7-1.7c-0.2-0.2-0.2-0.6,0-0.8
			c0.2-0.2,0.6-0.2,0.8,0l1.3,1.3l0.6-0.6l1.9-1.9c0.2-0.2,0.6-0.2,0.8,0C22,17.8,22,18.1,21.7,18.3z"/>
	</g>
</g>
</svg>
