<?xml version="1.0" encoding="UTF-8"?>
<svg width="15px" height="15px" viewBox="0 0 15 15" version="1.1" xmlns="http://www.w3.org/2000/svg" xmlns:xlink="http://www.w3.org/1999/xlink">
    <!-- Generator: Sketch 51 (57462) - http://www.bohemiancoding.com/sketch -->
    <title>crownGold</title>
    <desc>Created with Sketch.</desc>
    <defs>
        <polygon id="path-1" points="0.258173077 0.299423077 2.04951923 0.299423077 2.04951923 2.09059615 0.258173077 2.09059615"></polygon>
        <polygon id="path-3" points="0.516057692 0.148442308 2.30769231 0.148442308 2.30769231 1.93978846 0.516057692 1.93978846"></polygon>
    </defs>
    <g id="Page-1" stroke="none" stroke-width="1" fill="none" fill-rule="evenodd">
        <g id="个人中心" transform="translate(-90.000000, -267.000000)">
            <g id="Group" transform="translate(16.000000, 247.000000)">
                <g id="crownGold" transform="translate(74.000000, 19.557692)">
                    <path d="M12.4543846,13.8475962 C12.4543846,13.5954808 12.2501538,13.39125 11.9980385,13.39125 L2.99169231,13.39125 C2.74015385,13.39125 2.53534615,13.5954808 2.53534615,13.8475962 L2.53534615,14.8208654 C2.53534615,15.0735577 2.74015385,15.2777885 2.99169231,15.2777885 L11.9980385,15.2777885 C12.2501538,15.2777885 12.4543846,15.0735577 12.4543846,14.8208654 L12.4543846,13.8475962 Z" id="Fill-1" fill="#F1C35E"></path>
                    <path d="M13.9215,3.29053846 C13.7472692,3.19188462 13.5297692,3.21669231 13.3843846,3.354 L10.2320769,6.31880769 L7.90419231,3.35630769 C7.81765385,3.24669231 7.68553846,3.16823077 7.54534615,3.16823077 C7.40515385,3.16823077 7.27303846,3.24726923 7.1865,3.35746154 L4.85861538,6.34188462 L1.70688462,3.37476923 C1.5615,3.23803846 1.34342308,3.2115 1.16976923,3.30957692 C0.995538462,3.40823077 0.905538462,3.60842308 0.948230769,3.804 L2.70553846,11.9357308 C2.75111538,12.1463077 2.93688462,12.2957308 3.15207692,12.2957308 L11.9391923,12.2957308 C12.1543846,12.2957308 12.3401538,12.1457308 12.3857308,11.9351538 L14.1430385,3.78496154 C14.1857308,3.58996154 14.0957308,3.38861538 13.9215,3.29053846" id="Fill-3" fill="#F1C35E"></path>
                    <g id="Group-7" transform="translate(6.346154, 0.277788)">
                        <mask id="mask-2" fill="white">
                            <use xlink:href="#path-1"></use>
                        </mask>
                        <g id="Clip-6"></g>
                        <path d="M0.258173077,1.19521154 C0.258173077,1.68848077 0.659711538,2.09059615 1.15413462,2.09059615 C1.64798077,2.09059615 2.04951923,1.68848077 2.04951923,1.19521154 C2.04951923,0.701365385 1.64798077,0.29925 1.15413462,0.29925 C0.659711538,0.29925 0.258173077,0.701365385 0.258173077,1.19521154" id="Fill-5" fill="#F1C35E" mask="url(#mask-2)"></path>
                    </g>
                    <path d="M1.79146154,1.89894231 C1.79146154,1.40509615 1.38992308,1.00298077 0.8955,1.00298077 C0.401653846,1.00298077 0.000115384615,1.40509615 0.000115384615,1.89894231 C0.000115384615,2.39278846 0.401653846,2.79490385 0.896076923,2.79490385 C1.38992308,2.79490385 1.79146154,2.39221154 1.79146154,1.89894231" id="Fill-8" fill="#F1C35E"></path>
                    <g id="Group-12" transform="translate(12.692308, 0.854712)">
                        <mask id="mask-4" fill="white">
                            <use xlink:href="#path-3"></use>
                        </mask>
                        <g id="Clip-11"></g>
                        <path d="M1.41201923,0.148442308 C0.918173077,0.148442308 0.516057692,0.549980769 0.516057692,1.04440385 C0.516057692,1.53767308 0.918173077,1.93978846 1.41201923,1.93978846 C1.90586538,1.93978846 2.30798077,1.53767308 2.30798077,1.04440385 C2.30798077,0.549980769 1.90586538,0.148442308 1.41201923,0.148442308" id="Fill-10" fill="#F1C35E" mask="url(#mask-4)"></path>
                    </g>
                </g>
            </g>
        </g>
    </g>
</svg>
