<?xml version="1.0" encoding="UTF-8"?>
<svg width="25px" height="20px" viewBox="0 0 25 20" version="1.1" xmlns="http://www.w3.org/2000/svg" xmlns:xlink="http://www.w3.org/1999/xlink">
    <!-- Generator: Sketch 51 (57462) - http://www.bohemiancoding.com/sketch -->
    <title>order</title>
    <desc>Created with Sketch.</desc>
    <defs>
        <polygon id="path-1" points="0 0.954280568 24.523729 0.954280568 24.523729 14.6191 0 14.6191"></polygon>
    </defs>
    <g id="Page-1" stroke="none" stroke-width="1" fill="none" fill-rule="evenodd">
        <g id="个人中心" transform="translate(-32.000000, -410.000000)">
            <rect fill="#FFFFFF" x="0" y="0" width="375" height="727"></rect>
            <g id="order" transform="translate(32.000000, 409.000000)">
                <g id="Group-3" transform="translate(0.000000, 0.045700)">
                    <mask id="mask-2" fill="white">
                        <use xlink:href="#path-1"></use>
                    </mask>
                    <g id="Clip-2"></g>
                    <path d="M19.1902,14.6191 C19.1032,14.6191 19.0212,14.6151 18.9462,14.6081 L9.4982,14.6081 C9.4142,14.6121 6.8642,14.6511 6.0282,11.3541 C5.6532,9.8751 5.3682,8.7061 5.1402,7.7711 C4.2952,4.3101 4.2952,4.3101 3.3152,3.3401 C2.6462,2.6761 1.3172,3.0711 1.3042,3.0751 C0.7762,3.2421 0.2162,2.9521 0.0482,2.4281 C-0.1198,1.9051 0.1632,1.3441 0.6862,1.1731 C0.7882,1.1401 3.1702,0.3811 4.7012,1.8981 C6.1042,3.2861 6.1592,3.5131 7.0832,7.2971 C7.3102,8.2271 7.5942,9.3901 7.9672,10.8631 C8.4022,12.5801 9.4422,12.6091 9.4672,12.6091 L18.9982,12.6081 C19.0382,12.6081 19.0792,12.6111 19.1192,12.6161 C19.2802,12.6331 20.1482,12.6581 20.5882,11.6931 C20.9982,10.7941 22.2622,8.1891 22.4752,7.7491 C22.5182,7.5941 22.5822,7.2031 22.4192,6.9811 C22.2412,6.7361 21.7412,6.5991 21.0092,6.6081 C17.7062,6.6461 10.0692,6.6081 9.9932,6.6081 C9.4402,6.6051 8.9952,6.1561 8.9982,5.6031 C9.0012,5.0531 9.4482,4.6081 9.9982,4.6081 L10.0022,4.6081 C10.0802,4.6091 17.6992,4.6461 20.9862,4.6081 C22.4352,4.5741 23.4682,5.0021 24.0532,5.8271 C24.8562,6.9581 24.4002,8.3131 24.3452,8.4641 C24.3342,8.4961 24.3202,8.5291 24.3052,8.5601 C24.3042,8.5611 22.8512,11.5501 22.4072,12.5231 C21.6452,14.1961 20.1152,14.6191 19.1902,14.6191" id="Fill-1" fill="#333333" mask="url(#mask-2)"></path>
                </g>
                <path d="M10.3504,15.6687 C9.4194,15.6687 8.6624,16.4257 8.6624,17.3567 C8.6624,18.2887 9.4194,19.0457 10.3504,19.0457 C11.2814,19.0457 12.0384,18.2887 12.0384,17.3567 C12.0384,16.4257 11.2814,15.6687 10.3504,15.6687 M10.3504,20.0457 C8.8684,20.0457 7.6624,18.8397 7.6624,17.3567 C7.6624,15.8747 8.8684,14.6687 10.3504,14.6687 C11.8324,14.6687 13.0384,15.8747 13.0384,17.3567 C13.0384,18.8397 11.8324,20.0457 10.3504,20.0457" id="Fill-4" fill="#333333"></path>
                <path d="M19.8333,17.3709 C19.8333,18.3109 19.0713,19.0729 18.1313,19.0729 C17.1913,19.0729 16.4293,18.3109 16.4293,17.3709 C16.4293,16.4309 17.1913,15.6689 18.1313,15.6689 C19.0713,15.6689 19.8333,16.4309 19.8333,17.3709" id="Fill-6" fill="#333333"></path>
            </g>
        </g>
    </g>
</svg>