<?xml version="1.0" encoding="utf-8"?>
<!-- Generator: Adobe Illustrator 19.0.0, SVG Export Plug-In . SVG Version: 6.00 Build 0)  -->
<svg version="1.1" id="图层_1" xmlns="http://www.w3.org/2000/svg" xmlns:xlink="http://www.w3.org/1999/xlink" x="0px" y="0px"
	 viewBox="0 0 24.5 19" width="24.5" height="19" style="enable-background:new 0 0 24.5 19;" xml:space="preserve">
<style type="text/css">
	
		.st0{clip-path:url(#SVGID_2_);fill:none;stroke:#478afb;stroke-width:2;stroke-linecap:round;stroke-linejoin:round;stroke-miterlimit:10;}
	.st1{clip-path:url(#SVGID_2_);fill:none;stroke:#478afb;stroke-linecap:round;stroke-linejoin:round;stroke-miterlimit:10;}
	.st2{clip-path:url(#SVGID_2_);fill:#478afb;}
</style>
<g>
	<defs>
		<rect id="SVGID_1_" y="0" width="24.5" height="19"/>
	</defs>
	<clipPath id="SVGID_2_">
		<use xlink:href="#SVGID_1_"  style="overflow:visible;"/>
	</clipPath>
	<path class="st0" d="M1,1.2c0,0,1.9-0.6,3,0.5c1.5,1.5,1.1,1.1,3,8.5c0.6,2.6,2.5,2.5,2.5,2.5H19c0,0,1.7,0.2,2.5-1.5
		c0.4-1,1.9-4,1.9-4s0.9-2.6-2.4-2.5s-11,0-11,0"/>
	<circle class="st1" cx="10.4" cy="16.4" r="2.2"/>
	<path class="st2" d="M19.8,16.4c0,0.9-0.8,1.7-1.7,1.7c-0.9,0-1.7-0.8-1.7-1.7c0-0.9,0.8-1.7,1.7-1.7
		C19.1,14.7,19.8,15.4,19.8,16.4"/>
</g>
</svg>
