<?xml version="1.0" encoding="UTF-8"?>
<svg width="21px" height="20px" viewBox="0 0 21 20" version="1.1" xmlns="http://www.w3.org/2000/svg" xmlns:xlink="http://www.w3.org/1999/xlink">
    <!-- Generator: Sketch 51 (57462) - http://www.bohemiancoding.com/sketch -->
    <title>password</title>
    <desc>Created with Sketch.</desc>
    <defs>
        <polygon id="path-1" points="0 0 15.1418 0 15.1418 15.249 0 15.249"></polygon>
        <polygon id="path-3" points="0.508685297 0.987339702 3.084 0.987339702 3.084 3.3862 0.508685297 3.3862"></polygon>
    </defs>
    <g id="Page-1" stroke="none" stroke-width="1" fill="none" fill-rule="evenodd">
        <g id="个人中心" transform="translate(-34.000000, -536.000000)">
            <rect fill="#FFFFFF" x="0" y="0" width="375" height="727"></rect>
            <g id="password" transform="translate(34.000000, 536.000000)">
                <g id="Group-3">
                    <mask id="mask-2" fill="white">
                        <use xlink:href="#path-1"></use>
                    </mask>
                    <g id="Clip-2"></g>
                    <path d="M7.5708,2 C4.4988,2 1.9998,4.523 1.9998,7.624 C1.9998,10.726 4.4988,13.249 7.5708,13.249 C10.6428,13.249 13.1418,10.726 13.1418,7.624 C13.1418,4.523 10.6428,2 7.5708,2 M7.5708,15.249 C3.3968,15.249 -0.0002,11.828 -0.0002,7.624 C-0.0002,3.42 3.3968,0 7.5708,0 C11.7448,0 15.1418,3.42 15.1418,7.624 C15.1418,11.828 11.7448,15.249 7.5708,15.249" id="Fill-1" fill="#333333" mask="url(#mask-2)"></path>
                </g>
                <path d="M19,20 C18.743,20 18.486,19.901 18.291,19.705 L13.472,14.855 C13.083,14.463 13.085,13.83 13.477,13.441 C13.868,13.052 14.502,13.054 14.891,13.446 L19.709,18.295 C20.099,18.687 20.097,19.32 19.705,19.709 C19.51,19.903 19.255,20 19,20" id="Fill-4" fill="#333333"></path>
                <path d="M16.2095,16.7378 C15.9555,16.7378 15.7005,16.6408 15.5055,16.4478 C15.1135,16.0588 15.1105,15.4258 15.4995,15.0338 L16.8205,13.7008 C17.2095,13.3078 17.8425,13.3058 18.2345,13.6958 C18.6265,14.0838 18.6295,14.7168 18.2405,15.1098 L16.9195,16.4418 C16.7245,16.6388 16.4665,16.7378 16.2095,16.7378" id="Fill-6" fill="#333333"></path>
                <g id="Group-10" transform="translate(17.000000, 15.000000)">
                    <mask id="mask-4" fill="white">
                        <use xlink:href="#path-3"></use>
                    </mask>
                    <g id="Clip-9"></g>
                    <path d="M1.0088,3.3862 C0.8708,3.3862 0.7338,3.3292 0.6348,3.2182 C0.4518,3.0112 0.4698,2.6962 0.6768,2.5122 L2.2528,1.1142 C2.4578,0.9302 2.7748,0.9482 2.9588,1.1562 C3.1418,1.3622 3.1228,1.6782 2.9168,1.8622 L1.3408,3.2602 C1.2458,3.3442 1.1268,3.3862 1.0088,3.3862" id="Fill-8" fill="#333333" mask="url(#mask-4)"></path>
                </g>
                <path d="M3.6816,8.1504 C3.4056,8.1504 3.1816,7.9264 3.1816,7.6504 C3.1816,5.1694 5.2006,3.1504 7.6816,3.1504 C7.9576,3.1504 8.1816,3.3744 8.1816,3.6504 C8.1816,3.9264 7.9576,4.1504 7.6816,4.1504 C5.7516,4.1504 4.1816,5.7204 4.1816,7.6504 C4.1816,7.9264 3.9576,8.1504 3.6816,8.1504" id="Fill-11" fill="#333333"></path>
            </g>
        </g>
    </g>
</svg>