<?xml version="1.0" encoding="utf-8"?>
<!-- Generator: Adobe Illustrator 21.0.0, SVG Export Plug-In . SVG Version: 6.00 Build 0)  -->
<svg version="1.1" id="图层_1" xmlns="http://www.w3.org/2000/svg" xmlns:xlink="http://www.w3.org/1999/xlink" x="0px" y="0px"
	 viewBox="0 0 24.3 27.8" style="enable-background:new 0 0 24.3 27.8;" xml:space="preserve">
<style type="text/css">
	.st0{fill:#333333;}
	.st1{fill:none;stroke:#333333;stroke-linecap:round;stroke-linejoin:round;}
</style>
<g>
	<path class="st0" d="M12.1,1c0.3,0,0.5,0.1,0.7,0.3L23,11.4c0.4,0.4,0.3,0.9,0.2,1.1c-0.2,0.4-0.6,0.7-1.1,0.7h-4c-0.6,0-1,0.4-1,1
		v4c0,0.5-0.5,1-1,1H8c-0.5,0-1-0.5-1-1v-4c0-0.6-0.4-1-1-1H2c-0.6,0-0.9-0.5-0.9-0.6c-0.1-0.2-0.2-0.7,0.2-1.1L11.5,1.3
		C11.6,1.1,11.9,1,12.1,1 M12.2,0c-0.5,0-1.1,0.2-1.4,0.6L0.6,10.7C-0.7,12,0.3,14.1,2,14.1h4v4c0,1.1,0.9,2,2,2h8.1
		c1.1,0,2-0.9,2-2v-4h4c1.9,0,2.8-2.1,1.5-3.4L13.6,0.6C13.2,0.2,12.7,0,12.2,0L12.2,0z"/>
</g>
<line class="st1" x1="6.9" y1="23.3" x2="17.4" y2="23.3"/>
<line class="st1" x1="6.9" y1="27.3" x2="17.4" y2="27.3"/>
</svg>
