<svg xmlns="http://www.w3.org/2000/svg" viewBox="0 0 46 46">
  <title>ding</title>
  <g id="Layer_2" data-name="Layer 2">
    <g id="Layer_1-2" data-name="Layer 1">
      <circle id="_Path_" data-name="&lt;Path&gt;" cx="23" cy="23" r="23" fill="#cbcbcb"/>
      <path d="M32.41,20a4.46,4.46,0,0,1-.29.74h0l0,0c-.84,1.8-3,5.32-3,5.32v0l-.64,1.12h3.09L25.61,35,27,29.66H24.52l.84-3.53c-.68.16-1.49.39-2.45.7,0,0-1.29.76-3.73-1.46,0,0-1.64-1.45-.69-1.81a28.29,28.29,0,0,1,3.19-.51c1.66-.22,2.68-.34,2.68-.34s-5.11.08-6.33-.11-2.75-2.21-3.08-4c0,0-.51-1,1.09-.51s8.21,1.8,8.21,1.8-8.6-2.64-9.17-3.28a10.09,10.09,0,0,1-1.54-5.27.39.39,0,0,1,.51-.32s6.36,2.9,10.7,4.49,8.12,2.4,7.64,4.46Z" fill="#fff"/>
    </g>
  </g>
</svg>
