<svg xmlns="http://www.w3.org/2000/svg" width="46" height="46" viewBox="0 0 46 46">
  <title>资源 6</title>
  <g>
    <circle cx="23" cy="23" r="23" style="fill: #cbcbcb"/>
    <g>
      <path d="M28,21.46H19.92v2.45h5.71c-.28,3.44-3.07,4.9-5.7,4.9a6.36,6.36,0,0,1-6.31-6.52,6.37,6.37,0,0,1,6.31-6.56,6.14,6.14,0,0,1,4.31,1.77l1.67-1.78a8.42,8.42,0,0,0-6.06-2.45,9,9,0,0,0,.13,18,7.82,7.82,0,0,0,8.14-8.18A7.53,7.53,0,0,0,28,21.46Zm0,0" style="fill: #fff"/>
      <rect x="29.69" y="21.27" width="7.31" height="2.08" style="fill: #fff"/>
      <rect x="29.55" y="21.12" width="7.5" height="2.03" transform="translate(55.44 -11.16) rotate(90)" style="fill: #fff"/>
    </g>
  </g>
</svg>
