<svg xmlns="http://www.w3.org/2000/svg" width="46" height="46" viewBox="0 0 46 46">
  <title>资源 7</title>
  <g>
    <circle cx="23" cy="23" r="23" style="fill: #cbcbcb"/>
    <path d="M19.1,12.38c-5.2,0-9.45,3.46-9.45,7.85,0,2.53,1.41,4.61,3.78,6.23l-.95,2.77,3.3-1.62a16.55,16.55,0,0,0,3.31.46c.3,0,.59,0,.88,0a6.63,6.63,0,0,1-.29-1.93c0-4,3.55-7.31,8-7.31a8.67,8.67,0,0,1,.91.05C27.82,15.14,23.75,12.38,19.1,12.38Zm-3.24,6.51a1.38,1.38,0,1,1,1.38-1.38A1.38,1.38,0,0,1,15.87,18.89Zm6.6,0a1.38,1.38,0,1,1,1.17-2.11,1.24,1.24,0,0,1,.1.19l0,.12a.75.75,0,0,1,0,.17,1.06,1.06,0,0,1,0,.24A1.38,1.38,0,0,1,22.47,18.89ZM36.35,26c0-3.69-3.78-6.7-8-6.7-4.5,0-8,3-8,6.7s3.54,6.7,8,6.7a12,12,0,0,0,2.84-.47l2.59,1.39L33,31.31C34.94,29.92,36.35,28.08,36.35,26Zm-10.52-.94A1.13,1.13,0,1,1,27,23.94,1.12,1.12,0,0,1,25.83,25.06Zm5.17,0a1.13,1.13,0,1,1,1.13-1.12A1.13,1.13,0,0,1,31,25.06Z" style="fill: #fff"/>
  </g>
</svg>
