<?xml version="1.0" encoding="utf-8"?>
<!-- Generator: Adobe Illustrator 22.0.1, SVG Export Plug-In . SVG Version: 6.00 Build 0)  -->
<svg version="1.1" id="背景" xmlns="http://www.w3.org/2000/svg" xmlns:xlink="http://www.w3.org/1999/xlink" x="0px" y="0px"
	 width="115px" height="115.9px" viewBox="0 0 115 115.9" style="enable-background:new 0 0 115 115.9;" xml:space="preserve">
<style type="text/css">
	.st0{fill:#4C83FF;}
	.st1{fill:#F7F6FB;}
	.st2{fill:#E4E7EC;}
	.st3{opacity:0.2;fill:#323333;}
	.st4{fill:#6C99FF;}
	.st5{fill:none;stroke:#E4E7EC;stroke-width:2;stroke-linecap:round;stroke-linejoin:round;stroke-miterlimit:10;}
</style>
<polygon class="st0" points="104,45.8 104,52.8 34.7,70.8 25.5,43 108,33.8 "/>
<path class="st1" d="M22.3,50.2L56.1,2.8l20-2.8l38,27.7c0,0,2.2,2-0.2,4.8L95.8,57.7L40.6,72.5L22.3,50.2z"/>
<path class="st2" d="M56.1,2.8l8.3,6.8c0,0,2.1,1.8,3.8,0c0,0.1,7.9-9.7,7.9-9.7"/>
<path class="st0" d="M34.7,70.8H13.6c-2.9,0-5.2-2.3-5.2-5.2V30c0-2.9,2.3-5.2,5.2-5.2h13.9c-0.1-0.1,8,8.1,8,8.1l4.4,32.7
	C39.9,68.5,37.6,70.8,34.7,70.8z"/>
<path class="st3" d="M91.9,107.8H14.7c-3,0-5.4-2.7-5.4-6L0,53.4c0-3.3,2.4-6,5.4-6H101c3,0,5.4,2.7,5.4,6l-9,48.4
	C97.3,105.1,94.9,107.8,91.9,107.8z"/>
<path class="st4" d="M91,115.9H15c-2.9,0-5.3-2.9-5.3-6.5L0.4,56.9c0-3.6,2.4-6.5,5.3-6.5h94.1c2.9,0,5.3,2.9,5.3,6.5l-8.9,52.5
	C96.3,113,93.9,115.9,91,115.9z"/>
<line class="st5" x1="63.3" y1="16.3" x2="92.3" y2="36.3"/>
<line class="st5" x1="55.4" y1="24.3" x2="84.4" y2="44.3"/>
<line class="st5" x1="47" y1="32.6" x2="66.7" y2="46.3"/>
</svg>
