<?xml version="1.0" encoding="utf-8"?>
<!-- Generator: Adobe Illustrator 22.0.1, SVG Export Plug-In . SVG Version: 6.00 Build 0)  -->
<svg version="1.1" id="图层_1" xmlns="http://www.w3.org/2000/svg" xmlns:xlink="http://www.w3.org/1999/xlink" x="0px" y="0px"
	 width="354.9px" height="545.1px" viewBox="0 0 354.9 545.1" style="enable-background:new 0 0 354.9 545.1;" xml:space="preserve"
	>
<style type="text/css">
	.st0{fill:#FFFFFF;}
</style>
<path class="st0" d="M354.9,171.6C354.9,76.8,275.5,0,177.5,0S0,76.8,0,171.6c0,55.6,27.3,105,69.7,136.3
	C104,333.3,124,373.6,124,416.2c0,9.7,7.9,17.6,17.6,17.6h71.7c9.7,0,17.6-7.9,17.6-17.6c0-42.6,20-82.9,54.3-108.2
	C327.6,276.6,354.9,227.2,354.9,171.6L354.9,171.6z M224.1,472.2h-93.3c-6.9,0-12.4-5.5-12.4-12.4c0-6.9,5.5-12.4,12.4-12.4h93.3
	c6.9,0,12.4,5.5,12.4,12.4C236.4,466.6,230.9,472.2,224.1,472.2L224.1,472.2z M224.1,472.2"/>
<path class="st0" d="M212.7,510.6h-70.6c-6.9,0-12.4-5.5-12.4-12.4c0-6.9,5.5-12.4,12.4-12.4h70.6c6.9,0,12.4,5.5,12.4,12.4
	C225.1,505,219.5,510.6,212.7,510.6L212.7,510.6z M198.3,545.1h-41.8c-6.9,0-12.4-5.5-12.4-12.4c0-6.9,5.5-12.4,12.4-12.4h41.8
	c6.9,0,12.4,5.5,12.4,12.4C210.7,539.4,205.2,545.1,198.3,545.1L198.3,545.1z M198.3,545.1"/>
</svg>
