<?xml version="1.0" encoding="utf-8"?>
<!-- Generator: Adobe Illustrator 19.0.0, SVG Export Plug-In . SVG Version: 6.00 Build 0)  -->
<svg version="1.1" id="图层_1" xmlns="http://www.w3.org/2000/svg" xmlns:xlink="http://www.w3.org/1999/xlink" x="0px" y="0px"
	 viewBox="0 0 128.2 84" width="128.2" height="84" style="enable-background:new 0 0 128.2 84;" xml:space="preserve">
<style type="text/css">
	.st0{clip-path:url(#SVGID_2_);fill:#999999;}
	
		.st1{clip-path:url(#SVGID_2_);fill:none;stroke:#333333;stroke-width:2;stroke-linecap:round;stroke-linejoin:round;stroke-miterlimit:10;}
	
		.st2{clip-path:url(#SVGID_2_);fill:none;stroke:#333333;stroke-width:4;stroke-linecap:round;stroke-linejoin:round;stroke-miterlimit:10;}
</style>
<g>
	<defs>
		<rect id="SVGID_1_" width="128.2" height="84"/>
	</defs>
	<clipPath id="SVGID_2_">
		<use xlink:href="#SVGID_1_"  style="overflow:visible;"/>
	</clipPath>
	<path class="st0" d="M117.6,29.6c0.7,0.3,0.8,1,0.5,1.7c-0.3,0.7-1.2,1.1-1.8,0.8c-0.6-0.3-0.8-1-0.5-1.7
		C116.1,29.7,117,29.3,117.6,29.6 M122.9,24.5c-1.4,0.4-2.4,1.1-2.8,2c-0.4,0.9-0.9,1.2-1.5,0.9c-0.6-0.3-0.7-0.9-0.3-1.7
		c0.5-1.1,1.5-1.9,3-2.5c0.4-0.2,1-0.4,1.8-0.6c1.5-0.5,2.4-1.1,2.8-1.9c0.4-0.8,0.4-1.6,0.1-2.3c-0.3-0.8-0.8-1.3-1.4-1.6
		c-1-0.5-2-0.6-2.7-0.2c-0.7,0.3-1.2,0.4-1.5,0.3c-0.5-0.2-0.7-0.7-0.5-1.1c0.2-0.5,0.9-0.8,2-1c1.1-0.2,2.2,0,3.2,0.5
		c1.4,0.6,2.3,1.5,2.7,2.7c0.5,1.2,0.5,2.3-0.1,3.5c-0.5,1.2-1.6,2-3,2.5L122.9,24.5z"/>
	<path class="st0" d="M6.1,54.3c0,0.9,0.2,1.6,0.7,2c0.4,0.4,0.5,0.7,0.3,1c-0.3,0.3-0.6,0.3-1.1-0.1C5.4,56.8,5.1,56,5,55
		c0-0.3,0-0.7,0-1.2c0-1-0.3-1.6-0.7-2c-0.4-0.4-0.9-0.5-1.4-0.5c-0.5,0.1-0.9,0.2-1.2,0.6C1.3,52.4,1,53,1.1,53.5
		c0.1,0.5,0,0.8-0.1,1c-0.2,0.3-0.5,0.3-0.7,0.1C0,54.3-0.1,53.8,0,53.2c0.1-0.7,0.4-1.3,0.9-1.8c0.6-0.7,1.3-1.1,2.1-1.2
		c0.8-0.1,1.5,0.1,2.1,0.7C5.7,51.4,6,52.1,6,53.1L6.1,54.3z M8.2,58.4c0.3-0.4,0.7-0.3,1.1,0c0.4,0.3,0.5,0.9,0.2,1.2
		c-0.3,0.3-0.8,0.3-1.1,0C8,59.3,7.9,58.7,8.2,58.4"/>
	<path class="st0" d="M62,1c22.6,0,41,18.4,41,41S84.6,83,62,83S21,64.6,21,42S39.4,1,62,1 M62,0C38.8,0,20,18.8,20,42
		s18.8,42,42,42s42-18.8,42-42S85.2,0,62,0"/>
	<path class="st1" d="M52.5,26h-3.3c-1.8,0-3.3,1.5-3.3,3.3v27.4c0,1.8,1.5,3.3,3.3,3.3h25.4c1.8,0,3.3-1.5,3.3-3.3V29.3
		c0-1.8-1.5-3.3-3.3-3.3h-2.5"/>
	<line class="st2" x1="57.5" y1="26" x2="66.9" y2="26"/>
	<line class="st1" x1="52.5" y1="36.4" x2="71.8" y2="36.4"/>
	<line class="st1" x1="52.5" y1="43" x2="71.8" y2="43"/>
	<line class="st1" x1="52.5" y1="49.2" x2="71.8" y2="49.2"/>
</g>
</svg>
