<svg xmlns="http://www.w3.org/2000/svg" xmlns:xlink="http://www.w3.org/1999/xlink" viewBox="0 0 60 60">
  <defs>
    <linearGradient id="linear-gradient" x1="-0.32" y1="58.97" x2="59.47" y2="1.84" gradientUnits="userSpaceOnUse">
      <stop offset="0" stop-color="#41b0e6"/>
      <stop offset="1" stop-color="#92dd3e"/>
    </linearGradient>
  </defs>
  <title>Asset 1</title>
  <g id="Layer_2" data-name="Layer 2">
    <g id="图层_1" data-name="图层 1">
      <rect width="60" height="60" rx="13.13" ry="13.13" fill="url(#linear-gradient)"/>
      <g id="椭圆_3_副本" data-name="椭圆 3 副本" opacity="0.6">
        <circle cx="45.24" cy="16.24" r="2.12" fill="#fff"/>
      </g>
      <g id="椭圆_3_副本_2" data-name="椭圆 3 副本 2">
        <circle cx="48.42" cy="21.52" r="1.76" fill="#fff"/>
      </g>
      <rect id="_Path_" data-name="&lt;Path&gt;" x="12.7" y="43.69" width="32.79" height="3.58" fill="#fff" opacity="0.4"/>
      <g id="_Group_" data-name="&lt;Group&gt;">
        <polygon points="31.65 24.67 31.8 32.75 26.92 32.74 31.65 24.67" fill="#fff"/>
        <path d="M32,39.18a4.89,4.89,0,0,0,0,.53,8.4,8.4,0,0,1-.2,1,1.64,1.64,0,0,1-2,1.35H28.67l-.29,1H25.13l.29-1H24c-1,0-1.38-.59-1.11-1.79A10.24,10.24,0,0,1,24,37.82l1.74-3h6.07Z" fill="#fff"/>
        <path d="M29.39,14.83a18.3,18.3,0,0,1,6.06,1l-.63.9L22.73,37.07Q20.24,41.56,17.82,42l-.29,1H13a18.94,18.94,0,0,1-2.31-9.34A18.76,18.76,0,0,1,29.39,14.83Z" fill="#fff" opacity="0.8"/>
        <path d="M48.06,33.66a20.13,20.13,0,0,1-.93,6.07,17.23,17.23,0,0,1-.61,1.67A16.64,16.64,0,0,1,45.76,43H38.37l.28-1q-2,0-1.86-2.55l-.7-22.73v-.66l.34.13.36.15c.35.15.69.31,1,.48l.35.18c.38.2.74.42,1.1.65a18,18,0,0,1,1.64,1.16l.54.45.77.69.73.74a17.67,17.67,0,0,1,1.34,1.59c.14.19.28.38.41.57l.38.58a19.65,19.65,0,0,1,1,1.83c.11.21.2.42.3.64s.15.32.22.5.2.5.29.75c.18.49.34,1,.48,1.52.05.19.1.39.15.59a17.48,17.48,0,0,1,.38,2.25A4.82,4.82,0,0,1,48,32c0,.1,0,.22,0,.33a4,4,0,0,1,0,.46C48.05,33.11,48.06,33.38,48.06,33.66Z" fill="#fff" opacity="0.8"/>
      </g>
      <circle id="_Path_2" data-name="&lt;Path&gt;" cx="39.61" cy="12.72" r="2.82" fill="#fff" opacity="0.4"/>
    </g>
  </g>
</svg>
