<?xml version="1.0" encoding="utf-8"?>
<!-- Generator: Adobe Illustrator 19.0.0, SVG Export Plug-In . SVG Version: 6.00 Build 0)  -->
<svg version="1.1" id="图层_1" xmlns="http://www.w3.org/2000/svg" xmlns:xlink="http://www.w3.org/1999/xlink" x="0px" y="0px"
	 viewBox="0 0 17 17.8" width="17" height="17.8" style="enable-background:new 0 0 17 17.8;" xml:space="preserve">
<style type="text/css">
	
		.st0{clip-path:url(#SVGID_2_);fill:none;stroke:#478afb;stroke-width:2;stroke-linecap:round;stroke-linejoin:round;stroke-miterlimit:10;}
	.st1{clip-path:url(#SVGID_2_);fill:#478afb;}
</style>
<g>
	<defs>
		<rect id="SVGID_1_" y="0" width="17" height="17.8"/>
	</defs>
	<clipPath id="SVGID_2_">
		<use xlink:href="#SVGID_1_"  style="overflow:visible;"/>
	</clipPath>
	<path class="st0" d="M16,7.9c0,3.8-2.2,5.7-4,6.9c-4,2.8-9,1.8-9,1.8s3-0.9,0.4-3.7C1.9,11.7,1,9.9,1,7.9C1,4.1,4.4,1,8.5,1
		S16,4.1,16,7.9z"/>
	<path class="st1" d="M8,7.7c0,0.6-0.4,1-1,1s-1-0.4-1-1c0-0.6,0.4-1,1-1S8,7.1,8,7.7"/>
	<path class="st1" d="M12,7.7c0,0.6-0.4,1-1,1c-0.6,0-1-0.4-1-1c0-0.6,0.4-1,1-1C11.6,6.7,12,7.1,12,7.7"/>
</g>
</svg>
