<?xml version="1.0" encoding="utf-8"?>
<!-- Generator: Adobe Illustrator 21.0.1, SVG Export Plug-In . SVG Version: 6.00 Build 0)  -->
<svg version="1.1" id="Layer_1" xmlns="http://www.w3.org/2000/svg" xmlns:xlink="http://www.w3.org/1999/xlink" x="0px" y="0px"
	 viewBox="0 0 375 233" style="enable-background:new 0 0 375 233;" xml:space="preserve">
<style type="text/css">
	.st0{fill:url(#Rectangle-4_1_);}
	.st1{opacity:0.2;}
	.st2{fill:none;stroke:#FFFFFF;stroke-width:2;}
	.st3{fill:none;stroke:#FFFFFF;stroke-width:2;stroke-linecap:round;}
</style>
<title>Group 4</title>
<desc>Created with Sketch.</desc>
<g id="Page-1">
	<g id="个人中心" transform="translate(0.000000, -70.000000)">
		<g id="Group-4" transform="translate(0.000000, 71.000000)">
			
				<linearGradient id="Rectangle-4_1_" gradientUnits="userSpaceOnUse" x1="-768.9092" y1="653.2132" x2="-770.0239" y2="654.3265" gradientTransform="matrix(375 0 0 -232 288728 151769)">
				<stop  offset="0" style="stop-color:#4786FF"/>
				<stop  offset="1" style="stop-color:#2BD2DF"/>
			</linearGradient>
			<path id="Rectangle-4" class="st0" d="M0-1h375v202.4C316,221.1,254.7,231,191,231S63.7,221.1,0,201.4L0-1z"/>
			<g id="Group-91-Copy" class="st1">
				<path id="Stroke-1" class="st2" d="M324.9,20.8c2,0,3.6-1.7,3.6-3.6c0-2-1.7-3.6-3.6-3.6s-3.6,1.7-3.6,3.6
					C321.2,19.1,322.9,20.8,324.9,20.8z"/>
				<path id="Stroke-5" class="st2" d="M251.2,57.6c2,0,3.6-1.7,3.6-3.6s-1.7-3.6-3.6-3.6s-3.6,1.7-3.6,3.6S249.2,57.6,251.2,57.6z"
					/>
				<path id="Stroke-7" class="st2" d="M286.1,185.2c3.9,0,7.3-3.3,7.3-7.3s-3.3-7.3-7.3-7.3s-7.3,3.3-7.3,7.3
					S282.1,185.2,286.1,185.2z"/>
				<path id="Stroke-9" class="st2" d="M35.6,41.1c1.6,0,2.9-1.3,2.9-2.9s-1.3-2.9-2.9-2.9s-2.9,1.3-2.9,2.9S34,41.1,35.6,41.1z"/>
				<path id="Stroke-11" class="st2" d="M34.5,211.2c1.6,0,2.9-1.3,2.9-2.9s-1.3-2.9-2.9-2.9s-2.9,1.3-2.9,2.9
					S32.9,211.2,34.5,211.2z"/>
				<path id="Stroke-13" class="st2" d="M7.3,142.5c3.9,0,7.3-3.3,7.3-7.3c0-3.9-3.3-7.3-7.3-7.3S0,131.3,0,135.2
					C0,139.2,3.3,142.5,7.3,142.5z"/>
				<path id="Stroke-15" class="st2" d="M373.5,44.4c0.8,0,1.5-0.7,1.5-1.5s-0.7-1.5-1.5-1.5c-0.8,0-1.5,0.7-1.5,1.5
					S372.8,44.4,373.5,44.4z"/>
				<path id="Stroke-17" class="st2" d="M359,154.1c0.8,0,1.5-0.7,1.5-1.5c0-0.8-0.7-1.5-1.5-1.5c-0.8,0-1.5,0.7-1.5,1.5
					C357.6,153.4,358.2,154.1,359,154.1z"/>
				<path id="Stroke-19" class="st3" d="M149.7,16.6l1.7-1.7"/>
				<path id="Stroke-21" class="st3" d="M144.8,21.5l1.6-1.6"/>
				<path id="Stroke-23" class="st3" d="M146.4,16.6l-1.6-1.6"/>
				<path id="Stroke-25" class="st3" d="M151.3,21.5l-1.6-1.6"/>
				<path id="Stroke-27" class="st3" d="M89.4,170l1.7-1.7"/>
				<path id="Stroke-29" class="st3" d="M84.5,174.9l1.6-1.6"/>
				<path id="Stroke-31" class="st3" d="M86.1,170l-1.6-1.6"/>
				<path id="Stroke-33" class="st3" d="M91,174.9l-1.6-1.6"/>
				<path id="Stroke-35" class="st3" d="M74.6,215.2l1.7-1.7"/>
				<path id="Stroke-37" class="st3" d="M69.7,220.1l1.6-1.6"/>
				<path id="Stroke-39" class="st3" d="M71.3,215.2l-1.6-1.6"/>
				<path id="Stroke-41" class="st3" d="M76.2,220.1l-1.6-1.6"/>
				<path id="Stroke-43" class="st3" d="M194.1,73.1l1.7-1.7"/>
				<path id="Stroke-45" class="st3" d="M189.2,78l1.6-1.6"/>
				<path id="Stroke-47" class="st3" d="M190.9,73.1l-1.6-1.6"/>
				<path id="Stroke-49" class="st3" d="M195.8,78l-1.6-1.6"/>
				<path id="Stroke-51" class="st3" d="M226.9,0.1L228-1"/>
				<path id="Stroke-53" class="st3" d="M223.6,3.4l1.1-1.1"/>
				<path id="Stroke-55" class="st3" d="M224.7,0.1L223.6-1"/>
				<path id="Stroke-57" class="st3" d="M228,3.4l-1.1-1.1"/>
				<path id="Stroke-59" class="st3" d="M113.5,217l1.1-1.1"/>
				<path id="Stroke-61" class="st3" d="M110.3,220.3l1.1-1.1"/>
				<path id="Stroke-63" class="st3" d="M111.4,217l-1.1-1.1"/>
				<path id="Stroke-65" class="st3" d="M114.6,220.3l-1.1-1.1"/>
				<path id="Stroke-67" class="st3" d="M346.8,76.4l1.1-1.1"/>
				<path id="Stroke-69" class="st3" d="M343.6,79.7l1.1-1.1"/>
				<path id="Stroke-71" class="st3" d="M344.6,76.4l-1.1-1.1"/>
				<path id="Stroke-73" class="st3" d="M347.9,79.7l-1.1-1.1"/>
				<path id="Stroke-75" class="st3" d="M114.7,99.8l1.1-1.1"/>
				<path id="Stroke-77" class="st3" d="M111.5,103.1l1.1-1.1"/>
				<path id="Stroke-79" class="st3" d="M112.6,99.8l-1.1-1.1"/>
				<path id="Stroke-81" class="st3" d="M115.8,103.1l-1.1-1.1"/>
				<path id="Stroke-83" class="st3" d="M124.9,175.8l1.1-1.1"/>
				<path id="Stroke-85" class="st3" d="M121.7,179l1.1-1.1"/>
				<path id="Stroke-87" class="st3" d="M122.7,175.7l-1.1-1.1"/>
				<path id="Stroke-89" class="st3" d="M126,179l-1.1-1.1"/>
			</g>
		</g>
	</g>
</g>
</svg>
