<?xml version="1.0" encoding="UTF-8"?>
<svg width="24px" height="29px" viewBox="0 0 24 29" version="1.1" xmlns="http://www.w3.org/2000/svg" xmlns:xlink="http://www.w3.org/1999/xlink">
    <!-- Generator: Sketch 51 (57462) - http://www.bohemiancoding.com/sketch -->
    <title>Group 19</title>
    <desc>Created with Sketch.</desc>
    <defs>
        <polygon id="path-1" points="0.470472727 0 1.60792727 0 1.60792727 1.1345525 0.470472727 1.1345525"></polygon>
        <polygon id="path-3" points="0.000436363636 0.3750425 23.8964364 0.3750425 23.8964364 20.3 0.000436363636 20.3"></polygon>
    </defs>
    <g id="Page-1" stroke="none" stroke-width="1" fill="none" fill-rule="evenodd">
        <g id="非会员" transform="translate(-176.000000, -288.000000)">
            <g id="Group-19" transform="translate(176.000000, 288.000000)">
                <path d="M19.0605091,1.8995 C18.7885091,1.7429 18.4401455,1.836425 18.2830545,2.10685 C18.1259636,2.378725 18.2197818,2.725275 18.4917818,2.881875 C18.7630545,3.0392 19.1114182,2.945675 19.2685091,2.674525 C19.4256,2.403375 19.3325091,2.056825 19.0605091,1.8995" id="Fill-1" fill="#A37631"></path>
                <g id="Group-5" transform="translate(10.909091, 0.000000)">
                    <mask id="mask-2" fill="white">
                        <use xlink:href="#path-1"></use>
                    </mask>
                    <g id="Clip-4"></g>
                    <path d="M1.0392,-7.25e-05 C0.725018182,-7.25e-05 0.470472727,0.2544025 0.470472727,0.5676025 C0.470472727,0.8800775 0.725018182,1.1345525 1.0392,1.1345525 C1.35338182,1.1345525 1.60792727,0.8800775 1.60792727,0.5676025 C1.60792727,0.2544025 1.35338182,-7.25e-05 1.0392,-7.25e-05" id="Fill-3" fill="#A37631" mask="url(#mask-2)"></path>
                </g>
                <path d="M11.9482909,15.0871775 C11.6341091,15.0871775 11.3795636,15.3416525 11.3795636,15.6541275 C11.3795636,15.9673275 11.6341091,16.2218025 11.9482909,16.2218025 C12.2624727,16.2218025 12.5170182,15.9673275 12.5170182,15.6541275 C12.5170182,15.3416525 12.2624727,15.0871775 11.9482909,15.0871775" id="Fill-6" fill="#A37631"></path>
                <path d="M5.61345455,2.107285 C5.45636364,1.836135 5.108,1.743335 4.836,1.89921 C4.564,2.056535 4.47090909,2.403085 4.628,2.674235 C4.78509091,2.94611 5.13345455,3.03891 5.40545455,2.881585 C5.67672727,2.72571 5.77054545,2.37916 5.61345455,2.107285" id="Fill-8" fill="#A37631"></path>
                <path d="M11.9482909,2.2687425 C11.6341091,2.2687425 11.3795636,2.5224925 11.3795636,2.8356925 L11.3795636,5.1049425 C11.3795636,5.4181425 11.6341091,5.6718925 11.9482909,5.6718925 C12.2624727,5.6718925 12.5170182,5.4181425 12.5170182,5.1049425 L12.5170182,2.8356925 C12.5170182,2.5224925 12.2624727,2.2687425 11.9482909,2.2687425" id="Fill-10" fill="#A37631"></path>
                <path d="M7.88938182,6.037075 L6.75192727,4.072325 C6.59410909,3.80045 6.24647273,3.70765 5.97447273,3.86425 C5.70247273,4.02085 5.60865455,4.3674 5.76574545,4.639275 L6.90392727,6.604025 C7.00938182,6.786 7.20065455,6.888225 7.39701818,6.888225 C7.49374545,6.888225 7.5912,6.863575 7.68065455,6.8121 C7.95338182,6.6555 8.04647273,6.30895 7.88938182,6.037075" id="Fill-12" fill="#A37631"></path>
                <path d="M17.9224,3.8641775 C17.6496727,3.7075775 17.3020364,3.8003775 17.1456727,4.0722525 L16.0074909,6.0377275 C15.8504,6.3088775 15.9434909,6.6554275 16.2154909,6.8120275 C16.3049455,6.8635025 16.4031273,6.8881525 16.4991273,6.8881525 C16.6962182,6.8881525 16.8874909,6.7859275 16.9929455,6.6046775 L18.1311273,4.6392025 C18.2874909,4.3673275 18.1951273,4.0207775 17.9224,3.8641775" id="Fill-14" fill="#A37631"></path>
                <g id="Group-18" transform="translate(0.000000, 8.700000)">
                    <mask id="mask-4" fill="white">
                        <use xlink:href="#path-3"></use>
                    </mask>
                    <g id="Clip-17"></g>
                    <path d="M23.8964364,6.9507925 C23.8964364,6.9435425 23.8964364,6.9362925 23.8957091,6.9297675 C23.8957091,6.9225175 23.8949818,6.9152675 23.8942545,6.9080175 C23.8942545,6.9036675 23.8942545,6.8985925 23.8935273,6.8942425 C23.8928,6.8877175 23.8913455,6.8811925 23.8906182,6.8753925 C23.8898909,6.8681425 23.8884364,6.8608925 23.8869818,6.8536425 C23.8862545,6.8485675 23.8855273,6.8434925 23.8840727,6.8376925 C23.8833455,6.8326175 23.8818909,6.8275425 23.8804364,6.8217425 C23.8789818,6.8152175 23.8768,6.8072425 23.8746182,6.7999925 C23.8731636,6.7941925 23.8717091,6.7883925 23.8695273,6.7825925 C23.8688,6.7789675 23.8666182,6.7746175 23.8658909,6.7702675 C23.8629818,6.7630175 23.8600727,6.7550425 23.8571636,6.7477925 C23.8542545,6.7412675 23.8520727,6.7354675 23.8498909,6.7296675 C23.8484364,6.7260425 23.8469818,6.7231425 23.8455273,6.7202425 C23.8418909,6.7122675 23.8375273,6.7042925 23.8338909,6.6963175 C23.8309818,6.6905175 23.8280727,6.6847175 23.8244364,6.6789175 C23.8237091,6.6774675 23.8237091,6.6767425 23.8229818,6.6752925 L20.4135273,0.6635925 C20.4120727,0.6599675 20.4098909,0.6577925 20.4084364,0.6548925 C20.3982545,0.6382175 20.3880727,0.6229925 20.3771636,0.6077675 C20.3742545,0.6041425 20.3713455,0.5997925 20.3684364,0.5961675 C20.3546182,0.5773175 20.3393455,0.5599175 20.3226182,0.5432425 L20.3218909,0.5425175 C20.3066182,0.5272925 20.2898909,0.5127925 20.2724364,0.4990175 C20.2673455,0.4953925 20.2629818,0.4917675 20.2586182,0.4881425 C20.2448,0.4779925 20.2295273,0.4685675 20.2149818,0.4591425 C20.2098909,0.4562425 20.2048,0.4526175 20.1997091,0.4497175 C20.1808,0.4388425 20.1604364,0.4286925 20.1393455,0.4199925 L20.1386182,0.4192675 C20.1175273,0.4105675 20.0957091,0.4033175 20.0746182,0.3975175 C20.0680727,0.3953425 20.0622545,0.3946175 20.0564364,0.3931675 C20.0389818,0.3888175 20.0222545,0.3851925 20.0048,0.3822925 C19.9989818,0.3815675 19.9931636,0.3801175 19.9873455,0.3801175 C19.9640727,0.3772175 19.9415273,0.3750425 19.9189818,0.3750425 L19.9182545,0.3750425 L19.9168,0.3750425 L11.9480727,0.3750425 L11.9466182,0.3750425 L3.98370909,0.3750425 C3.95970909,0.3750425 3.93643636,0.3772175 3.91243636,0.3801175 C3.90734545,0.3801175 3.90152727,0.3815675 3.89643636,0.3822925 C3.87970909,0.3851925 3.86225455,0.3888175 3.8448,0.3931675 C3.83825455,0.3946175 3.83243636,0.3960675 3.82589091,0.3975175 C3.80698182,0.4033175 3.7888,0.4098425 3.77061818,0.4163675 C3.76770909,0.4178175 3.76407273,0.4185425 3.76116364,0.4199925 L3.75970909,0.4207175 C3.73934545,0.4294175 3.71970909,0.4395675 3.7008,0.4504425 C3.69570909,0.4533425 3.69134545,0.4562425 3.68698182,0.4591425 C3.67098182,0.4685675 3.65643636,0.4779925 3.64261818,0.4888675 C3.63825455,0.4917675 3.63316364,0.4953925 3.6288,0.4997425 C3.6128,0.5120675 3.59752727,0.5251175 3.58370909,0.5388925 C3.58152727,0.5410675 3.57934545,0.5425175 3.57789091,0.5446925 C3.56189091,0.5606425 3.54661818,0.5780425 3.5328,0.5961675 C3.52989091,0.5997925 3.52770909,0.6041425 3.5248,0.6070425 C3.51389091,0.6222675 3.50298182,0.6382175 3.49352727,0.6541675 C3.49207273,0.6570675 3.48916364,0.6599675 3.48770909,0.6628675 L0.0804363636,6.6629675 L0.0804363636,6.6636925 L0.0738909091,6.6752925 L0.0731636364,6.6774675 C0.0688,6.6847175 0.0651636364,6.6912425 0.0622545455,6.6970425 C0.0578909091,6.7057425 0.0542545455,6.7129925 0.0506181818,6.7216925 C0.0491636364,6.7245925 0.0477090909,6.7267675 0.0469818182,6.7289425 C0.0440727273,6.7354675 0.0418909091,6.7419925 0.0389818182,6.7485175 C0.0360727273,6.7564925 0.0331636364,6.7644675 0.0302545455,6.7724425 C0.0295272727,6.7753425 0.0280727273,6.7789675 0.0266181818,6.7825925 C0.0251636364,6.7883925 0.0229818182,6.7949175 0.0215272727,6.8014425 C0.0193454545,6.8086925 0.0171636364,6.8159425 0.0157090909,6.8239175 C0.0142545455,6.8289925 0.0135272727,6.8326175 0.0120727273,6.8376925 C0.0113454545,6.8434925 0.0106181818,6.8492925 0.00916363636,6.8550925 C0.00770909091,6.8623425 0.00625454545,6.8695925 0.00552727273,6.8768425 C0.0048,6.8826425 0.00407272727,6.8884425 0.00334545455,6.8935175 C0.00261818182,6.8985925 0.00261818182,6.9043925 0.00261818182,6.9087425 C0.00189090909,6.9167175 0.00116363636,6.9239675 0.00116363636,6.9319425 C0.000436363636,6.9377425 0.000436363636,6.9442675 0.000436363636,6.9507925 L0.000436363636,6.9544175 C0.000436363636,6.9580425 0.000436363636,6.9616675 0.000436363636,6.9652925 C0.000436363636,6.9725425 0.00116363636,6.9797925 0.00116363636,6.9870425 C0.00189090909,6.9935675 0.00189090909,6.9993675 0.00261818182,7.0058925 C0.00261818182,7.0109675 0.00334545455,7.0160425 0.00407272727,7.0218425 C0.0048,7.0283675 0.00625454545,7.0356175 0.00698181818,7.0428675 C0.00843636364,7.0486675 0.00916363636,7.0544675 0.00989090909,7.0595425 C0.0113454545,7.0653425 0.0120727273,7.0711425 0.0135272727,7.0769425 C0.0149818182,7.0834675 0.0171636364,7.0899925 0.0186181818,7.0972425 C0.0200727273,7.1023175 0.0215272727,7.1073925 0.0229818182,7.1124675 L0.0280727273,7.1305925 C0.0302545455,7.1371175 0.0324363636,7.1429175 0.0346181818,7.1494425 C0.0368,7.1545175 0.0389818182,7.1595925 0.0404363636,7.1639425 C0.0433454545,7.1704675 0.0455272727,7.1762675 0.0477090909,7.1820675 C0.0506181818,7.1878675 0.0535272727,7.1936675 0.0564363636,7.1994675 C0.0586181818,7.2045425 0.0615272727,7.2096175 0.0637090909,7.2154175 C0.0666181818,7.2204925 0.0695272727,7.2262925 0.0731636364,7.2313675 C0.0760727273,7.2371675 0.0782545455,7.2415175 0.0818909091,7.2465925 C0.0848,7.2523925 0.0891636364,7.2581925 0.0928,7.2639925 C0.0957090909,7.2683425 0.0993454545,7.2734175 0.102981818,7.2792175 C0.105890909,7.2828425 0.1088,7.2879175 0.112436364,7.2922675 C0.116072727,7.2980675 0.121163636,7.3031425 0.1248,7.3089425 C0.129163636,7.3132925 0.133527273,7.3183675 0.137890909,7.3234425 C0.140072727,7.3263425 0.141527273,7.3292425 0.144436364,7.3321425 L11.5946182,20.1109925 C11.6091636,20.1262175 11.6237091,20.1414425 11.6397091,20.1552175 C11.6418909,20.1566675 11.6440727,20.1588425 11.6462545,20.1610175 C11.6629818,20.1747925 11.6804364,20.1878425 11.6978909,20.2001675 C11.7037091,20.2045175 11.7095273,20.2081425 11.7153455,20.2117675 C11.7320727,20.2219175 11.7495273,20.2313425 11.7669818,20.2407675 C11.7713455,20.2422175 11.7757091,20.2451175 11.7808,20.2472925 C11.8033455,20.2574425 11.8258909,20.2661425 11.8491636,20.2733925 C11.8542545,20.2755675 11.8600727,20.2770175 11.8658909,20.2784675 C11.8848,20.2835425 11.9037091,20.2878925 11.9226182,20.2907925 C11.9298909,20.2922425 11.9371636,20.2936925 11.9437091,20.2944175 C11.9691636,20.2980425 11.9938909,20.3002175 12.0193455,20.3002175 L12.0200727,20.3002175 C12.0462545,20.3002175 12.0717091,20.2973175 12.0964364,20.2944175 C12.1037091,20.2929675 12.1102545,20.2922425 12.1175273,20.2907925 C12.1371636,20.2871675 12.1553455,20.2828175 12.1742545,20.2777425 C12.1800727,20.2762925 12.1858909,20.2748425 12.1917091,20.2726675 C12.2149818,20.2654175 12.2375273,20.2567175 12.2600727,20.2465675 C12.2644364,20.2443925 12.2688,20.2414925 12.2738909,20.2393175 C12.2913455,20.2306175 12.3080727,20.2204675 12.3248,20.2103175 C12.3313455,20.2066925 12.3364364,20.2023425 12.3429818,20.1987175 C12.3604364,20.1863925 12.3771636,20.1733425 12.3938909,20.1588425 C12.3960727,20.1566675 12.3989818,20.1552175 12.4011636,20.1530425 C12.4164364,20.1385425 12.4317091,20.1240425 12.4455273,20.1080925 L23.7546182,7.3299675 C23.7568,7.3277925 23.7582545,7.3248925 23.7604364,7.3227175 C23.7640727,7.3183675 23.7677091,7.3140175 23.7713455,7.3096675 C23.7757091,7.3031425 23.7808,7.2973425 23.7851636,7.2908175 C23.7888,7.2864675 23.7917091,7.2828425 23.7946182,7.2777675 C23.7982545,7.2734175 23.8011636,7.2690675 23.8040727,7.2639925 C23.8077091,7.2581925 23.8120727,7.2523925 23.8157091,7.2458675 C23.8186182,7.2407925 23.8215273,7.2357175 23.8244364,7.2306425 C23.8273455,7.2255675 23.8295273,7.2212175 23.8324364,7.2154175 C23.8353455,7.2096175 23.8382545,7.2045425 23.8404364,7.1987425 C23.8433455,7.1929425 23.8469818,7.1871425 23.8491636,7.1806175 C23.8513455,7.1755425 23.8535273,7.1704675 23.8557091,7.1646675 C23.8578909,7.1595925 23.8600727,7.1545175 23.8615273,7.1487175 C23.8644364,7.1421925 23.8666182,7.1356675 23.8688,7.1291425 C23.8702545,7.1240675 23.8717091,7.1182675 23.8738909,7.1131925 C23.8753455,7.1073925 23.8768,7.1015925 23.8782545,7.0965175 C23.8797091,7.0892675 23.8818909,7.0827425 23.8833455,7.0754925 C23.8840727,7.0704175 23.8855273,7.0653425 23.8862545,7.0602675 C23.8877091,7.0537425 23.8884364,7.0479425 23.8891636,7.0414175 C23.8906182,7.0348925 23.8913455,7.0276425 23.8928,7.0203925 C23.8928,7.0153175 23.8935273,7.0109675 23.8942545,7.0066175 C23.8949818,6.9993675 23.8949818,6.9928425 23.8949818,6.9855925 C23.8957091,6.9783425 23.8964364,6.9710925 23.8964364,6.9638425 C23.8964364,6.9609425 23.8964364,6.9580425 23.8964364,6.9544175 C23.8964364,6.9529675 23.8964364,6.9515175 23.8964364,6.9507925" id="Fill-16" fill="#A37631" mask="url(#mask-4)"></path>
                </g>
            </g>
        </g>
    </g>
</svg>
