<?xml version="1.0" encoding="UTF-8"?>
<svg width="17px" height="18px" viewBox="0 0 17 18" version="1.1" xmlns="http://www.w3.org/2000/svg" xmlns:xlink="http://www.w3.org/1999/xlink">
    <!-- Generator: Sketch 51 (57462) - http://www.bohemiancoding.com/sketch -->
    <title>workList</title>
    <desc>Created with Sketch.</desc>
    <defs>
        <polygon id="path-1" points="0 0 16.9996 0 16.9996 18 0 18"></polygon>
    </defs>
    <g id="Page-1" stroke="none" stroke-width="1" fill="none" fill-rule="evenodd">
        <g id="个人中心" transform="translate(-36.000000, -473.000000)">
            <rect fill="#FFFFFF" x="0" y="0" width="375" height="727"></rect>
            <g id="workList" transform="translate(36.000000, 473.000000)">
                <g id="Group-3">
                    <mask id="mask-2" fill="white">
                        <use xlink:href="#path-1"></use>
                    </mask>
                    <g id="Clip-2"></g>
                    <path d="M14.4556,18 L2.5606,18 C1.1486,18 -0.0004,16.851 -0.0004,15.439 L-0.0004,2.544 C-0.0004,1.142 1.1416,0 2.5446,0 C3.0966,0 3.5446,0.448 3.5446,1 C3.5446,1.552 3.0966,2 2.5446,2 C2.2446,2 1.9996,2.244 1.9996,2.544 L1.9996,15.439 C1.9996,15.743 2.2566,16 2.5606,16 L14.4556,16 C14.7556,16 14.9996,15.756 14.9996,15.456 L14.9996,2.544 C14.9996,2.244 14.7556,2 14.4556,2 C13.9036,2 13.4556,1.552 13.4556,1 C13.4556,0.448 13.9036,0 14.4556,0 C15.8586,0 16.9996,1.142 16.9996,2.544 L16.9996,15.456 C16.9996,16.858 15.8586,18 14.4556,18" id="Fill-1" fill="#333333" mask="url(#mask-2)"></path>
                </g>
                <path d="M10,2 L7,2 C6.448,2 6,1.552 6,1 C6,0.448 6.448,0 7,0 L10,0 C10.552,0 11,0.448 11,1 C11,1.552 10.552,2 10,2" id="Fill-4" fill="#333333"></path>
                <path d="M12.5,6 L4.5,6 C4.224,6 4,5.776 4,5.5 C4,5.224 4.224,5 4.5,5 L12.5,5 C12.776,5 13,5.224 13,5.5 C13,5.776 12.776,6 12.5,6" id="Fill-6" fill="#333333"></path>
                <path d="M12.5,9 L4.5,9 C4.224,9 4,8.776 4,8.5 C4,8.224 4.224,8 4.5,8 L12.5,8 C12.776,8 13,8.224 13,8.5 C13,8.776 12.776,9 12.5,9" id="Fill-8" fill="#333333"></path>
                <path d="M12.5,12 L4.5,12 C4.224,12 4,11.776 4,11.5 C4,11.224 4.224,11 4.5,11 L12.5,11 C12.776,11 13,11.224 13,11.5 C13,11.776 12.776,12 12.5,12" id="Fill-10" fill="#333333"></path>
            </g>
        </g>
    </g>
</svg>